<?xml version="1.0" encoding="utf-8"?>
<!-- Generator: Adobe Illustrator 28.1.0, SVG Export Plug-In . SVG Version: 6.00 Build 0)  -->
<svg version="1.1" id="Layer_1" xmlns="http://www.w3.org/2000/svg" xmlns:xlink="http://www.w3.org/1999/xlink" x="0px" y="0px"
	 viewBox="0 0 595.3 2841.9" style="enable-background:new 0 0 595.3 2841.9;" xml:space="preserve">
<style type="text/css">
	.st0{fill:#666C9B;}
	.st1{fill:#39214E;}
	.st2{fill:#4E3F6F;}
	.st3{fill:#40295A;}
	.st4{fill:#564E7E;}
	.st5{fill:#493868;}
	.st6{fill:#534878;}
	.st7{fill:#606392;}
	.st8{fill:#453161;}
	.st9{fill:#5D5C8B;}
	.st10{fill:#646897;}
	.st11{fill:#5A5585;}
	.st12{fill:#505278;}
	.st13{fill:#1A1425;}
	.st14{fill:#414161;}
	.st15{fill:#14101A;}
	.st16{fill:#36344F;}
	.st17{fill:#2D2942;}
	.st18{fill:#868491;}
	.st19{fill:#696DA0;}
	.st20{fill:#7A63AB;}
	.st21{fill:#262238;}
	.st22{fill:#706BA8;}
	.st23{fill:#7669AE;}
	.st24{fill:#6C6CA3;}
	.st25{fill:#7965AC;}
	.st26{fill:#DCDBDB;}
	.st27{fill:#70788E;}
	.st28{fill:#835CA7;}
	.st29{fill:#7F6EB1;}
	.st30{fill:#737793;}
	.st31{fill:#8168AE;}
	.st32{fill:#8253A1;}
	.st33{fill:#77759A;}
	.st34{fill:#7B75A5;}
	.st35{fill:#7C74AA;}
	.st36{fill:#613895;}
	.st37{fill:#28272B;}
	.st38{fill:#2A1927;}
	.st39{fill:#24243A;}
	.st40{fill:#22102C;}
	.st41{fill:#D1D0E4;}
	.st42{fill:#DCC4DF;}
	.st43{fill:#5B398B;}
	.st44{fill:#4C536A;}
	.st45{fill:#565073;}
	.st46{fill:#5C4885;}
	.st47{fill:#2F1E43;}
	.st48{fill:#3A2B70;}
	.st49{fill:#69429A;}
	.st50{fill:#645684;}
	.st51{fill:#141220;}
	.st52{fill:#59C1EB;}
	.st53{fill:#8854A2;}
</style>
<g>
	<path class="st0" d="M131.6,2321.9c-0.1,54.7-0.1,109.4-0.1,164.1c1.5,2.8,3,5.5,4.5,8.3c-1.5,15.8-4.1,31.7-4.3,47.5
		c-0.6,44.9-0.2,89.9-0.1,134.8c-0.1,6.2-0.1,12.4-0.1,18.6c-0.2,49.1-0.4,98.2-0.5,147.3H6.3c0.1-113.1,0.1-226.2,0.4-339.3
		c0-6.7-3-7.1-8.2-7.1c-26.6,0.2-53.2,0.1-79.7,0.1v-208.1c16.1,1.5,32,6.2,48.3,0.1c12.6-4.7,28.2,1.7,39.2-9.9
		c1.4,3.2,2.2,6.8,4.3,9.4c2.5,3.1,6.2,7.9,9.1,7.6c16.1-1.2,34.5,5.8,46.9-11.3c0.4,4.4-0.4,12.1,1.4,12.7c8.2,3,14.9,11.7,20.1,13
		c13.5,3.4,29.6,7.5,42.7-4.3C131,2311.1,131.3,2316.5,131.6,2321.9L131.6,2321.9z"/>
	<path class="st1" d="M78.1,210.7c0,1.3,0,2.6,0,3.9c-0.6,0.7-1.1,1.4-1.7,2.1c-15.8,1.1-23.7,10-23.7,26.6
		c0,11.9,0.3,23.8,0.5,35.7c-0.1,16.7-0.3,33.4-0.3,50.1c0,45.2-0.1,90.5,0.2,135.8c0,4.1,2.5,8.2,3.8,12.4
		c-1.3,4.5-2.6,9.1-3.8,13.6c0,4.5,0,9.1,0,13.6c-0.2,4.6-0.4,9.2-0.5,13.7c-12.1,3.9-25.9-4.2-37.2,5.3c-0.5,0.4-2.2,0.1-2.7-0.5
		c-8.9-10.1-24.4,4.8-32.5-8.4c-0.2-0.2-2.2,0.8-3.4,1.1c-11,2.5-21.8,5.9-32.9,7.2c-8.2,1-16.7-0.6-25-1V175.7
		c18,0.6,36.1,1.9,54.1,1.8c35-0.2,70-1.1,105-1.7c0.1,1.3,0.2,2.5,0.3,3.8C78.2,189.9,78.1,200.3,78.1,210.7L78.1,210.7z"/>
	<path class="st2" d="M-81.2,1224.1V986.8c19.5-0.1,39,0.4,58.5-0.5c25.1-1.2,50.2-3.4,75.3-5.2c0.1,35.7,0.3,71.3,0.4,106.9
		c0,15.2-0.1,30.4-0.1,45.6c0,13.1,6.7,20,20,20.6c1.9,0.1,3.7,1.2,5.5,1.8c-1.7,0.7-3.3,1.6-5.1,2c-13.8,3.2-20.4,11.3-20.4,25.5
		c0,12.9-0.1,25.9-0.2,38.8c-9.5-2.5-18.1-1.9-28.2,0.6c-14.9,3.7-31.1-1.7-47.3,0.6C-41.9,1226.2-61.7,1224.1-81.2,1224.1
		L-81.2,1224.1z"/>
	<path class="st3" d="M-81.2,521.9c8.4,0.4,16.9,2,25,1c11.1-1.4,22-4.7,32.9-7.2c1.2-0.3,3.3-1.3,3.4-1.1
		c8.2,13.2,23.6-1.7,32.5,8.4c0.5,0.6,2.2,0.9,2.7,0.5c11.3-9.6,25.1-1.5,37.2-5.3c0.1,42.1,0.2,84.3,0.3,126.4
		c0.1,5.8,0.2,11.7,0.3,17.5c-0.2,20.1-0.4,40.2-0.6,60.3c-5.2-0.7-10.4-2.2-15.7-2.1c-25,0.4-50,1.7-74.9,1.6
		c-14.4-0.1-28.9-2.2-43.3-3.4C-81.2,652.9-81.2,587.4-81.2,521.9L-81.2,521.9z"/>
	<path class="st4" d="M-81.2,1529.5c0-57.1,0-114.1,0-171.2c17.9,0.7,35.8,1.9,53.6,1.8c26.8-0.1,53.6-1.1,80.3-1.8
		c0.1,36.9,0.3,73.7,0.4,110.6c-12.9,0.1-25.8,0.4-38.6,0.1c-6.3-0.2-8.4,1.8-8.3,8.2c0.3,17.4,0,34.8-0.1,52.2
		C-23,1529.5-52.1,1529.5-81.2,1529.5L-81.2,1529.5z"/>
	<path class="st5" d="M52.6,981c-25.1,1.8-50.2,4.1-75.3,5.2c-19.5,0.9-39,0.4-58.5,0.5c0-47.3,0-94.7,0-142
		c16.7-0.5,33.5-0.7,50.2-1.7c7.2-0.4,14.3-3.3,21.4-3.1c10.8,0.4,21.6,3.2,32.5,3.8c9.9,0.5,19.9-0.6,29.9-1
		c0.2,0.6,0.4,1.2,0.5,1.8c0,44.1,0,88.2-0.1,132.3C52.9,978.4,52.8,979.7,52.6,981L52.6,981z"/>
	<path class="st6" d="M52.7,1358.4c-26.8,0.6-53.6,1.7-80.3,1.8c-17.9,0.1-35.8-1.2-53.6-1.8c0-44.7,0-89.5,0-134.2
		c19.5,0,39.3,2.1,58.4-0.7c16.2-2.3,32.4,3.1,47.3-0.6c10.2-2.6,18.8-3.1,28.2-0.6c0.1,32.4,0.2,64.8,0.4,97.2
		c-0.1,2.6-0.1,5.2-0.1,7.9c0.7,5.2,1.3,10.3,2,15.5C54.2,1348,53.5,1353.2,52.7,1358.4L52.7,1358.4z"/>
	<path class="st7" d="M-81.2,2107.3c0-71.3,0-142.7,0-214c13.7,0.3,27.4,0.1,41,1.1c6.5,0.4,12.8,4.4,19.1,4.1
		c9.2-0.4,18.2-3.3,27.3-5.1c0.1,7.1,0.2,14.2,0.2,21.4c0,53.8-0.1,107.7-0.1,161.5c0,9.7-0.1,19.5-0.1,29.2
		c-10.9-0.8-21.8-2.6-32.6-2.2C-44.7,2103.8-62.9,2105.8-81.2,2107.3z"/>
	<path class="st8" d="M52.7,842.9c-10,0.4-20,1.5-29.9,1c-10.9-0.6-21.6-3.4-32.5-3.8c-7.1-0.3-14.2,2.7-21.4,3.1
		c-16.7,0.9-33.5,1.1-50.2,1.7c0-42.2,0-84.3,0-126.4c14.4,1.2,28.9,3.3,43.3,3.4c25,0.1,50-1.2,74.9-1.6c5.2-0.1,10.4,1.4,15.7,2.1
		c0.1,22.6,0.1,45.2,0.4,67.8c0.1,7.3-1.3,15.8,1.9,21.6c1.7,3.1,11.8,1.4,18.1,2c1.4,0.1,2.7,1.1,4,1.7c-1.2,0.7-2.4,1.6-3.7,2.2
		C62.2,822.5,50.9,827.4,52.7,842.9L52.7,842.9z"/>
	<path class="st9" d="M6.2,1893.3c-9.1,1.8-18.1,4.7-27.3,5.1c-6.3,0.3-12.7-3.6-19.1-4.1c-13.6-0.9-27.4-0.8-41-1.1
		c0-61.6,0-123.2,0-184.8c17.3,1.3,34.6,2.5,51.9,3.8c1.6,0.1,3.3,0.1,4.8-0.4c10.3-3.6,20.4-7.4,30.7-11.2
		c0.1,25.9,0.2,51.9,0.3,77.8C6.4,1816.8,6.3,1855,6.2,1893.3L6.2,1893.3z"/>
	<path class="st10" d="M-81.2,2107.3c18.3-1.4,36.6-3.5,54.9-4.1c10.8-0.4,21.7,1.4,32.6,2.2c0,22.1,0,44.1,0.1,66.1
		c0,35.7,0,71.3,0,107c-11,11.6-26.6,5.2-39.2,9.9c-16.3,6-32.2,1.4-48.3-0.1C-81.2,2227.9-81.2,2167.6-81.2,2107.3z"/>
	<path class="st11" d="M6.1,1700.7c-10.2,3.8-20.4,7.6-30.7,11.2c-1.5,0.5-3.2,0.5-4.8,0.4c-17.3-1.2-34.6-2.5-52-3.8
		c0-59.7,0-119.3,0-179c29.1,0,58.2,0,87.3,0c0.1,29.2,0.3,58.4,0.4,87.6C6.4,1644.9,6.3,1672.8,6.1,1700.7L6.1,1700.7z"/>
	<path class="st12" d="M77.8,175.8c-35,0.6-70,1.5-105,1.7c-18,0.1-36.1-1.1-54.1-1.8c2.6-0.6,5.2-1.9,7.8-1.9
		c50.6-0.1,101.1-0.1,151.7-0.1C78.1,174.4,78,175.1,77.8,175.8z"/>
	<path class="st13" d="M52.7,842.9c-1.7-15.5,9.5-20.4,20.7-25.4c1.3-0.6,2.4-1.4,3.7-2.2c-1.3-0.6-2.6-1.5-4-1.7
		c-6.3-0.6-16.4,1.1-18.1-2c-3.2-5.8-1.8-14.2-1.9-21.6c-0.2-22.6-0.2-45.2-0.4-67.8c0.2-20.1,0.4-40.2,0.6-60.3
		c7.2-4,14.4-8,21.6-12c1.2-0.7,2.2-2,3.2-2.9c-1.5-0.2-2.9-0.5-4.4-0.7c-6.9-0.7-13.8-1.3-20.7-1.9c-0.1-42.1-0.2-84.3-0.3-126.4
		c0.2-4.6,0.3-9.2,0.5-13.7c10.7,6.8,21.9,9.7,34.5,6c3.8-1.1,8.1-0.2,12.1-0.2c10.9,0,22.4,2.4,30.7-7.7
		c0.1,43.1,0.2,86.2,0.3,129.4c0,53.8-0.2,107.6,0.1,161.4c0,7.6,2.1,15.3,3.2,22.9c-0.5,0.4-0.9,0.9-1.2,1.4
		c-0.8,7.1-1.6,14.3-2.4,21.4c-3.5,1.7-6.9,4.9-10.4,5c-22.2,0.7-44.5,0.6-66.8,0.8C53.1,844.1,52.9,843.5,52.7,842.9L52.7,842.9z"
		/>
	<path class="st14" d="M52.9,1327.3c0.1-2.6,0.1-5.2,0.1-7.9c26-0.7,51.9-1.3,77.9-2c0.6,14.3,1.2,28.5,1.8,42.8
		c0.5,5.3,0.9,10.6,1.4,15.9c-0.9,2.7-2.5,5.3-2.6,8c-0.1,55.4-0.1,110.9-0.1,166.3c0,0.6,0.4,1.2,0.5,1.9c1,3.5,2,7,2.9,10.5
		c-1.3,9.6-2.6,19.3-4,28.9c-21.5,1.4-43,2.7-64.5,4.1c0-7.1,0.5-14.3-0.2-21.3c-0.8-8.6,1.4-15,9.7-18.7c1.6-0.7,2.8-2.4,4.2-3.6
		c-2.1-0.3-4.1-1.1-6.1-0.9c-6,0.6-7.9-2-7.7-7.8c0.4-12.3-0.4-24.6,0.4-36.8c0.2-3,4.3-7.6,7.1-8.1c6.6-1,8.5-3.6,8.5-10.1
		c-0.1-19.1,0.2-19.1-18.6-19.2c-3.6,0-7.1-0.2-10.7-0.2c-0.1-36.9-0.3-73.7-0.4-110.6c0.7-5.2,1.5-10.4,2.2-15.6c1.9-1,4-1.8,5.8-3
		c6-3.8,11.9-7.7,17.9-11.5C70.1,1328,61.5,1327.6,52.9,1327.3L52.9,1327.3z"/>
	<path class="st15" d="M130.5,502.4c-8.3,10.2-19.8,7.8-30.7,7.7c-4.1,0-8.4-0.9-12.1,0.2c-12.6,3.7-23.8,0.8-34.5-6
		c0-4.5,0-9.1,0-13.6c2.5-2.4,5-4.6,7.4-7.1c2-2.1,3.7-4.5,5.6-6.7c-3,0-6.1,0.1-9.1,0.1c-1.3-4.1-3.8-8.2-3.8-12.4
		c-0.3-45.2-0.2-90.5-0.2-135.8c0-16.7,0.2-33.4,0.3-50.1c1.3,0.1,2.7,0.2,4,0.4c22.2,0.4,44.5,1.1,66.7,1.3
		c24.6,0.2,24.3,0,24.7,25c0.2,11.7,1.6,23.2-16,20.6c-0.4-0.1-0.9,0.8-1.4,1.3c-0.1,30.1-0.3,60.2-0.4,90.4c0,1.3,0,3.6,0.4,3.7
		c13.9,3.1,2.6,11.1,3.3,16.8c-0.5,0.8-1,1.5-1.5,2.3l-0.1,0.1c-0.7,3.3-2.1,6.5-2.1,9.9C130.6,467.7,130.6,485.1,130.5,502.4
		L130.5,502.4z M67.9,474c3.1,1.7,4.3,2.8,5.6,2.9c1.7,0.1,3.5-0.5,5.3-0.9c-0.8-0.9-1.6-2.4-2.5-2.5
		C74.3,473.2,72.2,473.7,67.9,474L67.9,474z"/>
	<path class="st16" d="M131,1317.4c-26,0.7-51.9,1.3-77.9,2c-0.1-32.4-0.2-64.8-0.4-97.2c0.1-12.9,0.2-25.9,0.2-38.8
		c0-14.2,6.6-22.3,20.4-25.5c1.8-0.4,3.4-1.3,5.1-2c-1.8-0.6-3.6-1.7-5.5-1.8c-13.3-0.6-20-7.5-20-20.6c0-15.2,0-30.4,0.1-45.6
		c26-1.3,52-2.6,78.1-3.9c0.2,28,0.1,56,0.8,84c0.1,4.6,5.1,8.9,5.5,13.6c0.3,3.7-2.9,7.6-4.5,11.5c-0.4,0.8-0.8,1.6-1.2,2.4
		C131.4,1236.1,131.2,1276.8,131,1317.4L131,1317.4z"/>
	<path class="st17" d="M131,1084.1c-26,1.3-52,2.6-78.1,3.9c-0.1-35.7-0.3-71.3-0.4-106.9c0.2-1.3,0.4-2.7,0.5-4
		c4.8-0.4,9.6-0.8,14.4-1.2c10.2-0.8,21.1-4.2,30.5-1.9c11.8,3,21.9,1.3,32.4-2.7c0.1,3.5-0.1,7.1,0.4,10.6
		c0.9,6.3,2.1,12.5,3.2,18.8c-0.8,3.6-2.3,7.3-2.4,10.9C131.3,1035.7,131.2,1059.9,131,1084.1L131,1084.1z"/>
	<path class="st13" d="M130.5,502.4c0.1-17.4,0.1-34.7,0.4-52.1c0.1-3.3,1.4-6.6,2.1-9.9c-0.1,53.4-0.1,106.9-0.4,160.3
		c-0.1,10,6.7,5.9,11.3,6.8c2.4,0.4,4.8,1,7.2,1.5c-1.8,1.3-3.7,2.5-5.3,4c-6.7,6.3-13.5,11.6-13.4,23c0.7,50.8,0.5,101.7,0.1,152.5
		c-0.1,9,2.5,12.4,11.4,11.5c2.3-0.2,4.8,0.9,7.1,1.3c-1.4,2.7-2.2,6.2-4.3,7.8c-3.8,2.9-8.4,4.7-12.6,6.9
		c-1.1-7.6-3.2-15.3-3.2-22.9c-0.3-53.8-0.1-107.6-0.1-161.4C130.7,588.6,130.6,545.5,130.5,502.4L130.5,502.4z M139.9,807
		c-2.9-1-4.1-1.8-4.6-1.5c-1.1,0.8-1.9,2-2.4,3.2c-0.1,0.3,1.4,1.9,1.7,1.8C135.9,809.9,137.2,808.9,139.9,807L139.9,807z"/>
	<path class="st17" d="M134.1,1000.6c-1.1-6.3-2.4-12.5-3.2-18.8c-0.5-3.5-0.3-7.1-0.4-10.6c0-44.1,0-88.2,0-132.3
		c0.8-7.1,1.6-14.3,2.4-21.4c-0.1,52.7,0.1,105.3-0.4,158c-0.1,10.5,6.4,7.9,12,8.6c2.3,0.3,4.4,1.5,6.6,2.3c-1.6,1.1-3.4,2-4.9,3.3
		C142,993.3,138.1,997,134.1,1000.6z"/>
	<path class="st1" d="M131.2,327.3c0.5-0.4,1-1.3,1.4-1.3c17.6,2.6,16.2-8.9,16-20.6c-0.4-24.9-0.1-24.8-24.7-25
		c-22.2-0.2-44.5-0.8-66.7-1.3c28.8-0.1,57.7-0.4,86.5-0.1c2.2,0,6.2,3.9,6.4,6.2c0.7,10-0.4,20.1,0.5,30.1
		c0.8,9.2-1.8,13.3-11.5,11.7C136.5,326.7,133.8,327.2,131.2,327.3L131.2,327.3z"/>
	<path class="st14" d="M134.2,1376.1c-0.5-5.3-0.9-10.6-1.4-15.9c5.9,0.3,11.8,0.6,17.7,0.9c-3.6,3.3-7.1,6.7-10.7,10.1
		C138,1372.9,136.1,1374.5,134.2,1376.1L134.2,1376.1z"/>
	<path class="st14" d="M135,1562.7c-1-3.5-2-7-2.9-10.5c1.3,0.1,2.6,0,3.9,0.2c5.1,0.7,10.2,1.5,15.3,2.3
		C145.8,1557.4,140.4,1560.1,135,1562.7L135,1562.7z"/>
	<path class="st12" d="M78.1,210.7c0-10.4,0-20.7,0-31.1C78.2,189.9,78.1,200.3,78.1,210.7z"/>
	<path class="st18" d="M133.1,440.4c0.5-0.8,1-1.5,1.5-2.3C134.1,438.9,133.6,439.7,133.1,440.4z"/>
	<path class="st18" d="M131.7,1195.5c0.4-0.8,0.8-1.6,1.2-2.4C132.5,1193.9,132.1,1194.7,131.7,1195.5z"/>
	<path class="st12" d="M76.4,216.6c0.6-0.7,1.1-1.4,1.7-2.1C77.6,215.2,77,215.9,76.4,216.6z"/>
	<path class="st10" d="M130.7,2305.7c-13,11.8-29.2,7.7-42.7,4.3c-5.2-1.3-11.9-10-20.1-13c-1.8-0.6-1-8.3-1.4-12.7
		c0-2.6,0-5.2,0-7.8c-0.6-1.3-1.3-2.6-1.9-3.9c0-13-1.8-26.4,0.6-39c2.3-11.9-5-28.5,13.1-34.7c0.6-0.2,1-1.2,1.5-1.8
		c-0.9-0.1-2.1,0.1-2.8-0.4c-3.5-1.8-7-3.9-10.4-5.8c21.5-0.7,42.7,9.2,64.3,1.9c0.2,36.1,0.4,72.2,0.6,108.4
		C131.3,2302.7,131,2304.2,130.7,2305.7L130.7,2305.7z"/>
	<path class="st7" d="M130.9,2192.9c-21.7,7.2-42.9-2.7-64.3-1.9c0-3.2,0-6.5,0-9.7c1.6,0,3.4,0.5,4.8-0.1c2.2-1.1,4.1-2.8,6.2-4.3
		c-2.4-0.6-4.8-1.2-7.2-1.6c-1.2-0.2-2.5,0.1-3.8,0.2c0-24,0-48,0-72c4.7-0.5,9.5-1.3,14.2-1.4c16.7-0.3,33.4-0.4,50.1-0.6
		c-0.9,11.6,7.3,9.4,14.1,9.4c1.5,0,2.9,0.6,4.4,0.9c-1.1,0.8-2.2,1.6-3.3,2.5c-8.6,7-15.9,14-15,27.2
		C132.3,2158.5,131.1,2175.7,130.9,2192.9L130.9,2192.9z"/>
	<path class="st9" d="M130.9,2101.4c-16.7,0.2-33.4,0.2-50.1,0.6c-4.7,0.1-9.5,0.9-14.2,1.4c0.8-2.9,0.8-6.5,2.6-8.6
		c4.4-5.3,3.9-8.3-2.9-10.9c0.1-22.7,0.1-45.4,0.2-68.1c12.6,1.9,25.3,3.6,37.9,5.9c9,1.6,17.8,4.1,26.6,6.2
		C131,2052.4,131,2076.9,130.9,2101.4L130.9,2101.4z"/>
	<path class="st10" d="M130.7,2305.7c0.3-1.5,0.5-3,0.8-4.5c6.5,0.8,13,1.6,19.5,2.3c-4.4,4.2-8.7,8.3-13.1,12.5
		c-2.1,2-4.2,3.9-6.3,5.9C131.3,2316.5,131,2311.1,130.7,2305.7L130.7,2305.7z"/>
	<path class="st0" d="M131.3,2695.2c0.1-6.2,0.1-12.4,0.1-18.6c5.4,0.3,10.8,0.5,16.2,1.1c1.3,0.1,2.6,1.3,3.7,2.3
		c0.2,0.2-0.3,2-0.9,2.4C144.1,2686.7,137.7,2691,131.3,2695.2L131.3,2695.2z"/>
	<path class="st0" d="M135.9,2494.3c-1.5-2.8-3-5.5-4.5-8.3c0.6,0.2,1.2,0.5,1.8,0.6c5.6,0.7,11.2,1.3,16.8,2
		C145.4,2490.5,140.7,2492.4,135.9,2494.3L135.9,2494.3z"/>
	<path class="st19" d="M66.6,2181.2c0,3.2,0,6.5,0,9.7c3.5,1.9,6.9,3.9,10.4,5.8c0.8,0.4,1.9,0.2,2.8,0.4c-0.5,0.6-0.9,1.6-1.5,1.8
		c-18.1,6.2-10.9,22.8-13.1,34.7c-2.4,12.6-0.6,26-0.6,39c0.6,1.3,1.3,2.6,1.9,3.9c0,2.6,0,5.2,0,7.8c-12.4,17-30.8,10-46.9,11.3
		c-2.9,0.2-6.7-4.5-9.1-7.6c-2.1-2.6-2.9-6.3-4.3-9.4c0-35.7,0-71.3,0-107c6,2.6,11.9,6.9,18.1,7.5c13.3,1.1,26.8,0.3,40.2,0.3
		C65.3,2179.9,66,2180.5,66.6,2181.2L66.6,2181.2z"/>
	<path class="st13" d="M56.9,477.1c3,0,6.1-0.1,9.1-0.1c-1.9,2.2-3.6,4.6-5.6,6.7c-2.3,2.5-4.9,4.7-7.4,7.1
		C54.4,486.2,55.6,481.7,56.9,477.1L56.9,477.1z"/>
	<path class="st1" d="M52.9,644.5c6.9,0.6,13.8,1.3,20.7,1.9c1.5,0.1,2.9,0.4,4.4,0.7c-1.1,1-2,2.2-3.2,2.9c-7.1,4.1-14.4,8-21.6,12
		C53.1,656.2,53,650.3,52.9,644.5L52.9,644.5z"/>
	<path class="st20" d="M66.6,1595.7c0,3.9,0,7.7,0.1,11.6c-0.1,13.9-0.3,27.8-0.2,41.7c0,2.3,0.9,6.2,2.2,6.6
		c11.5,3.8,2.5,6.8-0.1,10.1c-1.3-3.4-3.6-6.8-3.7-10.3c-0.5-12-0.1-24-0.2-35.9c-0.1-7.9,2.9-19.6-12.2-10.6
		c-0.9,0.6-2.5,0-3.8-0.1c-14.9-1.5-29.1,0.3-42.1,8.2c-0.1-29.2-0.3-58.4-0.4-87.6c0.1-17.4,0.4-34.8,0.1-52.2
		c-0.1-6.4,2-8.4,8.3-8.2c12.9,0.3,25.8,0,38.6-0.1c3.6,0.1,7.1,0.2,10.7,0.2c18.8,0,18.5,0,18.6,19.2c0,6.5-1.9,9-8.5,10.1
		c-2.8,0.4-6.9,5.1-7.1,8.1c-0.8,12.2-0.1,24.6-0.4,36.8c-0.2,5.9,1.7,8.4,7.7,7.8c2-0.2,4.1,0.6,6.1,0.9c-1.4,1.2-2.6,2.9-4.2,3.6
		c-8.3,3.7-10.5,10.1-9.7,18.7C67,1581.4,66.5,1588.6,66.6,1595.7L66.6,1595.7z"/>
	<path class="st21" d="M130.4,838.9c0,44.1,0,88.2,0,132.3c-10.5,4-20.6,5.7-32.4,2.7c-9.4-2.4-20.3,1-30.5,1.9
		c-4.8,0.4-9.6,0.8-14.4,1.2c0-44.1,0-88.2,0.1-132.3c22.3-0.2,44.5-0.2,66.8-0.8C123.5,843.8,126.9,840.7,130.4,838.9L130.4,838.9z
		"/>
	<path class="st2" d="M52.9,1327.3c8.6,0.3,17.1,0.7,25.7,1c-6,3.8-11.9,7.7-17.9,11.5c-1.8,1.2-3.9,2-5.8,3
		C54.3,1337.6,53.6,1332.4,52.9,1327.3L52.9,1327.3z"/>
	<path class="st22" d="M66.4,2004.3c0,3.8,0.1,7.7,0.1,11.5c-0.1,22.7-0.1,45.4-0.2,68.1c-6.9,0.3-14.3,2.3-20.4,0.4
		c-13-4-28.4,3.9-39.5-8.2c0-53.8,0.1-107.7,0.1-161.5c5,3.8,9.8,10.5,15.1,10.8c14.7,1,29.6-0.6,44.5-1.2
		c0.2,11.1,0.3,22.1,0.5,33.2c0,2.2,0,4.5-0.1,6.7c-0.3,9.3-2.1,19.6,13.1,16.7c0.7-0.1,1.5,0.5,2.2,0.8c-1,0.6-2,1.3-3,1.8
		C69.6,1987.5,60.6,1991.5,66.4,2004.3L66.4,2004.3z"/>
	<path class="st23" d="M66,1924.3c-14.8,0.6-29.8,2.2-44.5,1.2c-5.3-0.4-10.1-7.1-15.1-10.8c-0.1-7.1-0.2-14.2-0.2-21.4
		c0.1-38.2,0.2-76.5,0.2-114.7c4,0.1,8.1,0.5,12.1,0.1c7-0.6,14-2.8,20.9-2.4c8.9,0.4,17.7,2.7,26.5,4.2c0.2,30.5,0.5,60.9,0.7,91.4
		c0,3.2-0.1,6.5-0.1,9.7C66.4,1895.8,66.2,1910.1,66,1924.3z"/>
	<path class="st24" d="M6.4,2076.1c11.2,12,26.5,4.1,39.5,8.2c6.2,1.9,13.6-0.1,20.4-0.4c6.8,2.5,7.3,5.6,2.9,10.9
		c-1.8,2.1-1.8,5.7-2.6,8.6c0,24,0,48,0,72c-0.6,1.3-1.3,2.6-1.9,3.9c-13.4,0-26.9,0.8-40.2-0.3c-6.2-0.5-12.1-4.9-18.1-7.5
		c0-22.1,0-44.1-0.1-66.1C6.3,2095.6,6.3,2085.9,6.4,2076.1L6.4,2076.1z"/>
	<path class="st25" d="M65.9,1780.5c-8.8-1.5-17.6-3.8-26.5-4.2c-6.9-0.3-13.9,1.8-20.9,2.4c-4,0.4-8.1-0.1-12.1-0.1
		c-0.1-25.9-0.2-51.9-0.3-77.8c0.1-27.9,0.2-55.8,0.4-83.6c13-7.9,27.3-9.7,42.1-8.2c1.3,0.1,2.9,0.6,3.8,0.1
		c15-9.1,12.1,2.7,12.2,10.6c0.1,12-0.2,24,0.2,35.9c0.1,3.5,2.4,6.9,3.7,10.3c-0.7,4-2.1,8-2.1,12.1c-0.2,26.5,0.2,53-0.2,79.4
		c-0.1,7.8,2.4,10.5,9.9,9.6c2-0.2,4.1,0.7,6.1,1.1c-1.7,1-3.6,1.7-5.1,2.9C73.3,1774,69.6,1777.3,65.9,1780.5L65.9,1780.5z"/>
	<path class="st13" d="M67.9,474c4.3-0.3,6.4-0.8,8.3-0.5c0.9,0.1,1.7,1.7,2.5,2.5c-1.8,0.3-3.5,1-5.3,0.9
		C72.3,476.8,71.1,475.7,67.9,474L67.9,474z"/>
	<path class="st12" d="M132,1603.7c-0.2,42.7-0.3,85.4-0.5,128.1c-0.1,10.6,8,5.3,12.6,6.7c2,0.6,3.9,1.2,5.9,1.8
		c-1.7,0.6-3.4,1.2-5.2,1.6c-11,3.1-13.4,11.4-13.3,21.5c0.1,32,0,64-0.1,96.1c0,3.5-0.3,7.1-0.5,10.6c-5.8,1.3-11.6,3.3-17.5,3.7
		c-9.8,0.6-19.7,0.1-29.6,0.1c-5.7-0.6-11.5-1.3-17.2-1.9c-0.2-30.5-0.5-60.9-0.7-91.4c3.8-3.2,7.4-6.5,11.3-9.6
		c1.5-1.2,3.4-2,5.1-2.9c-2.1-0.4-4.2-1.4-6.1-1.1c-7.5,0.9-10.1-1.8-9.9-9.6c0.5-26.5,0.1-52.9,0.2-79.4c0-4,1.4-8,2.1-12.1
		c2.6-3.3,11.6-6.3,0.1-10.1c-1.4-0.4-2.2-4.3-2.2-6.6c-0.1-13.9,0.1-27.8,0.2-41.7C88.4,1606.1,110.2,1604.9,132,1603.7L132,1603.7
		z"/>
	<path class="st0" d="M66.6,2276.5c-0.6-1.3-1.3-2.6-1.9-3.9C65.3,2273.9,65.9,2275.2,66.6,2276.5z"/>
	<path class="st10" d="M64.7,2179.2c0.6-1.3,1.3-2.6,1.9-3.9c1.3-0.1,2.6-0.4,3.8-0.2c2.4,0.4,4.8,1.1,7.2,1.6
		c-2,1.5-3.9,3.2-6.2,4.3c-1.3,0.6-3.1,0.1-4.8,0.1C65.9,2180.5,65.3,2179.9,64.7,2179.2L64.7,2179.2z"/>
	<path class="st9" d="M130.5,1953.6c0.2,20.1,0.4,40.2,0.6,60.2c-21.5-3.2-43-6.3-64.6-9.5c-5.8-12.8,3.2-16.8,12.3-20.8
		c1.1-0.5,2-1.2,3-1.8c-0.7-0.3-1.5-0.9-2.2-0.8c-15.2,2.9-13.5-7.4-13.1-16.7c0.1-2.2,0-4.5,0.1-6.7
		C87.8,1956.2,109.2,1954.9,130.5,1953.6L130.5,1953.6z"/>
	<path class="st11" d="M130.5,1953.6c-21.3,1.3-42.6,2.6-63.9,3.9c-0.2-11.1-0.3-22.1-0.5-33.2c0.2-14.2,0.3-28.5,0.5-42.7
		c5.8-2.6,11.5-5.2,17.3-7.8c9.9,0,19.7,0.5,29.6-0.1c5.9-0.4,11.7-2.4,17.5-3.7c0.3,18,0.5,35.9,0.8,53.9
		c-0.1,6.2-0.2,12.3-0.2,18.5C131.1,1946.1,130.8,1949.8,130.5,1953.6L130.5,1953.6z"/>
	<path class="st22" d="M83.8,1873.8c-5.8,2.6-11.5,5.2-17.3,7.8c0-3.2,0.1-6.5,0.1-9.7C72.3,1872.5,78.1,1873.2,83.8,1873.8
		L83.8,1873.8z"/>
	<path class="st11" d="M131.4,1942.4c0.1-6.2,0.2-12.3,0.2-18.5c6.5,0.7,13.1,1.4,19.6,2.1c-4.3,4.1-8.4,8.3-12.9,12.1
		C136.4,1939.8,133.8,1941,131.4,1942.4L131.4,1942.4z"/>
	<rect x="-81.2" y="2367.5" class="st0" width="187.5" height="475.1"/>
	<path class="st9" d="M130.5,1997.4c0.2,20.1,0.4,40.2,0.6,60.2c-21.5-3.2-43-6.4-64.6-9.5c-5.8-12.8,3.2-16.8,12.3-20.8
		c1.1-0.5,2-1.2,3-1.8c-0.7-0.3-1.5-0.9-2.2-0.8c-15.2,2.9-13.5-7.4-13.1-16.7c0.1-2.2,0-4.5,0.1-6.7
		C87.8,2000,109.2,1998.7,130.5,1997.4L130.5,1997.4z"/>
	<path class="st14" d="M131.7,1607.1c0,0.4-0.1,0.9-0.1,1.3c-21.5,0.1-42.9,0.2-64.4,0.3c-0.5-2.3-1-4.7-1.5-7.1
		c-0.4-0.9-0.8-1.8-1.1-2.6c0.7-0.4,2.1-0.9,2.1-1.3c0.1-9.1,0.1-18.3,0.1-27.4c0-0.1-0.3-0.2-0.4-0.3c-0.8-0.6-1.6-1.2-2.4-1.7
		c1.1-1.6,2.2-3.2,3.3-4.8c17.8-0.2,35.6-0.4,53.3-0.7c0,1.2-0.4,2.3,0.2,3.5c0.7,1.4-1.2,2.5-8,3.1c-1.3,0.1-2.3,0.4-3.5,0.6
		c1.7,0.1,3.4,0.2,5.1,0.2c5-0.1,6.5,0.3,6.4,1.3c-0.3,2,0.3,4.1-0.4,6.1c-0.2,0.5-3.5,1.2-5.9,1.3c-5.4,0.2-7,0.6-7,1.7
		c0.1,3.2-0.2,3.2,15.3,3.2c2.9,0,5.9,0,8.8,0c0.1,6.1,0.2,12.2,0.3,18.2c-0.6,0.9-1.2,1.7-1.8,2.6c-1.6,0.2-3.3,0.3-4.8,0.5
		c-5,0.6-9.9,1.3-14.8,1.9C117.5,1607,124.6,1607.1,131.7,1607.1L131.7,1607.1z"/>
</g>
<rect x="2.3" y="736.7" class="st26" width="83.9" height="2031.8"/>
<g>
	<path class="st27" d="M109.1,2399c0.2,9.2-3.4,18.2-2.6,27.6c0.8,9.7,0.2,19.6,0.2,29.4v90c0,1.8-0.2,3.7,0.1,5.5
		c0.2,0.9,1.5,1.6,2.3,2.3c0,0.6,0,1.3,0,2c-3.2,2.9-2.4,6.5-2.4,9.9c0,46.3,0,92.6,0,139v139.1H0.5v-52.9h16.9
		c-0.9,4.5,4.1,5.6,6.1,7.8c12.6,1,22.4-3.6,32.7-6.6c-0.2-2.1-0.4-3.6-0.6-5.2c-3.6,0.8-6.4,1.5-9.2,2.1c0-9.1,0-18.3,0-27.4
		c1-0.6,2-1.9,3-1.9c7.9-0.2,15.8-0.1,23.6-0.1c0.7,0,1.3-0.4,2.4-0.8c-0.2-2.3-0.3-4.6-0.5-7h-4.4v-80.3h-70v-43.1h16.9
		c-0.9,4.5,4.1,5.6,5.9,7.6c12.9,1.5,23-2.3,32.8-6.8c-0.2-1.7-0.4-3.2-0.5-4.8c-3.6,0.8-6.4,1.5-9.2,2.1c0-9.1,0-18.3,0-27.4
		c1-0.6,2-1.9,3-1.9c7.9-0.2,15.8-0.1,23.6-0.1c0.7,0,1.3-0.4,2.4-0.8c-0.2-2.3-0.3-4.6-0.5-7h-4.4v-80.3h-70v-37.2h16.9
		c-1.1,4.1,3.8,5.3,5.9,7.8c15.1,0.1,25.1-2.4,33.9-8.1c-0.8-1.4-1.6-2.9-2.1-3.8c-3.8,0.9-6.2,1.6-8.7,2.2c0-9,0-18,0-27.4H0.4
		v-3.9h73.9c-0.5-8.4-1.4-16.2-1.5-24.1c-0.2-19.8-0.1-39.7-0.1-59c-2.2-3.1-5.2-3.2-8.6-3.2C43,2352,21.7,2352,0.4,2352v-19.6h9
		c0.5,1.5,0.8,2.4,1.1,3.3c5.2,2,9.4-0.5,13.9-2.2c1.3-3.7,2.5-7.4,3.9-11.3c9.9,2.1,15.2,11.4,26.5,10.1c2.5-2.1,5.1-4.1,7.6-6.2
		c0.5-0.4,0.4-1.3,0.8-1.6c1.1-0.8,2.4-1.4,3.8-2.3c0.5,1.4,0.9,2,1,2.6c0.8,8.1,2.2,8.8,12.5,6.4c2.2-0.5,5.1-1.3,6.7-0.6
		c6.3,3,13,1.3,19.5,1.8c0,16.2-0.1,32.3,0.1,48.5c0,1.6-1.7,4.1,2.3,4.4v2c-3.5,3.2-3.5,6.6,0,9.8L109.1,2399L109.1,2399z"/>
	<path class="st28" d="M109.1,958.7v148.9c0,1.3,0,2.6,0,3.9c-0.8,0.8-2.2,1.5-2.3,2.3c-0.3,2.5-0.1,5-0.1,7.4v29.4
		c-4.7,0.2-10.5-0.9-13.8,0.9c-5.6,3.1-11.6,2.6-17.3,3.2c-0.2,2.8-0.3,5-0.5,7.6H0.5v-5.9H70c1.4-27.3,0.9-72.4-0.8-80.3H0.5v-45.1
		h16.9c-0.9,4.5,4.1,5.6,6.1,7.8c11.1,0,21.9-2.5,32.6-7.3c-0.2-1.5-0.3-2.9-0.5-4.6c-3.6,0.8-6.4,1.5-9.2,2.1c0-9.1,0-18.3,0-27.4
		c1-0.7,2-1.8,3-1.9c7.1-0.2,14.1-0.1,21.1-0.1c0.7,0,1.3-0.4,2-0.6c2.9-2,4.4-4.3,1.6-7.2h-3.6v-80.3h-70v-37.2h16.9
		c1.9,5.6,9.2,9.8,15.4,7.5c3.1-1.1,5.9-1,8.7-1.8c5.9-1.6,11.5-3.9,16.1-5.5c-1.1-2-2-3.5-2.5-4.4c-3.8,1-6.2,1.6-8.7,2.2v-7.8
		c2.3-0.2,4.6-0.4,6.9-0.7c7.1-0.9,13.9-6,21.5-1.3c6.9-0.5,14.2,1.4,20.9-2.2c2.9,2.7,6,5.3,11.1,4.1v92.1
		C107.4,957.4,108.2,958.1,109.1,958.7L109.1,958.7z"/>
	<path class="st29" d="M106.6,1442.7v217.5c-11.4-0.1-22.4,3.3-33.9,2c-6,3.7-12.2,1.8-19.2-0.4v6.3h-7.2v-25.5H0.5v-3.9h74.9
		c-0.2-2.4-0.4-4.2-0.6-5.9h-4.4v-82.3h-70v-37.2h16.9c0,2.9-0.6,5.9,4.1,7.8c3.5,0,7.9-0.2,12.2,0c6.7,0.4,12.4-2.1,18.2-4.1
		c3.8-1.3,5.9-4.1,3-7.7c-2.2,2.8-5.6,1.9-8.6,2v-27.4H0.5v-2h74.9c-0.2-2.4-0.4-4.2-0.6-5.9h-4.4v-82.3h-70c0-10.4,0-20.9,0-31.3
		c3.3,0.7,6.5,1.6,9.8,1.9c3.6,0.3,7.2,0.1,11,0.1c2.1-3.6,8.6-1.9,10.5-5.9h9.7v3.3c5.7,1,10.5,1.8,15.3,2.6
		c4.9,0.8,9.7-1,14.8,1.5c4.7,2.3,10.3-0.8,15.5-1.5c0.8-0.1,1.9-0.3,2.4,0c5.8,3.7,11.5,1.1,17.2,0L106.6,1442.7L106.6,1442.7z"/>
	<path class="st30" d="M106.6,2332.4c-6.5-0.5-13.2,1.2-19.5-1.8c-1.6-0.8-4.5,0.1-6.7,0.6c-10.2,2.4-11.6,1.7-12.5-6.4
		c-0.1-0.6-0.4-1.1-1-2.6c-1.4,0.9-2.7,1.5-3.8,2.3c-0.5,0.4-0.4,1.2-0.8,1.6c-2.5,2.1-5.1,4.1-7.6,6.2c-11.3,1.3-16.5-8-26.5-10.1
		c-1.4,3.9-2.6,7.6-3.9,11.3c-4.5,1.7-8.7,4.2-13.9,2.2c-0.3-0.9-0.6-1.8-1.1-3.3h-9v-23.5h16.9c0.8,2,1.6,3.9,2.3,5.9
		c5.3,0,9.6-0.2,13.9,0c6.7,0.3,12.4-2,18.2-4.1c3.9-1.4,5.9-4,3.3-7.5c-3,1.2-5.9,2.4-8.8,3.6c0-9,0-18,0-27.4H0.5v-3.9h74.9
		c-0.2-2.4-0.4-4.2-0.6-5.9h-4.4v-82.3h-70v-37.2h16.9c-1.1,4.1,3.8,5.3,5.7,7.5c13.1,2,24.4-1.6,35.3-6.5c-0.5-0.5-1.2-0.9-1.6-1.4
		c-0.6-1.1-1.1-2.2-1.5-3.3c-3.1,1.3-6,2.5-8.9,3.7c0-9.6,0-19.3,0-29.4H0.5v-7.8h70v-62.7c3.3,0,2.3,2.1,2.4,3.5
		c0.1,3.3,0,6.5,0.1,9.8c0.1,3.4,0.2,6.9,0.4,11.2c5.8-1.8,11.1-2.4,14.7-4.8c5.7-3.6,12.4-4.2,18.7-6.1v3.9c0,1.8-0.2,3.7,0.1,5.5
		c0.2,0.9,1.5,1.6,2.3,2.3c0,0.6,0,1.3,0,2c-0.8,0.6-1.6,1.3-2.4,2c0,47,0,94.1,0,141.1v3.9c0,1.8-0.2,3.7,0.1,5.5
		c0.2,0.9,1.5,1.6,2.3,2.3c0,0.6,0,1.3,0,2c-0.8,0.6-1.6,1.3-2.4,2c0,26.8,0,53.6,0,80.3h-5c0.3,2.4,0.4,4.2,0.6,5.9h4.4
		L106.6,2332.4L106.6,2332.4z"/>
	<path class="st31" d="M106.6,1364.3c-5.7,1.2-11.4,3.8-17.2,0c-0.5-0.3-1.6-0.1-2.4,0c-5.2,0.8-10.8,3.8-15.5,1.5
		c-5.1-2.5-10-0.8-14.8-1.5c-4.8-0.8-9.6-1.6-15.2-2.6v-3.3c0-2.7,2.7-1.4,4.2-2c4.1-1.6,9.8-1.8,10.3-6.8c-4-2.6-6.7,0.1-9.8,1
		v-27.4H0.5v-3.9h74.9c-0.2-2.4-0.4-4.2-0.6-5.9h-4.4V1233h-70v-39.2h16.9c-0.9,4.5,4,5.6,5.8,7.4c13.6,1.7,24.6-1.4,34.9-6.6
		c-3.4-4.3-7.5-3.1-11.7-0.8v-27.4H0.4v-3.9H75c0.2-2.6,0.3-4.8,0.5-7.6c5.7-0.6,11.7-0.1,17.3-3.2c3.3-1.8,9.1-0.7,13.8-0.9
		L106.6,1364.3L106.6,1364.3z"/>
	<path class="st32" d="M106.6,864.7c-5.1,1.2-8.1-1.4-11.1-4.1c-6.7,3.6-14,1.7-20.9,2.2c-7.6-4.7-14.4,0.4-21.5,1.3
		c-2.3,0.3-4.6,0.5-6.9,0.7v-19.6H0.5v-3.9h74.9c-0.2-2.4-0.4-4.2-0.6-5.9h-4.4v-80.3h-70v-49h106.2V800c0.8,0.7,1.6,1.3,2.4,2
		c-2.8,2.6-2.4,5.8-2.4,9C106.7,828.8,106.6,846.7,106.6,864.7L106.6,864.7z"/>
	<path class="st33" d="M106.6,2063.9c-6.3,1.8-13,2.4-18.7,6.1c-3.6,2.3-8.9,3-14.7,4.8c-0.1-4.4-0.3-7.8-0.4-11.2
		c-0.1-3.3,0.1-6.5-0.1-9.8c-0.1-1.4,0.9-3.5-2.4-3.5v-11.8c3.3-2,3.3-3.9,0-5.9c-0.4-3.2-3.5-1.9-5.5-1.9
		c-21.5-0.1-43-0.1-64.5-0.1v-39.2h16.9c0,1.6,0,3.2,0,4.8c4.5,2.8,9.6,3.2,15.1,3.1c8.9-0.3,16-4.2,23.6-7
		c-0.2-1.8-0.3-3.3-0.5-4.9c-3.6,0.8-6.4,1.4-9.3,2.1c0-9.1,0-18.3,0-27.4c1-0.7,2-1.8,3-1.9c7.9-0.2,15.8-0.1,23.6-0.1
		c0.7,0,1.3-0.4,2.4-0.8c-0.2-2.3-0.3-4.6-0.5-7h-4.4v-41.2h11c2,1.7,3.3,2.8,4.6,3.9c5.9,0.2,11.5,0.3,16.3-3.2
		c0.9-0.7,2.9-0.5,4.3-0.7L106.6,2063.9L106.6,2063.9z"/>
	<path class="st34" d="M106.6,1911.1c-1.5,0.2-3.4,0-4.3,0.7c-4.7,3.5-10.4,3.3-16.3,3.2c-1.3-1.1-2.6-2.2-4.6-3.9h-11v-39.2h-70
		v-37.2h16.9c-0.9,4.5,4.1,5.6,6.1,7.8c12.6,1,22.4-3.6,32.7-6.7c-0.2-2.1-0.4-3.6-0.6-5.2c-3.6,0.8-6.4,1.5-9.2,2.1
		c0-9,0-18,0-27.4H0.5c0-1.3,0-2.6,0-3.9c24.7-0.1,49.3-0.2,74-0.4c0.3,0,0.5-0.4,1.4-1.3c-1.9-1.2-3.7-2.3-5.5-3.4
		c0-8.1,0-16.2,0-24.3c12.2,1.4,24-2.5,36.2-2L106.6,1911.1L106.6,1911.1z"/>
	<path class="st35" d="M106.6,1770c-12.2-0.5-24,3.3-36.2,2v-56.8h-70V1672h16.9c0.8,2,1.6,3.9,2.3,5.9c6.1,0,11.3,0.1,16.4,0
		c4.3-0.1,16-3.7,18.5-5.8c1.9-1.6,2.7-3.3-1.1-4v-6.3c7,2.2,13.1,4.1,19.2,0.4c11.5,1.3,22.5-2.1,33.9-2L106.6,1770L106.6,1770z"/>
	<path class="st36" d="M106.6,705.9H0.5v-39.2h137.1c0.9,12.8,0.2,25.7,0.5,39.2H106.6z"/>
	<path class="st37" d="M0.5,2352c21.3,0,42.5,0.1,63.8-0.1c3.4,0,6.4,0.1,8.6,3.2c0,19.3-0.1,39.2,0.1,59c0.1,7.8,0.9,15.6,1.5,24.1
		H0.5v-9.8h9.7c0-23.5,0-46.2,0-69c0-0.3-0.2-0.6-0.4-0.9c-0.2-0.3-0.5-0.5-0.8-0.7H0.5L0.5,2352L0.5,2352z M65.4,2358.2H17.4
		c0,23.1,0,45.9,0,68.7c0,0.3,0.2,0.6,0.4,0.9c0.2,0.3,0.5,0.5,0.4,0.4h47.3V2358.2L65.4,2358.2z"/>
	<path class="st37" d="M0.5,1715.1h70v56.8c0,8.1,0,16.2,0,24.3c1.8,1.1,3.6,2.3,5.5,3.4c-0.9,0.8-1.2,1.3-1.4,1.3
		c-24.7,0.2-49.4,0.3-74,0.4c0-3.3,0-6.5,0-9.8h9.7c0-23.5,0-46.2,0-69c0-0.3-0.2-0.6-0.4-0.8c-0.2-0.3-0.5-0.5-0.8-0.7H0.5V1715.1z
		 M17.8,1721.1v70.4c15.4-0.3,30.5,0.3,45-0.4v-70.1L17.8,1721.1L17.8,1721.1z"/>
	<path class="st38" d="M0.5,1550.5h70v82.3h-70v-3.9h9.7c0-23.5,0-46.2,0-69c0-0.3-0.2-0.6-0.4-0.8c-0.2-0.3-0.5-0.5-0.8-0.7H0.5
		L0.5,1550.5L0.5,1550.5z M62.8,1628.7v-70.4c-15.4,0.2-30.5-0.3-45.1,0.3v70.1H62.8z"/>
	<path class="st37" d="M0.5,2508.7h70v80.3c-0.4,3.2-3.5,1.9-5.5,1.9c-21.5,0.1-43,0.1-64.5,0.1v-5.9h9.7c0-23.5,0-46.2,0-69
		c0-0.3-0.2-0.6-0.4-0.9c-0.2-0.3-0.5-0.5-0.8-0.7H0.5L0.5,2508.7L0.5,2508.7z M62.8,2585v-70.4c-14.8,0-29.2,0-43.6,0
		c-0.3,0-0.7,0.1-1,0.3c-0.3,0.2-0.6,0.5-0.4,0.4v69.7L62.8,2585L62.8,2585z"/>
	<path class="st37" d="M0.5,1871.9h70v80.3c-0.4,3.2-3.5,1.9-5.5,1.9c-21.5,0.1-43,0.1-64.5,0.1v-5.9h9.7c0-23.5,0-46.2,0-69
		c0-0.3-0.2-0.6-0.4-0.8c-0.2-0.3-0.5-0.5-0.8-0.7H0.5L0.5,1871.9L0.5,1871.9z M17.8,1877.9v70.4c15.4-0.3,30.5,0.4,45-0.4v-70H17.8
		z"/>
	<path class="st37" d="M70.4,2038.4v74.5h-70v-5.9h9.7c0-23.5,0-46.2,0-69c0-0.3-0.2-0.6-0.4-0.8c-0.2-0.3-0.5-0.5-0.8-0.7H0.5v-5.9
		c21.5,0,43,0,64.5,0.1c1.9,0,5.1-1.3,5.5,1.9L70.4,2038.4L70.4,2038.4z M62.8,2106.8v-70.4c-15.4,0.3-30.5-0.4-45,0.4v70H62.8z"/>
	<path class="st37" d="M0.5,2187.4h70v82.3h-70v-3.9h9.7c0-23.5,0-46.2,0-69c0-0.3-0.2-0.6-0.4-0.9c-0.2-0.3-0.5-0.5-0.8-0.7H0.5
		L0.5,2187.4L0.5,2187.4z M17.6,2265.4h45.7c0-23.1,0-45.9,0-68.7c0-0.3-0.2-0.6-0.4-0.9c-0.2-0.3-0.5-0.5-0.4-0.4H17.5L17.6,2265.4
		L17.6,2265.4z"/>
	<path class="st37" d="M0.5,2671.4h70v80.3c-0.4,3.2-3.5,1.9-5.5,1.9c-21.5,0.1-43,0.1-64.5,0.1v-5.9h9.7c0-23.5,0-46.2,0-69
		c0-0.3-0.2-0.6-0.4-0.9c-0.2-0.3-0.5-0.5-0.8-0.7H0.5L0.5,2671.4L0.5,2671.4z M62.8,2747.6v-70.4c-15.4,0.3-30.5-0.4-45,0.4v70
		H62.8z"/>
	<path class="st39" d="M0.5,1393.7h70v82.3h-70v-3.9h9.7c0-24.1,0-47.5,0-71c0-0.3-0.2-0.6-0.4-0.8c-0.2-0.3-0.5-0.5-0.8-0.7H0.5
		L0.5,1393.7L0.5,1393.7z M17.8,1399.8v72.3c14.8,0,29.2,0,43.6,0c0.4,0,0.7-0.2,1-0.3c0.3-0.2,0.5-0.5,0.4-0.3v-71.7H17.8z"/>
	<path class="st39" d="M0.5,1233.1h70v80.3h-70v-3.9h9.7c0-23.5,0-46.2,0-69c0-0.3-0.2-0.6-0.4-0.8c-0.2-0.3-0.5-0.5-0.8-0.7H0.5
		L0.5,1233.1L0.5,1233.1z M17.8,1239.1v70.4c14.8,0,29.2,0,43.6,0c0.3,0,0.7-0.2,1-0.3c0.3-0.2,0.5-0.5,0.4-0.3v-69.7L17.8,1239.1
		L17.8,1239.1z"/>
	<path class="st39" d="M0.5,1076.3h68.7c1.8,8,2.3,53.1,0.8,80.3H0.5v-3.9h9.7c0-24.1,0-47.5,0-71c0-0.3-0.2-0.6-0.4-0.8
		c-0.2-0.3-0.5-0.5-0.8-0.7H0.5L0.5,1076.3L0.5,1076.3z M17.6,1152.4h47.9v-69.8c-7-4.8-15.3-1.7-22.9-2.2c-8.3-0.5-16.6-0.1-25-0.1
		L17.6,1152.4L17.6,1152.4z"/>
	<path class="st40" d="M0.5,911.7h70V992h-70v-3.9h9.7c0-23.5,0-46.2,0-69c0-0.3-0.2-0.6-0.4-0.8c-0.2-0.3-0.5-0.5-0.8-0.7H0.5
		L0.5,911.7L0.5,911.7z M17.4,988.1h45.9c0.8-0.5,2.3-1,2.3-1.5c0.1-22.5,0.1-45,0-67.5c0-0.5-1.5-1-2.3-1.5H17.4
		c-0.8,0.5-2.3,1-2.3,1.5c-0.1,22.5-0.1,45,0,67.5C15,987.1,16.6,987.6,17.4,988.1z"/>
	<path class="st41" d="M17.4,1513.3H0.5v-5.9c2,0,4,0,3.3,0c4.1-2.4,6.7-3.9,8.7-5.1v-6.4c-3.7-1.9-7.9-4-12.1-6.1c0-2,0-3.9,0-5.9
		h45.8v27.4c-3.9,6-12.8,2.1-17.5,6.6C25.5,1514.6,22.4,1512.1,17.4,1513.3L17.4,1513.3z M27.2,1491.4h9.2v-3.3h-9.2V1491.4z"/>
	<path class="st42" d="M0.5,845.1h45.8v27.4c-5,2.5-15.1,4.6-19.5,3.9c-1-0.2-1.8-1.2-2.8-1.3c-2.2-0.3-4.5-0.4-6.7-0.6H0.5v-5.9
		h4.8c3-2,5.4-3.5,7.1-4.7v-7.7c-2.3-2.1-4.1-3.7-5.8-5.3H0.5V845.1L0.5,845.1z M29.8,849.3c0,0.6,0.1,1.2,0.1,1.8
		c2.1-0.2,4.3-0.5,6.4-0.7c0-0.3-0.1-0.7-0.1-1L29.8,849.3L29.8,849.3z"/>
	<path class="st41" d="M17.4,2150.1H0.5v-5.9h4.8c3-2,5.4-3.5,7.1-4.7v-8.2c-3.4-2.8-7.1-4.7-11.9-4.8v-5.9h45.8
		c0,10.1,0,19.8,0,29.4c-2.8,0.6-5.6,1.6-8.5,1.9c-3.5,0.3-7.4,0.8-10.6-0.1C23.9,2151,20.9,2149.8,17.4,2150.1L17.4,2150.1z
		 M36.4,2125c-3,0.2-7.2-2.2-7,3.2h7V2125z"/>
	<path class="st41" d="M46.3,2598.9v27.4c-8.9,4.4-13.6,4.9-22.3,2.6c-2.1-0.6-4.4-0.4-6.7-0.6H0.5v-5.9h4.8c3-2,5.4-3.5,7.1-4.7
		v-7.9c-2.2-1.9-4-3.6-5.8-5.1H0.5v-5.9L46.3,2598.9L46.3,2598.9z M29,2603c2.3,4,5.1,4.8,7.7,2.7C36.8,2601.2,33,2603,29,2603z"/>
	<path class="st41" d="M46.3,1962v27.4c-8.9,4.4-13.6,4.9-22.3,2.6c-2.1-0.6-4.4-0.4-6.7-0.6H0.5v-5.9h4.8c3-2,5.4-3.5,8.2-5.3
		c-1.4-3.7-2.6-7.1-3.8-10.2c-3.6-0.8-6.4-1.5-9.2-2.1c0-2,0-3.9,0-5.9H46.3L46.3,1962z M36.4,1966.3h-9.2v3.2h9.2V1966.3z"/>
	<path class="st41" d="M17.4,2471.5H0.5v-5.9h4.8c3-2,5.4-3.5,7.1-4.7v-7.9c-2.2-1.9-4-3.6-5.8-5.1H0.5v-5.9h45.8v27.4
		c-6.1,4.8-13.6,3.9-23,3.9c-0.5-0.7-1.6-2.2-2.4-3.3C19.4,2470.7,18.4,2471.1,17.4,2471.5L17.4,2471.5z M36.4,2446.4h-6.8v3.2h6.8
		V2446.4z"/>
	<path class="st41" d="M0.5,1323.2h45.8v27.4c-2.9,1.1-17.4,3.8-20.4,3.8c-2.1-1.5-4.1-2.9-6.6-4.7c-1,1.4-1.4,2.1-1.9,2.8H0.5v-7.8
		h4.9c2.9-1.9,5.3-3.5,6.4-4.3c2.4-6.1-1.6-8.7-5.4-11.4H0.5L0.5,1323.2L0.5,1323.2z M37,1328.9c-0.4-1.7-0.6-2.6-0.9-3.8
		c-3.2,0.1-6.2,0.2-9.4,0.4c0.4,1.6,0.6,2.4,0.8,3.4L37,1328.9L37,1328.9z"/>
	<path class="st41" d="M0.5,1805.2h45.8v27.4c-6.1,4.8-13.6,3.8-23,3.9c-0.5-0.7-1.6-2.2-2.4-3.3c-1.5,0.6-2.5,1-3.5,1.3H0.5v-5.9
		h4.8c3-2,5.4-3.5,7.1-4.7v-7.9c-2.2-1.9-4-3.6-5.8-5.1H0.5L0.5,1805.2L0.5,1805.2z M27.2,1812.8h9.2v-3.3h-9.2V1812.8z"/>
	<path class="st42" d="M17.4,1031.2H0.5v-5.9h4.8c3-2,5.4-3.5,7.1-4.7v-7.7c-2.3-2.1-4.1-3.7-5.8-5.3H0.5v-5.9h45.8v27.4
		c-5,2.5-15.1,4.6-19.5,3.9c-1-0.2-1.8-1.2-2.8-1.3C21.9,1031.5,19.6,1031.4,17.4,1031.2L17.4,1031.2z M39,1006.1
		c-4.9-0.2-7.6-0.6-10.1-0.2c-0.9,0.1-1.4,2-2.4,3.6C30.9,1009.2,34.5,1011,39,1006.1z"/>
	<path class="st41" d="M17.4,2790.9H0.5v-5.9h4.8c3-2,5.4-3.5,7.1-4.7v-7.9c-2.2-1.9-4-3.6-5.8-5.1H0.5v-5.9h45.8v27.4
		c-4.6,2.3-13.6,3.9-20.4,3.7c-2.2-1.5-4.2-2.9-6.7-4.5C18.3,2789.5,17.8,2790.2,17.4,2790.9L17.4,2790.9z M27.2,2769h9.2v-3.3h-9.2
		V2769z"/>
	<path class="st41" d="M17.4,1672H0.5c0-2,0-3.9,0-5.9c4.2-2.1,8.3-4.2,12-6.1v-6.7c-2-1.7-4-3.3-6-4.9c-2,0-4,0-6,0v-5.9h45.8v25.5
		c-5.1,5.2-13.4,3.5-19.5,6.2c-2.7-1.7-5-3.2-7.7-5C18.3,1670.6,17.8,1671.3,17.4,1672L17.4,1672z M24.8,1648.1
		c4.8,0.2,7.4,0.6,10,0.2c0.9-0.1,1.4-2,3.2-4.9C32.9,1645.4,29.1,1643.1,24.8,1648.1L24.8,1648.1z"/>
	<path class="st41" d="M0.5,2279.5h45.8c0,9.4,0,18.4,0,27.4c-5.8,1.2-11.5,2.4-17.8,3.7c-2.2-1-5.1-2.5-8.1-3.6
		c-0.6-0.2-2,1.2-3,1.8H0.5v-5.9c4.8-1.8,9.8-3.5,12.1-7.4v-6.1c-3.7-1.9-7.9-4-12.1-6.1C0.5,2282.1,0.5,2280.8,0.5,2279.5
		L0.5,2279.5z M27.2,2285h9.2v-3.3h-9.2V2285z"/>
	<path class="st42" d="M17.4,1193.9H0.5v-5.9h9.9c1-4.6,1.9-8.7,2.7-12.3c-4-3.4-7.7-5.2-12.5-5.3v-3.9h45.8v27.4
		c-1.5,0.2-3,0.3-4.4,0.7c-6.3,1.6-12.7,6.3-18.9-0.5C22.4,1193.2,19.3,1193.9,17.4,1193.9L17.4,1193.9z M29.6,1172h6.8v-3.3h-6.8
		V1172z"/>
	<path class="st38" d="M0.5,754.9h70v80.3h-70v-3.9h9.7c0.8-0.5,2.3-1,2.3-1.5c0.1-22.5,0.1-45,0-67.5c0-0.5-1.5-1-2.3-1.5
		c-0.9-0.7-1.8-1.7-2.8-1.9c-2.2-0.3-4.5-0.1-6.8-0.1L0.5,754.9L0.5,754.9z M17.4,760.8c-0.8,0.5-2.3,1-2.3,1.5
		c-0.1,22.5-0.1,45,0,67.5c0,0.5,1.5,1,2.3,1.5h45.9c4-0.3,2.3-2.9,2.3-4.5c0.1-22,0.1-44.1,0.1-66.1c-0.6-0.7-1.3-1.9-1.9-1.9
		c-14.8-0.1-29.6-0.1-44.5,0C18.6,758.9,18,760.1,17.4,760.8L17.4,760.8z"/>
	<path class="st43" d="M46.3,1001.8H2.9c-0.8-0.7-1.6-1.3-2.4-2c0-2.6,0-5.2,0-7.8h73.6c2.8,2.9,1.4,5.1-1.6,7.2
		c-0.7,0.2-1.3,0.6-2,0.6c-7.1,0-14.1,0-21.1,0.1C48.3,1000,47.3,1001.2,46.3,1001.8L46.3,1001.8z"/>
	<path class="st44" d="M46.3,2761.5H2.9c-0.8-0.6-1.6-1.3-2.4-2c0-2,0-3.9,0-5.9c21.5,0,43,0,64.5-0.1c1.9,0,5.1,1.4,5.5-1.9h4.4
		c0.2,2.3,0.4,4.7,0.5,7c-1,0.4-1.7,0.8-2.4,0.8c-7.9,0.1-15.8,0-23.6,0.1C48.3,2759.6,47.3,2760.8,46.3,2761.5L46.3,2761.5z"/>
	<path class="st45" d="M46.3,1962H2.9c-0.8-0.7-1.6-1.3-2.4-2c0-2,0-3.9,0-5.9c21.5,0,43,0,64.5-0.1c1.9,0,5.1,1.3,5.5-1.9h4.4
		c0.2,2.3,0.4,4.7,0.5,7c-1,0.4-1.7,0.8-2.4,0.8c-7.9,0.1-15.8,0-23.6,0.1C48.3,1960.1,47.3,1961.3,46.3,1962L46.3,1962z"/>
	<path class="st44" d="M46.3,2598.9H2.9c-0.8-0.6-1.6-1.3-2.4-2c0-2,0-3.9,0-5.9c21.5,0,43,0,64.5-0.1c1.9,0,5.1,1.4,5.5-1.9h4.4
		c0.2,2.3,0.4,4.7,0.5,7c-1,0.4-1.7,0.8-2.4,0.8c-7.9,0.1-15.8,0-23.6,0.1C48.3,2597,47.3,2598.2,46.3,2598.9L46.3,2598.9z"/>
	<path class="st45" d="M0.5,1632.8h74.4c0.2,1.7,0.3,3.5,0.6,5.9H0.5L0.5,1632.8L0.5,1632.8z"/>
	<path class="st46" d="M0.5,1476h74.4c0.2,1.7,0.3,3.5,0.6,5.9H0.5L0.5,1476L0.5,1476z"/>
	<path class="st43" d="M0.5,1313.4h74.4c0.2,1.7,0.3,3.5,0.6,5.9H0.5L0.5,1313.4L0.5,1313.4z"/>
	<path class="st36" d="M0.5,835.3h74.4c0.2,1.7,0.3,3.5,0.6,5.9H0.5L0.5,835.3L0.5,835.3z"/>
	<path class="st44" d="M0.5,2269.7h74.4c0.2,1.7,0.3,3.5,0.6,5.9H0.5L0.5,2269.7L0.5,2269.7z"/>
	<path class="st31" d="M0.5,1352.6h16.9c-0.2,3.6,1.4,6,6.4,5.9c2.7,0,5.4,0,8.1,0c-1.9,4-8.4,2.3-10.5,5.9c-3.8,0-7.4,0.2-11-0.1
		c-3.3-0.3-6.6-1.2-9.8-1.9C0.5,1359.1,0.5,1355.9,0.5,1352.6L0.5,1352.6z"/>
	<path class="st47" d="M0.5,1811.1h6.1c1.7,1.5,3.6,3.2,5.8,5.1v7.9c-1.7,1.1-4.1,2.7-7.1,4.7H0.5L0.5,1811.1L0.5,1811.1z"/>
	<path class="st47" d="M0.5,1170.3c4.8,0.1,8.6,1.9,12.5,5.3c-0.8,3.6-1.7,7.7-2.7,12.3H0.5V1170.3z"/>
	<path class="st39" d="M0.5,2448h6.1c1.7,1.5,3.6,3.1,5.8,5.1v7.9c-1.7,1.1-4.1,2.7-7.1,4.7H0.5L0.5,2448L0.5,2448z"/>
	<path class="st48" d="M0.5,850.9h6.1c1.7,1.5,3.5,3.2,5.8,5.3v7.7c-1.7,1.1-4.1,2.7-7.1,4.7H0.5V850.9L0.5,850.9z"/>
	<path class="st48" d="M0.5,1007.7h6.1c1.7,1.5,3.5,3.2,5.8,5.3v7.7c-1.7,1.1-4.1,2.7-7.1,4.7H0.5V1007.7L0.5,1007.7z"/>
	<path class="st39" d="M0.5,2767.4h6.1c1.7,1.5,3.6,3.1,5.8,5.1v7.9c-1.7,1.1-4.1,2.7-7.1,4.7H0.5L0.5,2767.4L0.5,2767.4z"/>
	<path class="st39" d="M0.5,2604.7h6.1c1.7,1.5,3.6,3.1,5.8,5.1v7.9c-1.7,1.1-4.1,2.7-7.1,4.7H0.5L0.5,2604.7L0.5,2604.7z"/>
	<path class="st39" d="M0.5,2126.6c4.8,0.1,8.5,1.9,11.9,4.8v8.2c-1.7,1.1-4.1,2.7-7.1,4.7H0.5V2126.6z"/>
	<path class="st39" d="M0.5,1967.9c2.8,0.7,5.6,1.3,9.2,2.1c1.1,3.1,2.4,6.4,3.8,10.2c-2.8,1.8-5.2,3.4-8.2,5.3H0.5
		C0.5,1979.6,0.5,1973.8,0.5,1967.9L0.5,1967.9z"/>
	<path class="st39" d="M0.5,2283.4c4.2,2.1,8.3,4.2,12.1,6.1v6.1c-2.3,3.9-7.2,5.6-12.1,7.4C0.5,2296.4,0.5,2289.9,0.5,2283.4
		L0.5,2283.4z"/>
	<path class="st47" d="M0.5,1489.8c4.2,2.1,8.3,4.2,12.1,6.1v6.4c-2,1.2-4.6,2.7-8.7,5.1c0.7,0-1.3,0-3.3,0
		C0.5,1501.5,0.5,1495.6,0.5,1489.8L0.5,1489.8z"/>
	<path class="st47" d="M0.5,1648.5c2,0,4,0,6,0c2,1.6,4,3.2,6,4.9v6.7c-3.7,1.9-7.8,4-12,6.1C0.5,1660.2,0.5,1654.3,0.5,1648.5
		L0.5,1648.5z"/>
	<path class="st47" d="M0.5,1329.1h5.9c3.8,2.7,7.9,5.3,5.4,11.4c-1.1,0.8-3.5,2.3-6.4,4.3H0.5C0.5,1344.8,0.5,1329.1,0.5,1329.1z"
		/>
	<path class="st49" d="M10.1,760.8H0.5v-2c2.3,0,4.6-0.2,6.8,0.1C8.3,759.1,9.2,760.1,10.1,760.8z"/>
	<path class="st28" d="M0.5,999.9c0.8,0.7,1.6,1.3,2.4,2H0.5C0.5,1001.2,0.5,1000.5,0.5,999.9z"/>
	<path class="st27" d="M0.5,2596.9c0.8,0.6,1.6,1.3,2.4,2H0.5C0.5,2598.2,0.5,2597.6,0.5,2596.9z"/>
	<path class="st33" d="M0.5,1960c0.8,0.7,1.6,1.3,2.4,2H0.5C0.5,1961.4,0.5,1960.7,0.5,1960z"/>
	<path class="st27" d="M0.5,2759.5c0.8,0.6,1.6,1.3,2.4,2H0.5C0.5,2760.9,0.5,2760.2,0.5,2759.5z"/>
	<path class="st45" d="M106.6,1909.1v-3.9h33.6v3.3c-11.4,0.8-12.9,1.3-24,7.6c-3.1,1.7-6.4,3.2-9.6,4.8c0-2,0-3.9,0-5.9
		c6.7,1.8,9-4.1,14-5.9L106.6,1909.1L106.6,1909.1z"/>
	<path class="st50" d="M106.6,1599.5v-3.9c6.3-0.4,9.7-4.4,16.6-7.8h-16.6v-3.9h33.6v3.6H131c-8.1,4.5-15,8.3-22,12
		C108.5,1599.7,107.4,1599.5,106.6,1599.5L106.6,1599.5z"/>
	<path class="st46" d="M106.6,1431v-3.9h33.6v3.6H131c-8.1,4.5-15,8.3-22,12c-0.6,0.3-1.6,0-2.4,0v-3.9c6.3-0.4,9.7-4.4,16.6-7.8
		L106.6,1431L106.6,1431z"/>
	<path class="st44" d="M106.6,2224.6v-3.9h33.5v3.7H130c-5,3.4-9.3,6.6-14.1,9.2c-1.7,0.9-4.5,0.6-6.8,0.8c0-0.6,0-1.3,0-2
		c4-2.2,8.1-4.5,14.2-7.8H106.6L106.6,2224.6z"/>
	<path class="st45" d="M109.1,2077.6v-2c4-2.2,8.1-4.5,14.2-7.8h-16.6v-3.9h33.5v3.7h-9.2C122.9,2071.5,117.6,2076.8,109.1,2077.6
		L109.1,2077.6z"/>
	<path class="st44" d="M109.1,2555.8c0-0.6,0-1.3,0-2c4-2.2,8.1-4.5,14.2-7.8h-16.6v-3.9h33.5v3.7h-12.7
		C121.9,2550.3,116.5,2554.3,109.1,2555.8L109.1,2555.8z"/>
	<path class="st44" d="M106.6,2720.4c0-1.3,0-2.6,0-3.9c6.2-2.2,11.6-5.3,18.5-9.8h-18.5v-2h35.1c-2.6,2-4,3.9-5.1,3.8
		c-9.2-1-14.5,4.8-21.3,7.8C112.4,2717.5,109.5,2719,106.6,2720.4L106.6,2720.4z"/>
	<path class="st49" d="M106.6,1268.3v-3.9h33.4c0.1,1.4,0.2,2.3,0.3,3.9c-3.3,0-6.4-0.2-9.4,0.1c-2.5,0.3-4.9,1.2-7.4,1.9
		c-1-0.7-1.9-1.8-2.9-1.9C115.9,1268.2,111.3,1268.3,106.6,1268.3z"/>
	<path class="st49" d="M109.1,1111.6v-3.9c3.8,0.2,8.6-0.7,11.3,0.8c3.3,1.8,6.2-3.6,8.4,0.5c3.1-0.4,6.2-0.9,9.3-1.3v3.9
		c-5.2-1.4-9.5,1.9-14.5,2c-1-0.7-1.9-1.8-2.9-1.9C116.8,1111.4,112.9,1111.6,109.1,1111.6L109.1,1111.6z"/>
	<path class="st36" d="M106.6,947v-2h34.6c-4,3.3-8.4,1.8-11.9,3.3c-3.3,1.5-5.5,5.9-10.7,4.5v-3.4c1.4-0.3,2.2-0.3,2.9-0.5
		c0.6-0.2,1.2-0.7,3.2-1.9L106.6,947L106.6,947z"/>
	<path class="st44" d="M109.1,2387.2v-2h31c0.1,1.4,0.2,2.3,0.3,3.9c-3.3,0-6.4-0.2-9.4,0.1c-2.5,0.3-4.9,1.2-7.4,1.9
		c0-1.2,0-2.4,0-3.9H109.1L109.1,2387.2z"/>
	<path class="st36" d="M106.6,790.2v-2h33.2c0.1,0.4,0.1,0.7,0.2,1.1c-3.2,0.7-6.4,1.3-9.5,2.1c-3.2,0.8-6.2,1.8-9.4,2.7
		c0.5-0.8,1.1-1.5,1.6-2.3c0.2-0.3,0.7-0.5,0.7-0.7c0-0.2-0.5-0.5-1.1-1H106.6L106.6,790.2z"/>
	<path class="st45" d="M106.6,1750.4v-2h33.2l0.2,1.2c-2.9,0.4-5.9,0.6-8.6,1.3c-2.8,0.8-5.2,2.2-7.8,3.3c0-1.2,0-2.4,0-3.9
		L106.6,1750.4L106.6,1750.4z"/>
	<path class="st44" d="M109.1,2399v-2c4.9-1.9,8.3-6.1,14.5-5.9C120.1,2394.4,113.1,2398.2,109.1,2399L109.1,2399z"/>
	<path class="st36" d="M109.1,801.9c-0.8-0.7-1.6-1.3-2.4-2c3.4-1.7,7.5-2.5,10.2-5.2c0.7-0.7,2.8-0.5,4.2-0.7
		C118.9,798.6,113.8,800.1,109.1,801.9z"/>
	<path class="st36" d="M109.1,958.7c-0.8-0.7-1.6-1.3-2.4-2c4.2-1,7.2-4.2,12.1-3.9C117.5,956.9,112.2,956.7,109.1,958.7z"/>
	<path class="st27" d="M106.6,2322.6h-4.4c-0.2-1.7-0.4-3.4-0.6-5.9h5V2322.6z"/>
	<path class="st50" d="M118.7,1756.3c-0.9,3.1-3.5,4.2-7.2,3.9h-2.4C111.5,1757.6,114.6,1756.1,118.7,1756.3L118.7,1756.3z"/>
	<path class="st49" d="M123.5,1270.3c-0.9,3.1-3.5,4.2-7.2,3.9C117.2,1271.1,119.8,1270,123.5,1270.3z"/>
	<path class="st33" d="M109.1,1760.2h2.4c-1.6,1.3-3.2,2.6-4.8,3.9c0-1.3,0-2.6,0-3.9H109.1L109.1,1760.2z"/>
	<path class="st28" d="M138,1111.6c0-1.3,0-2.6,0-3.9c0.8,0.8,1.6,1.6,2.4,2.4C139.6,1110.6,138.8,1111.1,138,1111.6L138,1111.6z"/>
	<path class="st49" d="M116.3,1117.4c0.2-2.9,3-1.7,4.8-2C120.9,1118.4,118.1,1117.1,116.3,1117.4z"/>
	<path class="st49" d="M109.1,1121.4c0.2-2.9,3-1.7,4.8-2C113.7,1122.3,110.9,1121.1,109.1,1121.4z"/>
	<path class="st45" d="M123.5,1754.3c-0.2,2.9-3,1.7-4.8,2C118.9,1753.3,121.7,1754.6,123.5,1754.3z"/>
	<path class="st49" d="M113.9,1276.2c-0.2,2.9-3,1.7-4.8,2C109.3,1275.2,112,1276.5,113.9,1276.2z"/>
	<path class="st45" d="M106.6,2079.6c0.8-0.6,1.6-1.3,2.4-2C108.2,2078.3,107.4,2078.9,106.6,2079.6z"/>
	<path class="st49" d="M113.9,1119.4c0.8-0.7,1.6-1.3,2.4-2C115.5,1118.1,114.7,1118.7,113.9,1119.4z"/>
	<path class="st49" d="M106.6,1280.1v-2h2.4C108.2,1278.8,107.4,1279.4,106.6,1280.1z"/>
	<path class="st49" d="M116.3,1274.2c-0.8,0.7-1.6,1.3-2.4,2C114.7,1275.5,115.5,1274.9,116.3,1274.2z"/>
	<path class="st49" d="M121.1,1115.5c0.8-0.7,1.6-1.3,2.4-2C122.7,1114.2,121.9,1114.8,121.1,1115.5z"/>
	<path class="st44" d="M106.6,2236.3c0.8-0.6,1.6-1.3,2.4-2C108.2,2235,107.4,2235.7,106.6,2236.3z"/>
	<path class="st51" d="M17.4,2790.9c0.5-0.7,0.9-1.4,1.9-2.8c2.5,1.7,4.4,3,6.7,4.5c6.9,0.1,15.8-1.5,20.4-3.7
		c2.8-0.6,5.7-1.3,9.2-2.1c0.2,1.6,0.4,3.1,0.6,5.2c-10.3,3.1-20.1,7.6-32.7,6.6C21.4,2796.5,16.5,2795.4,17.4,2790.9L17.4,2790.9z"
		/>
	<path class="st51" d="M17.4,2471.5c1-0.4,2-0.8,3.5-1.3c0.8,1.1,1.9,2.6,2.4,3.3c9.4-0.1,17,0.9,23-3.9c2.5-0.6,5-1.3,8.7-2.2
		c0.5,0.9,1.4,2.4,2.1,3.8c-8.8,5.7-18.8,8.2-33.9,8.1C21.2,2476.8,16.3,2475.6,17.4,2471.5L17.4,2471.5z"/>
	<path class="st51" d="M17.4,2628.3c2.2,0.2,4.6,0.1,6.7,0.6c8.7,2.3,13.4,1.9,22.3-2.6c2.8-0.6,5.7-1.3,9.2-2.1
		c0.2,1.6,0.4,3.1,0.5,4.8c-9.9,4.6-19.9,8.3-32.8,6.8C21.4,2633.8,16.5,2632.7,17.4,2628.3L17.4,2628.3z"/>
	<path class="st51" d="M17.4,1031.2c2.2,0.2,4.5,0.2,6.7,0.6c1,0.2,1.8,1.2,2.8,1.3c4.3,0.7,14.5-1.4,19.4-3.9
		c2.8-0.6,5.7-1.3,9.2-2.1c0.2,1.6,0.4,3.1,0.5,4.6c-10.7,4.8-21.5,7.3-32.6,7.3C21.4,1036.8,16.5,1035.7,17.4,1031.2L17.4,1031.2z"
		/>
	<path class="st51" d="M17.4,874.5c2.2,0.2,4.5,0.2,6.7,0.6c1,0.2,1.8,1.2,2.8,1.3c4.3,0.7,14.5-1.4,19.4-3.9c2.5-0.6,5-1.3,8.7-2.2
		c0.5,0.9,1.4,2.5,2.5,4.4c-4.5,1.6-10.1,3.9-16.1,5.5c-2.8,0.8-5.7,0.7-8.7,1.8C26.5,884.2,19.2,880.1,17.4,874.5L17.4,874.5z"/>
	<path class="st51" d="M17.4,1513.3c5-1.2,8.1,1.3,11.5,4.6c4.7-4.5,13.6-0.6,17.5-6.6c3-0.1,6.4,0.8,8.6-2c2.9,3.6,0.9,6.4-3,7.7
		c-5.8,2-11.5,4.4-18.2,4.1c-4.3-0.2-8.7,0-12.2,0C16.8,1519.1,17.3,1516.1,17.4,1513.3L17.4,1513.3z"/>
	<path class="st51" d="M17.4,1672c0.5-0.7,0.9-1.4,1.8-2.7c2.7,1.8,5,3.3,7.7,5c6.1-2.8,14.3-1.1,19.5-6.2h7.2
		c3.8,0.7,2.9,2.4,1.1,4c-2.5,2.1-14.2,5.7-18.5,5.8c-5.1,0.1-10.3,0-16.4,0C18.9,1675.9,18.2,1674,17.4,1672L17.4,1672z"/>
	<path class="st51" d="M31.8,1358.5c-2.7,0-5.4,0-8.1,0c-5,0.1-6.6-2.3-6.4-5.9c0.5-0.7,1-1.4,1.9-2.8c2.5,1.8,4.5,3.2,6.6,4.7
		c3,0,17.5-2.7,20.4-3.8c3-0.9,5.7-3.6,9.8-1c-0.6,5-6.2,5.2-10.3,6.8c-1.5,0.6-4.2-0.6-4.2,2L31.8,1358.5L31.8,1358.5z"/>
	<path class="st51" d="M17.4,2150.1c3.5-0.3,6.5,0.9,9.8,1.8c3.2,0.9,7.1,0.4,10.6,0.1c2.9-0.3,5.7-1.2,8.5-1.9
		c2.9-1.2,5.9-2.4,8.9-3.7c0.5,1.1,0.9,2.2,1.5,3.3c0.3,0.5,1,0.9,1.6,1.4c-10.9,4.9-22.2,8.4-35.3,6.5
		C21.1,2155.4,16.3,2154.3,17.4,2150.1L17.4,2150.1z"/>
	<path class="st51" d="M17.4,2308.9c1-0.6,2.4-2,3-1.8c3,1.1,5.9,2.5,8.1,3.6c6.3-1.3,12.1-2.5,17.8-3.7c2.9-1.2,5.8-2.4,8.8-3.6
		c2.6,3.4,0.6,6.1-3.3,7.5c-5.8,2-11.5,4.4-18.2,4.1c-4.3-0.2-8.6,0-13.9,0C18.9,2312.8,18.1,2310.8,17.4,2308.9L17.4,2308.9z"/>
	<path class="st40" d="M17.4,1193.9c2,0,5-0.7,5.7,0.1c6.2,6.9,12.5,2.2,18.9,0.5c1.4-0.4,2.9-0.4,4.4-0.7c4.2-2.3,8.3-3.5,11.7,0.8
		c-10.2,5.3-21.3,8.3-34.9,6.6C21.4,1199.4,16.5,1198.3,17.4,1193.9L17.4,1193.9z"/>
	<path class="st51" d="M17.4,1991.4c2.2,0.2,4.6,0.1,6.7,0.6c8.7,2.3,13.4,1.9,22.3-2.6c2.8-0.6,5.7-1.3,9.3-2.1
		c0.2,1.6,0.3,3.1,0.5,4.9c-7.6,2.8-14.7,6.7-23.6,7c-5.5,0.2-10.6-0.3-15.1-3.1C17.3,1994.6,17.3,1993,17.4,1991.4L17.4,1991.4z"/>
	<path class="st30" d="M70.4,2038.4v-5.9C73.8,2034.5,73.8,2036.5,70.4,2038.4z"/>
	<path class="st51" d="M17.4,1834.6c1-0.4,2-0.8,3.5-1.3c0.8,1.1,1.9,2.6,2.4,3.3c9.4-0.1,17,0.9,23-3.9c2.8-0.6,5.7-1.3,9.2-2.1
		c0.2,1.6,0.4,3.1,0.6,5.2c-10.3,3.1-20.1,7.6-32.7,6.7C21.4,1840.2,16.5,1839.1,17.4,1834.6L17.4,1834.6z"/>
	<path class="st36" d="M63.2,988.1c0-23.5,0-47,0-70.5c0.8,0.5,2.3,1,2.3,1.5c0.1,22.5,0.1,45,0,67.5
		C65.5,987.1,64,987.6,63.2,988.1L63.2,988.1z"/>
	<path class="st49" d="M17.4,917.6c0,23.5,0,47,0,70.5c-0.8-0.5-2.3-1-2.3-1.5c-0.1-22.5-0.1-45,0-67.5
		C15,918.6,16.6,918.1,17.4,917.6L17.4,917.6z"/>
	<path class="st52" d="M27.2,1491.4v-3.3h9.2v3.3H27.2z"/>
	<path class="st52" d="M29.8,849.3h6.4c0,0.3,0.1,0.7,0.1,1c-2.1,0.2-4.3,0.5-6.4,0.7C29.9,850.5,29.9,849.9,29.8,849.3L29.8,849.3z
		"/>
	<path class="st52" d="M36.4,2125v3.2h-7C29.2,2122.8,33.5,2125.2,36.4,2125z"/>
	<path class="st52" d="M29,2603c4,0,7.8-1.8,7.7,2.7C34.1,2607.8,31.3,2607,29,2603z"/>
	<path class="st52" d="M36.4,1966.3v3.2h-9.2v-3.2H36.4z"/>
	<path class="st52" d="M36.4,2446.4v3.2h-6.8v-3.2H36.4z"/>
	<path class="st52" d="M37,1328.9h-9.5c-0.2-1-0.4-1.9-0.8-3.4c3.2-0.1,6.2-0.2,9.4-0.4C36.4,1326.3,36.6,1327.2,37,1328.9
		L37,1328.9z"/>
	<path class="st52" d="M27.2,1812.8v-3.3h9.2v3.3H27.2z"/>
	<path class="st52" d="M39,1006.1c-4.5,4.9-8.1,3-12.5,3.4c1-1.6,1.5-3.5,2.4-3.6C31.4,1005.6,34.1,1006,39,1006.1z"/>
	<path class="st52" d="M27.2,2769v-3.3h9.2v3.3H27.2z"/>
	<path class="st52" d="M24.8,1648.1c4.3-5,8.1-2.7,13.2-4.7c-1.8,2.9-2.3,4.8-3.2,4.9C32.2,1648.7,29.6,1648.3,24.8,1648.1
		L24.8,1648.1z"/>
	<path class="st52" d="M27.2,2285v-3.3h9.2v3.3H27.2z"/>
	<path class="st52" d="M29.6,1172v-3.3h6.8v3.3H29.6z"/>
	<path class="st53" d="M63.2,831.3v-70.5h2.4c0,22,0,44.1-0.1,66.1C65.5,828.5,67.2,831,63.2,831.3L63.2,831.3z"/>
	<path class="st48" d="M17.4,760.8c0,23.5,0,47,0,70.5c-0.8-0.5-2.3-1-2.3-1.5c-0.1-22.5-0.1-45,0-67.5
		C15,761.8,16.6,761.3,17.4,760.8L17.4,760.8z"/>
	<path class="st36" d="M10.1,831.3c0-23.5,0-47,0-70.5c0.8,0.5,2.3,1,2.3,1.5c0.1,22.5,0.1,45,0,67.5
		C12.4,830.3,10.9,830.8,10.1,831.3L10.1,831.3z"/>
	<path class="st36" d="M65.6,760.8H17.4c0.6-0.7,1.3-1.9,1.9-1.9c14.8-0.1,29.6-0.1,44.5,0C64.4,758.9,65,760.1,65.6,760.8z"/>
</g>
</svg>
