<?xml version="1.0" encoding="utf-8"?>
<!-- Generator: Adobe Illustrator 28.1.0, SVG Export Plug-In . SVG Version: 6.00 Build 0)  -->
<svg version="1.1" id="Layer_1" xmlns="http://www.w3.org/2000/svg" xmlns:xlink="http://www.w3.org/1999/xlink" x="0px" y="0px"
	 viewBox="0 0 595.3 2841.9" style="enable-background:new 0 0 595.3 2841.9;" xml:space="preserve">
<style type="text/css">
	.st0{fill:#666C9B;}
	.st1{fill:#453161;}
	.st2{fill:#564E7E;}
	.st3{fill:#534878;}
	.st4{fill:#5D5C8B;}
	.st5{fill:#646897;}
	.st6{fill:#4E3F6F;}
	.st7{fill:#606392;}
	.st8{fill:#493868;}
	.st9{fill:#7B5CA6;}
	.st10{fill:#7A63AB;}
	.st11{fill:#262238;}
	.st12{fill:#706BA8;}
	.st13{fill:#696DA0;}
	.st14{fill:#6C6CA3;}
	.st15{fill:#5A5585;}
	.st16{fill:#2D2942;}
	.st17{fill:#7669AE;}
	.st18{fill:#DCDBDB;}
	.st19{fill:#70788E;}
	.st20{fill:#8253A1;}
	.st21{fill:#8854A2;}
	.st22{fill:#8168AE;}
	.st23{fill:#7F6EB1;}
	.st24{fill:#737793;}
	.st25{fill:#77759A;}
	.st26{fill:#835CA7;}
	.st27{fill:#7B75A5;}
	.st28{fill:#613895;}
	.st29{fill:#7C74AA;}
	.st30{fill:#28272B;}
	.st31{fill:#5B398B;}
	.st32{fill:#565073;}
	.st33{fill:#5C4885;}
	.st34{fill:#4C536A;}
	.st35{fill:#69429A;}
	.st36{fill:#645684;}
	.st37{fill:#141220;}
	.st38{fill:#D1D0E4;}
	.st39{fill:#22102C;}
	.st40{fill:#DCC4DF;}
	.st41{fill:#2F1E43;}
	.st42{fill:#2A1927;}
	.st43{fill:#24243A;}
	.st44{fill:#59C1EB;}
	.st45{fill:#3A2B70;}
</style>
<path class="st0" d="M380.7,2676.1c-0.1-40.3-0.2-80.5-0.3-120.8c-0.1-4.5-0.3-9-0.4-13.6c0.2-41.1,1.1-82.2,0-123.2
	c-0.1-5-10.5-9.9-16.2-14.7c-1-0.9-2.6-1.2-3.9-1.8c1.2-0.2,2.4-0.5,3.7-0.6c17.2-1.2,17.1-1.2,17.2-18.5
	c0.2-23.6,0.5-47.2,0.8-70.8c7.4-4.9,14.2-11.6,22.3-14.2c6.1-2,13.9,1.5,20.9,2.2c6.6,0.7,14.3,3.2,19.6,0.8
	c6.5-3,10.1-4.9,17.1-0.6c6.2,3.8,14.2,8.9,21.2-3.4c6-10.6,6.1-20.6,6.3-31.5c6.6,1.4,13.3,2.4,19.7,4.4
	c13.1,4.1,13.3,4.1,13.3-9.4c0-67.7,0-135.4,0-203.2c0-5.2,0-10.4,0-15.6c0.7,0,1.3,0,1.9,0v459.1c-8.4,0-16.9,0.6-25.2-0.2
	c-8.4-0.8-10,2.4-9.9,10.2c0.3,112.1,0.2,224.1,0.2,336.2H380l0-17.5c0.1-4.5,0.2-9,0.3-13.6c0.1-40.3,0.3-80.6,0.3-120.9
	c0-2.4-1.4-4.8-2.2-7.2C379.2,2684.1,379.9,2680.1,380.7,2676.1L380.7,2676.1z"/>
<path class="st1" d="M451.5,788.9c0-17.8-30.6-57.7-29.8-75.5c0.4-9.9-2-14.5-12.5-12.7c-2.1,0.4-4.5-0.4-6.7-0.6
	c-0.2-0.6-0.5-0.9-1.1-1.1c0-9.8,0-19.5,0-29.3c0.6-0.2,1-0.7,1.1-1.3c29.9-0.1,59.7-0.2,89.5-0.3c0.6,0.5,1.3,1.1,1.9,1.6
	c0,26.6,29.9,75.2,29.9,101.8c-0.7,3-1.8,6-1.9,9.1c-0.2,14.5-0.1,29-0.1,43.5c-7.1-2.6-14.6-8-21.3-7.1
	c-13.1,1.8-25.6,4.9-39.3,2.9c-6.4-0.9-7.3-2.1-7.6-7.5C453.4,804.6,452.3,796.8,451.5,788.9L451.5,788.9z"/>
<path class="st2" d="M523.9,1172.3v250.9c-0.6,3.7-1.8,7.4-1.8,11.1c-0.1,39.1-0.1,78.2-0.1,117.3c-10.9,0-21.9,0-32.8,0
	c-0.1-44.1-0.3-88.2-0.5-132.2c0.1-39.6,0.3-79.1,0.4-118.7c7.3,0.2,15-1.1,21.8,0.9c10.6,3.1,11.2-1.7,11.2-9.9
	c-0.2-36.4-0.2-72.8,0-109.3C522.1,1179,523.3,1175.7,523.9,1172.3L523.9,1172.3z"/>
<path class="st3" d="M523.9,1172.3c-0.7,3.3-1.8,6.7-1.9,10.1c-0.1,36.4-0.2,72.8,0,109.3c0,8.3-0.6,13-11.2,9.9
	c-6.8-2-14.5-0.7-21.8-0.9c0-47.3,0-94.7,0-142c7.3-0.6,14.7-2,22-1.7c8.8,0.4,11-3.2,10.9-11.4c-0.3-43.6-0.1-87.2-0.1-130.8
	c0-14.3,0-28.5,0-42.8c0.6,0,1.3,0,1.9,0L523.9,1172.3L523.9,1172.3z"/>
<path class="st4" d="M522,1551.6c0-39.1,0-78.2,0.1-117.3c0-3.7,1.2-7.4,1.8-11.1v229.5c-0.6,0-1.3,0-1.9,0
	C522,1619.1,522,1585.3,522,1551.6z"/>
<path class="st5" d="M523.9,2041.8c-0.7,0-1.3,0-1.9,0c0-52.5,0-105.1,0-157.6c0-16.8,0-33.7,0-50.6c0.6,0,1.3,0,1.9,0L523.9,2041.8
	L523.9,2041.8z"/>
<path class="st6" d="M523.9,972c-0.6,0-1.3,0-1.9,0c0-49.3,0-98.6,0-147.8c0-14.5-0.1-29,0.1-43.5c0-3,1.2-6,1.8-9.1L523.9,972
	L523.9,972z"/>
<path class="st7" d="M523.9,1833.7c-0.6,0-1.3,0-1.9,0c0-41.5,0-83,0-124.5c0-18.8,0-37.6,0-56.4c0.6,0,1.3,0,1.9,0V1833.7z"/>
<path class="st8" d="M494,669.8c-0.6-0.5-1.3-1.1-1.9-1.6c0.6-0.1,1.3-0.2,1.9-0.3V669.8z"/>
<path class="st9" d="M489.2,1158.7c0,47.3,0,94.7,0,142c-0.1,39.6-0.3,79.1-0.4,118.7c-17.8,6.1-35.6,0.2-53.4,0.2
	c-10.7,0-21.4,0.1-32.1,0.1c-7.2,0-14.5-0.2-21.7-0.4c-0.3-14.9-0.5-29.7-0.8-44.6c-1.1-62.1-0.7-124.1-0.8-186.2
	c0-27.2-0.3-54.5,0.2-81.8c0.1-7.6-1.2-11.9-9.8-10.2c-8.9,1.7-10.6-2.5-10.5-10.7c0.5-24.1,0.1-24.1,24.3-24.2
	c17.5,0,17.4,0,17.5-18c0.1-20.7,0.4-41.4,0.7-62c0.4,8.4,0.7,16.8,1.1,25.3c-0.1,7.4-0.6,14.8-0.4,22.2c0.2,10.5-3.1,25.2,2.4,30.3
	c5.7,5.3,20,1.5,30.6,1.6c14.2,0.1,28.4,0.7,42.6,0.2c7.9-0.3,10.6,1.8,10.4,10.1C488.7,1100.5,489.1,1129.6,489.2,1158.7
	L489.2,1158.7z"/>
<path class="st10" d="M381.6,1419.3c7.2,0.1,14.5,0.4,21.7,0.4c10.7,0,21.4-0.1,32.1-0.1c17.8,0,35.6,5.9,53.4-0.2
	c0.1,44.1,0.3,88.2,0.5,132.2c0,52.5,0,105,0,157.6c-0.1,5.8-0.2,11.7-0.4,17.5c-9.2-1.1-18.4-3.4-27.5-3.2
	c-26.4,0.5-52.7,2.1-79,3.2c-0.4-3.4-0.8-6.9-1.2-10.3c-0.1-24.8-0.9-49.7,0-74.5c0.9-24-2.6-47.9-1.2-71.9
	c1.1-18.3,0.1-36.8,0.1-55.2c0-4.8,0-9.5,0-14.3c0.3-13.6,2.3-27.4,0.1-40.5c-0.9-5.6-10.5-9.8-16.1-14.6c-0.7-0.6-1.6-0.8-2.5-1.2
	c0.7-0.3,1.5-0.9,2-0.8c18.4,4.1,18.9-7.2,17.5-20.2C380.7,1421.9,381.3,1420.6,381.6,1419.3L381.6,1419.3z"/>
<path class="st8" d="M522,824.1c0,49.3,0,98.6,0,147.9c0,14.3,0,28.5,0,42.8c-5.7,0.7-11.4,1.5-17.1,1.9c-18.2,1.4-36.4,2.7-54.7,4
	c-0.1-7.8-0.3-15.6-0.4-23.4c0.1-49.9,0.2-99.8,0.2-149.7c0-13.2,1.1-26.4-0.3-39.4c-0.7-6.9-5.9-13.3,1.9-19.2
	c0.8,7.8,1.9,15.7,2.3,23.5c0.3,5.4,1.2,6.6,7.6,7.5c13.7,2,26.2-1.1,39.3-2.9C507.3,816.1,514.9,821.5,522,824.1L522,824.1z"/>
<path class="st11" d="M450,847.5c-0.1,49.9-0.2,99.8-0.2,149.7c-15.5,3.3-30.9,6.5-46.4,9.8c-0.4-8.4-0.7-16.8-1.1-25.3
	c0-1.5-0.1-3-0.1-4.5l0.5-0.2l-0.4-0.2c-0.3-7.4-0.9-14.8-0.9-22.1c-0.1-20.9-0.3-41.9,0.1-62.8c0.1-6.1-1.7-7.7-7.6-7.6
	c-2,0-5.7-3.9-5.8-6.1c-0.5-9.6,0.1-19.3,0.3-28.9c0.7,0,1.1-0.3,1.2-1C409.7,848,429.9,847.7,450,847.5L450,847.5z"/>
<path class="st8" d="M389.6,848.2c-0.1,0.7-0.5,1-1.2,1C388.8,848.9,389.2,848.6,389.6,848.2z"/>
<path class="st9" d="M402.3,976.9l0.4,0.2c0,0-0.5,0.2-0.5,0.2s-0.4-0.2-0.4-0.2L402.3,976.9L402.3,976.9z"/>
<path class="st8" d="M402.5,668.5c-0.2,0.6-0.5,1-1.1,1.3C401.8,669.3,402.2,668.9,402.5,668.5z"/>
<path class="st8" d="M401.4,699c0.5,0.2,0.9,0.6,1.1,1.1C402.1,699.8,401.8,699.4,401.4,699z"/>
<path class="st12" d="M381.5,2082.6c-0.3-18.1-1.4-36.2-0.6-54.3c0.6-14.5-0.5-26.9-16.7-32.2c-1.2-0.4-2.1-1.6-3.2-2.4
	c1.3,0,2.6-0.1,3.8-0.1c11.1-0.3,16.1-5.3,15.2-15c0-4,0-8-0.1-11.9c0.5-19.7,1-39.3,1.5-58.9c35.8-1.3,71.5-2.7,107.2-4
	c0,51.9,0.1,103.8,0.1,155.6c0,5.2-0.1,10.4-0.1,15.5c-7.2,0.5-14.4,0.8-21.6,1.5c-10.8,1-22.1,4.9-32.2,2.8
	C416.5,2075.2,398.9,2073.5,381.5,2082.6L381.5,2082.6z"/>
<path class="st13" d="M488.9,2265.5c-0.2,10.9-0.3,20.9-6.3,31.5c-7,12.3-14.9,7.2-21.2,3.4c-7-4.3-10.7-2.4-17.1,0.6
	c-5.3,2.5-13-0.1-19.6-0.8c-7-0.7-14.8-4.2-20.9-2.2c-8.1,2.6-15,9.3-22.3,14.2c-0.3-7.1-1.1-14.1-0.7-21.2
	c0.8-12.6-2.7-21.4-16.9-22.7c-1.4-0.1-2.6-1.1-3.9-1.7c1.4-0.3,2.8-0.9,4.1-1c16.5-0.8,16.4-0.8,16.6-17c0.2-19,0.5-38,0.8-57
	c14.1-0.1,28.2-0.2,42.3-0.4c1.2,0,2.3-1.2,3.5-1.3c12.5-1.3,25-3.6,37.5-3.2c8.1,0.2,16.1,4.4,24.1,6.8
	C488.9,2217.5,488.9,2241.5,488.9,2265.5L488.9,2265.5z"/>
<path class="st14" d="M488.9,2193.5c-8-2.4-16-6.6-24.1-6.8c-12.5-0.4-25,1.9-37.5,3.2c-1.2,0.1-2.3,1.3-3.5,1.3
	c-14.1,0.2-28.2,0.3-42.3,0.4c-0.3-12.6-1.5-25.3-0.6-37.8c1-12.9-4.9-19.1-16.2-22.3c-1.4-0.4-2.9-0.9-4.3-1.3
	c1.6-0.4,3.3-0.9,4.9-1.1c2.2-0.2,4.6-0.3,6.8,0c7,1,8.8-2.2,8.6-8.8c-0.2-12.6,0.4-25.2,0.7-37.8c17.4-9.1,34.9-7.4,53.5-3.5
	c10.1,2.1,21.4-1.8,32.2-2.8c7.2-0.7,14.4-1,21.6-1.5C488.8,2114.4,488.8,2154,488.9,2193.5L488.9,2193.5z"/>
<path class="st0" d="M380.3,2816.1c-0.1,4.5-0.2,9-0.3,13.6c-6.2-3.2-12.4-6.4-18.5-9.7c-0.8-0.5-1.3-1.6-1.9-2.5
	c1.1-0.4,2.2-1.2,3.4-1.2C368.7,2816.1,374.5,2816.1,380.3,2816.1L380.3,2816.1z"/>
<path class="st0" d="M380,2541.8c0.1,4.5,0.3,9,0.4,13.6c-6.1-3.4-12.3-6.7-18.4-10.1c-1-0.5-1.7-1.5-2.5-2.2c1-0.5,2.1-1.4,3.1-1.4
	C368.4,2541.5,374.2,2541.7,380,2541.8L380,2541.8z"/>
<path class="st0" d="M380.7,2676.1c-0.8,4-1.5,7.9-2.3,11.9c-2-1.5-3.7-3.3-5.9-4.4c-4.2-2.2-8.6-4-12.9-6
	c5.4-0.4,10.8-0.8,16.2-1.2C377.5,2676.4,379.1,2676.3,380.7,2676.1z"/>
<path class="st5" d="M488.9,2193.5c0-39.6,0-79.1,0-118.7c0-5.2,0.1-10.4,0.1-15.5c11.5,7.2,22.2,1.3,33-1.9c0,67.7,0,135.4,0,203.2
	c0,13.5-0.2,13.5-13.3,9.4c-6.4-2-13.1-3-19.7-4.4C488.9,2241.5,488.9,2217.5,488.9,2193.5L488.9,2193.5z"/>
<path class="st7" d="M522,2057.4c-10.9,3.2-21.6,9.2-33,1.9c0-51.9-0.1-103.8-0.1-155.7c0.1-7.1,0.2-14.3,0.2-21.4
	c4.7,0.3,9.3,0.5,14,0.8c6.3,0.4,12.6,0.8,18.9,1.2c0,52.5,0,105.1,0,157.6C522,2047,522,2052.2,522,2057.4L522,2057.4z"/>
<path class="st15" d="M489.1,1709.2c0-52.5,0-105,0-157.6c10.9,0,21.9,0,32.8,0c0,33.7,0,67.4,0,101.2c0,18.8,0,37.6,0,56.4
	C511,1709.2,500.1,1709.2,489.1,1709.2L489.1,1709.2z"/>
<path class="st6" d="M450.2,1020.6c18.2-1.3,36.4-2.6,54.7-4c5.7-0.4,11.4-1.3,17.1-1.9c0,43.6-0.2,87.2,0.1,130.8
	c0.1,8.2-2.1,11.8-10.9,11.4c-7.3-0.3-14.7,1.1-22,1.7c-0.1-29.1-0.5-58.2-0.1-87.3c0.1-8.3-2.6-10.4-10.4-10.1
	c-14.2,0.5-28.4-0.1-42.6-0.2c-1.7-0.7-3.5-1.5-5.2-2.2c1.9-0.4,3.9-1.6,5.7-1.2c11.3,2,14.9-2.7,13.7-13.8
	C449.3,1036.3,450.1,1028.4,450.2,1020.6L450.2,1020.6z"/>
<path class="st4" d="M489.1,1709.2c11,0,21.9,0,32.9,0c0,41.5,0,83,0,124.5c0,16.8,0,33.7,0,50.6c-6.3-0.4-12.6-0.8-18.9-1.2
	c-4.7-0.3-9.3-0.5-14-0.8c-0.1-51.9-0.2-103.7-0.3-155.6C488.8,1720.9,489,1715,489.1,1709.2z"/>
<path class="st16" d="M450.2,1020.6c-0.1,7.8-0.9,15.6,0,23.3c1.3,11-2.3,15.7-13.7,13.8c-1.8-0.3-3.8,0.8-5.7,1.2
	c1.7,0.7,3.5,1.5,5.2,2.2c-10.6-0.2-24.9,3.7-30.6-1.6c-5.5-5.1-2.2-19.8-2.4-30.3c-0.2-7.4,0.2-14.8,0.4-22.2
	c15.5-3.3,30.9-6.5,46.4-9.8C449.9,1005,450,1012.8,450.2,1020.6L450.2,1020.6z"/>
<path class="st17" d="M381.5,1907.7c-0.3-9.3-1.6-18.8-0.6-28c1.5-13.7-4.3-20.9-16.7-24.4c-1.4-0.4-2.6-1.1-3.9-1.7
	c1.2-0.2,2.4-0.6,3.5-0.7c16.8-1.3,16.9-1.3,16.8-17.8c-0.2-34.9-0.6-69.7-0.9-104.6c0.8-1.3,1.5-2.5,2.3-3.8
	c26.4-1.1,52.7-2.7,79-3.2c9.2-0.2,18.4,2.1,27.5,3.2c0.1,51.9,0.2,103.7,0.3,155.6c-0.1,7.1-0.2,14.3-0.2,21.4
	C453,1905,417.3,1906.4,381.5,1907.7L381.5,1907.7z"/>
<path class="st10" d="M382.1,1726.7c-0.8,1.3-1.5,2.5-2.3,3.8c-6.1-3.3-12.3-6.6-18.4-9.9c-0.7-0.4-1.2-1.1-1.8-1.7
	c1-0.6,2-1.5,3.1-1.6c6.1-0.4,12.1-0.6,18.2-0.9C381.3,1719.8,381.7,1723.3,382.1,1726.7L382.1,1726.7z"/>
<rect x="477.7" y="188.9" class="st18" width="126.6" height="2589.4"/>
<path class="st19" d="M454,2670v-151.1c0-6.1,0.2-12.1-0.1-18.2c-0.3-5.5-1.2-10.9-1.8-16.4c0.6-0.6,1.3-1.3,1.9-1.9v-189.6
	c2.2,0.7,5.4,0.6,6.6,2.1c3.4,4.1,7.4,4,13.4,3.2c0.3-0.5,1.1-2.2,2-3.9c2.2,1.1,3.8,1.9,5.3,2.6c3.1-4.3,6.3-8.3,5.5-13.7h3.6v46
	c-2-0.3-4,0.1-4.8,2.1c-0.7,1.5-0.7,3.3-1.2,5.6H611v189.6c-3.7-0.7-1.8-3.6-1.8-5.3c-0.1-29.6-0.1-59.3-0.1-88.9
	c0-2.4-0.2-4.8-0.3-6.9H490.4v100.4c-1.4,0.6-2.5,1-3.7,1.5v6.9H611v195.3c-3.7-0.7-1.8-3.6-1.8-5.3c-0.1-29.6-0.1-59.3-0.1-88.9
	c0-2.4-0.2-4.8-0.3-6.9H490.4v100.4c-1.4,0.6-2.5,1-3.7,1.5v6.9H611v107.2H454L454,2670L454,2670z M515.3,2377
	c-2.9-1.4-5.7-2.8-8.5-4.1c-1.1,2.1-1.9,3.6-2.7,5.3c10.9,5.5,22.3,10.1,35.4,8.1c1.4-1.4,3-2.9,4.6-4.5v-4.8h32.1v-34.3h-60.9
	L515.3,2377L515.3,2377z M545.9,2574.3h30.2v-36.2h-60.9c0,11.6,0,22.9,0,34.3c-2.3-0.6-4.5-1.4-6.9-1.9c-0.8-0.2-1.7,0.3-2.5,0.4
	c-0.1,0.9-0.2,1.5-0.2,2.1c0,0.9,0.2,1.8,0.2,2.6c10.8,4.6,21.1,10,33.6,7.9c1-1,2.6-2.2,3.6-3.7
	C544.3,2578.1,545,2576.1,545.9,2574.3L545.9,2574.3z M515.3,2775.4c-2.9-0.6-5.8-1.2-8.6-1.8c-0.8,5.4-0.4,6.2,3.1,7.5
	c2.5,0.9,4.9,1.8,7.4,2.8c8.9,3.6,17.9,4.9,26.8,0.4c0.7-2.5,1.4-4.8,2-7h30.2v-36.2h-60.9V2775.4L515.3,2775.4z"/>
<path class="st20" d="M452.1,670.8c0-49.7-0.1-99.5,0.1-149.2c0-7.1,1.2-14.1,1.8-21.2c1.4,0.3,3-0.8,3.9,1.5
	c0.7,1.8,2.2,3.2,3.9,5.5c2.8-4,6.5-5.7,7.9-10c0.9-2.8,4-3.8,7.4-1.7c-0.8,3-1.6,6.2-2.3,8.9c3.4,2.6,6.4,5,9.9,7.7
	c1.8-0.7,3.7-1.5,5.6-2.3v15.3h-3.6v7.7H611v394.5h-1.9V826.3c-29.4-1.3-110.8-0.8-118.7,0.7v100.5c-3.1-0.6-4.4,0.7-3.8,3.8
	c-5.6-0.2-11,3.7-14.7,2.3c-4.6-2.9-7.4-4.7-9.2-5.8c-3.6,0.7-6.2,1.2-8.7,1.6v-15.3c0-5.1,0.2-10.2-0.1-15.3
	c-0.3-4.5-1.2-9-1.8-13.5c2.9-0.2,1.6-2.4,1.9-3.8v-15.3c0-8.6,0.5-17.3-0.1-25.8c-3.7-50.7-1-101.5-1.8-152.3v-1.9
	c2.7-4,2.7-9.4,0-13.4L452.1,670.8L452.1,670.8z M515.3,776.2c-2.4-0.1-5,0.7-6.8-1.8c-0.2-0.3-1.6,0.2-2.5,0.3v5.4
	c6.1,2,12.5,3.2,18.1,6.2c4.4,2.4,8.5,1.4,12.6,1.2c4.9-0.2,7-3.6,7.4-9.4h32.1v-36.2h-60.9L515.3,776.2L515.3,776.2z M515.3,571.3
	c-2.3-0.6-4.5-1.4-6.9-1.9c-0.8-0.2-1.7,0.3-2.5,0.4v4.7c10.8,4.6,21.1,10,33.8,7.9c1.5-1.6,3.7-3.5,5.5-5.7
	c0.7-0.8,0.5-2.3,0.7-3.5h30.2V537h-60.9V571.3L515.3,571.3z M607,629H490.7c-1.2,28.9-0.8,93.2,0.6,100.8H607V629L607,629z"/>
<path class="st21" d="M490.4,510c-1.9,0.8-3.8,1.6-5.6,2.3c-3.4-2.7-6.5-5.1-9.9-7.7c0.7-2.8,1.5-5.9,2.3-8.9
	c-3.5-2.1-6.5-1-7.4,1.7c-1.4,4.3-5.1,6-7.9,10c-1.7-2.3-3.2-3.7-3.9-5.5c-0.9-2.3-2.6-1.2-3.9-1.5c-0.6-2.9-1.5-5.8-1.9-8.7
	c-0.3-2.8-0.1-5.7-0.1-8.5c2.9-0.2,1.6-2.4,1.9-3.8V464c0-6.4,1.3-13.1-0.4-19c-1.6-5.6-2.3-11.2-1.3-16.5
	c3.1-16.3,1.2-32.6,1.6-48.9c0.4-16.2-0.1-32.5,0.1-48.7c0.1-7.2-2.7-13.9-2.1-21.2c0.6-7.3,0.1-14.6,0.1-22
	c2.9-0.2,1.6-2.4,1.9-3.8c0-3.1,0.1-6.1-0.1-9.2c-0.1-0.8-1.2-1.5-1.8-2.3V165.3H611v162.8c-0.6-0.8-1.8-1.6-1.8-2.5
	c-0.2-5.7-0.1-11.5-0.1-17.2c0-25.5,0-51-0.1-76.5c0-1.8,1.9-4.7-1.8-5.3H490.4v101.5h-3.6v7.7H611v189.6h-1.9V424H493.3
	c-3.4,1.7-2.9,4.7-2.9,7.5c0,21.7,0,43.4,0,65c-3.4,0-6.9-0.5-7.7,4.5c2.2,2.1,3.5,5.8,7.7,5.1L490.4,510L490.4,510z M515.3,375.9
	c-2.9-1.4-5.7-2.8-8.6-4.2c-2.1,4-0.8,6.7,2.5,7.9c7,2.5,13.6,6.3,21.4,5.9c2.9-0.2,5.7,0,9.4,0c1.8-3,3.9-6.3,6-9.6h30.2v-36.2
	h-60.9L515.3,375.9L515.3,375.9z"/>
<path class="st22" d="M454,1266.4v-151.3c2.1-0.3,4.1-0.3,6.2-1.1c3.6-1.3,7.2-3.7,11.3-2.7c3.4,0.9,6.6,2.4,10,3.7
	c2.8-1.6,5.3-4,8.9-3.8v19.2h-3.6v7.7H611v189.6h-1.9v-101.2c-29.4-1.3-110.8-0.8-118.7,0.7v100.5h-3.6v7.7H611v70.8h-12.8
	c-4.9-1.4-9.6-1.5-14.2,1.1c-1.2,0.7-3,0.9-4.4,0.8c-1.7-0.2-3.3-1.7-5-1.7c-2,0.1-3.9,1.5-5.9,1.7c-3.8,0.3-8.6-1.3-11.3,0.4
	c-4.1,2.7-6.8-1.1-10.1-0.3c-1.8,0.4-3.7,0.4-5.3,1.1c-2.7,1.1-5,1-7.8-0.2c-4.2-1.7-9-4.7-13-2.6c-5.2,2.8-11-0.1-15.9,3.4
	c-1.7,1.2-5.5,1.1-7.4,0c-3.6-2.1-7.2-1.5-10.8-1.7c-3.9-0.2-8,0.8-11.8-1.8c-1.2-0.8-3.7-0.1-5.4,0.3c-5.2,1.3-10.4,3.1-15.8,3.3
	L454,1266.4L454,1266.4z M545.9,1178.3h30.2v-36.2h-60.9v34.3c-2.3-0.6-4.5-1.4-6.9-1.9c-0.8-0.2-1.7,0.3-2.5,0.4v4.7
	c10.8,4.6,21.1,10,33.8,7.9c1.5-1.6,3.7-3.5,5.5-5.7C545.8,1180.9,545.7,1179.5,545.9,1178.3L545.9,1178.3z M545.9,1375.5
	c8.9,0,17.8,0.1,26.7-0.1c2,0,3.9-1.1,5.4-1.6v-34.5h-62.7v34.3c-2.3-1.2-4.6-2.3-7-3.6c-2.4,1.8-3.6,4-2.5,6.1
	c4.3,1.9,7.6,3.8,11.2,5c3.9,1.4,8,2.1,12,3.3C537.1,1386.8,543.7,1383.4,545.9,1375.5L545.9,1375.5z"/>
<path class="st23" d="M454,1410c5.5-0.2,10.6-2,15.8-3.3c1.8-0.5,4.2-1.2,5.4-0.3c3.8,2.5,7.8,1.5,11.8,1.8
	c3.6,0.2,7.2-0.4,10.8,1.7c1.9,1.1,5.7,1.2,7.4,0c4.9-3.4,10.7-0.5,15.9-3.4c4-2.2,8.9,0.9,13,2.6c2.8,1.1,5.1,1.2,7.8,0.2
	c1.7-0.7,3.5-0.7,5.3-1.1c3.3-0.7,6,3,10.1,0.3c2.7-1.8,7.5-0.1,11.3-0.4c2-0.2,3.9-1.6,5.9-1.7c1.6,0,3.2,1.4,5,1.7
	c1.4,0.2,3.2-0.1,4.4-0.8c4.6-2.6,9.4-2.5,14.2-1.1H611v126.4h-1.9v-101.2c-29.4-1.3-110.8-0.8-118.7,0.7v100.5h-3.6v7.7H611v187.7
	h-1.9v-101.1c-28.1-1.2-110.7-0.8-118.7,0.6v46.9c-6.7-0.6-13.4-1.5-20.2-1.8c-5.4-0.3-10.8-0.1-16.2-0.1L454,1410L454,1410z
	 M545.9,1580.4h30.2v-36.2h-60.9c0,11.6,0,22.9,0,34.3c-1.6-0.6-3.2-1.3-4.9-1.9c-1.5-0.5-3-0.9-4.2-1.3c-0.8,1.7-1.4,3.2-2,4.6
	c10.1,6.7,21.3,10.1,31.6,10.1C541.8,1588.3,544.4,1584.8,545.9,1580.4L545.9,1580.4z"/>
<path class="st24" d="M490.4,2283.2h-3.6c0.8,5.4-2.4,9.3-5.5,13.7c-1.5-0.8-3.1-1.5-5.3-2.6c-0.8,1.6-1.7,3.4-2,3.9
	c-6,0.7-10.1,0.8-13.4-3.2c-1.2-1.5-4.4-1.4-6.6-2.1c-3.7-0.9-1.2-3.9-1.9-5.7v-1.9c2.7-3.6,2.7-7.9,0-11.5v-3.8
	c3.5-20.4,1.6-40.9,1.9-61.4c0.3-20.7,0.1-41.4,0.1-62.2v-73.7c3.7,0.3,6.6-3,10.5-2c7.6,2,7.6,1.8,15.4,0.1
	c1.4-0.3,3.4-0.2,4.3,0.7c2,1.8,4.1,0.9,6.2,1.2v51.7h-3.6v7.7H611v197.2h-3.8V2228c-28.2-1.2-108.8-0.8-116.8,0.6L490.4,2283.2
	L490.4,2283.2z M545.9,2172.2h30.2V2136h-60.9v34.3c-3-0.7-6.1-1.4-9.4-2.1c-0.3,4.2-0.2,6.9,3.9,8c3.9,1,7.9,2.2,11.6,3.8
	c7.8,3.4,15.2,2.5,22.5-0.6C544.6,2176.6,545.3,2174.4,545.9,2172.2L545.9,2172.2z"/>
<path class="st25" d="M490.4,2072.6c-2-0.3-4.2,0.6-6.2-1.2c-0.9-0.8-3-1-4.3-0.7c-7.7,1.7-7.8,1.9-15.4-0.1c-4-1.1-6.8,2.3-10.5,2
	V1883c0-3.1,0.1-6.1-0.1-9.2c-0.1-0.8-1.2-1.6-1.8-2.3v-3.8c3.7-0.9,1.2-3.9,1.9-5.7c3.9,1.3,4.8-3.7,7.8-3.9
	c2.8,1.4,5.4,2.8,7.8,4.1c4.1-3.2,8.2-4.7,13.1-4.1c2.5,0.3,5.1,0.1,7.6,0.1v68.9h-5.5v9.6H611v187.7h-1.9v-101.1
	c-28.2-1.2-110.7-0.8-118.7,0.6L490.4,2072.6L490.4,2072.6z M545.9,1976.8h30.2v-36.2h-60.9v34.3c-2.8-1.4-5.7-2.8-8.6-4.2
	c-1,2.2-1.9,3.9-2.7,5.6c1.3,0.9,2.2,1.9,3.3,2.3c6.7,2.2,13,6,20.4,5.8c3.6,3.7,7.1,0.5,10.8,0.3
	C544.2,1984.4,543.6,1979.6,545.9,1976.8L545.9,1976.8z"/>
<path class="st26" d="M490.4,1111.3c-3.6-0.2-6.1,2.2-8.9,3.8c-3.3-1.3-6.6-2.8-10-3.7c-4.1-1.1-7.7,1.4-11.3,2.7
	c-2.2,0.8-4.1,0.8-6.2,1.1c0-7,0.1-14-0.1-20.9c-0.1-2-1.2-3.9-1.8-5.9c0.4-0.6,1.1-1.2,1-1.7c0-0.7-0.7-1.4-1-2.1
	c0.6-0.8,1.8-1.5,1.8-2.3c0.2-3,0.1-6.1,0.1-9.2V929.4c2.5-0.5,5.1-1,8.7-1.6c1.8,1.2,4.6,2.9,9.2,5.8c3.7,1.5,9-2.5,14.7-2.3v3.8
	H611v195.3h-1.9v-101.1c-29-1.3-110.7-0.8-118.7,0.7L490.4,1111.3L490.4,1111.3z M515.3,973.4c-2.3-0.6-4.5-1.4-6.9-1.9
	c-0.8-0.2-1.7,0.3-2.5,0.4v5.2c6.6,2,13.2,3.8,19.6,5.8c11.5,3.7,14.8,2.5,20.3-7.7h30.2v-36.2h-60.9L515.3,973.4L515.3,973.4z"/>
<path class="st27" d="M490.4,1858.1c-2.5,0-5.1,0.2-7.6-0.1c-4.9-0.5-9,0.9-13.1,4.1c-2.5-1.3-5.1-2.7-7.8-4.1
	c-3,0.2-3.9,5.2-7.8,3.9v-93.8c4.3,1.3,8.4,3,12.8,3.7c5.4,0.9,11,0.9,17.5,1.4c0.4-0.5,1.5-2.1,2.1-2.9c7.9-1.3,14.3,3.2,21.2,1.6
	c-0.7,1.3-1.4,2.6-2.2,4.3c4.7,6.3,12.6,6.8,18.9,8.6c6,1.8,13.5,2.2,19.6-2.3c0.7-2.3,1.3-4.5,2-6.8c5,0,10,0,15.1,0
	c5.2,0,10.4,0.2,15.6-0.1v-3.7c3.2,0.9,5.8-1.2,8.5-2c4.8-1.6,8.8-5.2,14.7-2c3.2,1.8,7.5,1.5,11.3,2.1v157h-1.9v-99.2
	c-27.7-1.2-110.7-0.8-118.7,0.6L490.4,1858.1L490.4,1858.1z"/>
<path class="st28" d="M611,165.3H424.3c-0.2-0.2-0.4-0.4-0.6-0.7c-0.1-0.2-0.3-0.6-0.3-0.8c0-15.9,0-31.8,0-48.3H611L611,165.3
	L611,165.3z"/>
<path class="st29" d="M507.6,1771.9c-6.9,1.6-13.3-2.9-21.2-1.6c-0.6,0.9-1.7,2.4-2.1,2.9c-6.6-0.5-12.1-0.5-17.5-1.4
	c-4.4-0.7-8.5-2.4-12.8-3.7v-95.8c5.4,0,10.8-0.2,16.2,0.1c6.7,0.4,13.5,1.2,20.2,1.8v53.6h-3.6v7.7H611v34.5
	c-3.8-0.6-8.1-0.4-11.3-2.1c-5.8-3.2-9.8,0.4-14.7,2c-2.7,0.9-5.3,3-8.5,2v-30.3h-61.3c0,9.8,0,19.3,0,28.8c0,1.4,0.7,3.4-1.9,3.4
	C511.4,1773.2,509.5,1772.6,507.6,1771.9L507.6,1771.9z"/>
<path class="st30" d="M611,2737.1H486.7v-6.9c1.2-0.5,2.3-0.9,3.7-1.5v-100.4h118.4c0.1,2.1,0.3,4.5,0.3,6.9c0,29.6,0,59.3,0.1,88.9
	c0,1.8-1.9,4.7,1.8,5.3L611,2737.1L611,2737.1z M552,2635.7v87.9c16.2,0,32.1,0,48,0c0.3,0,0.6-0.2,0.8-0.3c0.2-0.2,0.4-0.4,0.3-0.3
	v-87.2L552,2635.7L552,2635.7z M498.2,2723.3h47.4c1.1-27.4,0.7-79.8-0.6-87.4h-46.8L498.2,2723.3L498.2,2723.3z"/>
<path class="st30" d="M611,2534.1H486.7v-6.9c1.2-0.5,2.3-0.9,3.7-1.5v-100.4h118.4c0.1,2.1,0.3,4.5,0.3,6.9c0,29.6,0,59.3,0.1,88.9
	c0,1.8-1.9,4.7,1.8,5.3L611,2534.1L611,2534.1z M552,2432.8v87.9c16.2,0,32.1,0,48,0c0.3,0,0.6-0.1,0.8-0.3c0.3-0.2,0.5-0.4,0.4-0.3
	v-87.3L552,2432.8L552,2432.8z M498.2,2520.3h47.4c1.2-29,0.7-79.8-0.6-87.4h-46.8L498.2,2520.3L498.2,2520.3z"/>
<path class="st31" d="M607.2,226.6c3.7,0.7,1.8,3.6,1.8,5.3c0.1,25.5,0.1,51,0.1,76.5c0,5.7-0.1,11.5,0.1,17.2
	c0,0.8,1.2,1.6,1.8,2.5v7.7H486.7v-7.7h120.4L607.2,226.6L607.2,226.6z"/>
<path class="st32" d="M609.1,1927h1.9v9.6H484.8v-9.6h5.5c0.3,3.2,2.9,1.8,4.4,1.8c17.2,0.1,34.4,0.1,51.6,0.1
	c19.4,0,38.9,0,58.3-0.1C606.3,1928.9,608.8,1930.2,609.1,1927L609.1,1927z"/>
<path class="st28" d="M609.1,525.3h1.9v7.7H486.7v-7.7H609.1L609.1,525.3z"/>
<path class="st28" d="M611,935.1H486.6v-3.8c-0.6-3.1,0.7-4.4,3.8-3.8H611V935.1L611,935.1z"/>
<path class="st33" d="M611,1540.2H486.7v-7.7H611V1540.2z"/>
<path class="st31" d="M609.1,1327.7h1.9v7.7H486.7v-7.7H609.1L609.1,1327.7z"/>
<path class="st28" d="M609.1,1130.4h1.9v7.7H486.7v-7.7H609.1L609.1,1130.4z"/>
<path class="st34" d="M607.2,2329.2h3.8v7.7H484.4c0.4-2.3,0.5-4.1,1.2-5.6c0.9-2,2.8-2.4,4.8-2.1c0.3,3.2,2.9,1.8,4.4,1.9
	c15.9,0.1,31.9,0.1,47.8,0.1c20.1,0,40.2,0,60.2-0.1C604.3,2331,606.9,2332.4,607.2,2329.2L607.2,2329.2z"/>
<path class="st32" d="M611,1735.5H486.7v-7.7h3.6c0.3,3.2,2.9,1.8,4.4,1.8c17.2,0.1,34.4,0.1,51.6,0.1c19.4,0,38.9,0,58.3-0.1
	c1.5,0,4,1.3,4.4-1.8h1.9L611,1735.5L611,1735.5z"/>
<path class="st34" d="M609.1,2124.3h1.9v7.7H486.7v-7.7h3.6c0.3,3.2,2.9,1.8,4.4,1.9c17.2,0.1,34.4,0.1,51.6,0.1
	c19.4,0,38.9,0,58.3-0.1C606.3,2126.1,608.8,2127.5,609.1,2124.3L609.1,2124.3z"/>
<path class="st34" d="M454,2670v3.8h-17.1c6.8,4.6,11.9,8,17.1,11.5v3.8c-5.3-3.2-11.2-5.8-15.9-9.7c-5.4-4.5-10.9-6.5-17.9-5.4
	c-0.3-1-0.6-1.8-0.9-2.6c0.5-0.6,0.9-1.4,1.3-1.4C431.8,2670,442.9,2670,454,2670L454,2670z"/>
<path class="st35" d="M454,464v5.7c-5.1,0.1-10.2-0.3-16.3,0.4c2.6,1.6,4.1,2.5,5.6,3.3c3.6,1.8,6.1,5.8,10.6,5.9
	c-0.3,1.5,1,3.7-1.9,3.8c-3.6,1-4.7-2.4-6.9-3.9c-4.5-3-8.9-6.1-14.1-9.6c-3.1-1-8.4,2.5-11.7-3.8c9.3,0,18.1,0,26.9,0
	C449,466,451.7,465.9,454,464L454,464z"/>
<path class="st35" d="M452.1,268.7v3.8h-16.9c7.4,4.5,13.1,8,18.8,11.5c-0.3,1.5,1,3.7-1.9,3.8c-5.8-4.2-12.4-7.5-17.6-12.7
	c-3.9-3.8-9.2-2.5-14.2-2.7c-0.3-0.8-0.6-1.6-0.8-2.4c0.5-0.6,0.9-1.4,1.3-1.4C431.2,268.7,441.6,268.7,452.1,268.7L452.1,268.7z"/>
<path class="st33" d="M454,1486.6v3.8c-6.1-0.5-9.9-5.2-14.7-8.1c-1.6-0.9-3-2.2-4.3-3.4c-3.8-3.6-8.4-4.4-13.2-3.8
	c-0.2-1.3-0.2-1.9-0.3-2.5c0.4-0.4,0.8-1.2,1.2-1.2c10.5-0.1,20.9-0.1,31.4-0.1v3.8h-19c6.8,4.6,11.9,8.1,17.1,11.4
	C452.6,1486.9,453.4,1486.6,454,1486.6z"/>
<path class="st32" d="M452.1,1867.7v3.8H435c6.8,4.6,11.9,8.1,17.1,11.4c0.5,0.3,1.2,0,1.9,0v3.8c-2.3-0.7-4.9-0.8-6.7-2.1
	c-5.7-4-11.1-8.5-16.9-13h-10.1c-0.4-1.1-0.7-1.9-0.9-2.7c0.5-0.6,0.9-1.4,1.3-1.4C431.2,1867.7,441.6,1867.7,452.1,1867.7
	L452.1,1867.7z"/>
<path class="st36" d="M454,1681.9v5.7c-4.3-2.7-8.6-5.3-12.8-8.1c-6-3.9-11.5-9-19.4-7.2c-0.2-1.4-0.2-2-0.3-2.6
	c0.4-0.4,0.8-1.2,1.2-1.2c10.5-0.1,20.9-0.1,31.4-0.1v3.8c-2.8,0-5.6,0-8.4,0c-2.9,0.1-5.8,0.2-9.5,0.3c2.7,1.8,4.2,3.2,6.1,4
	C446.1,1678.3,448.7,1683.3,454,1681.9L454,1681.9z"/>
<path class="st35" d="M454,1069.1v3.8h-16.9c1.3,2.2,3.1,2.9,4.6,4.1c1.8,1.3,3.4,2.9,2.7,5.5c-5.1-0.7-8.5-4.4-12.6-7.5
	c-3.6-1.2-8.6,2-12-2.7c1-2.4,2.8-3.2,5.5-3.2C434.9,1069.2,444.4,1069.2,454,1069.1L454,1069.1z"/>
<path class="st35" d="M454,1266.4v3.8h-18.7c4.5,2.6,7.4,4.1,10.2,6c1.9,1.2,3.4,2.9,2.7,5.5c-0.6,0-1.4,0.2-1.9,0
	c-5.5-3.7-11-7.4-17.5-11.8h-7.3v-3.5L454,1266.4L454,1266.4z"/>
<path class="st34" d="M454,2482.4c-0.6,0.6-1.3,1.3-1.9,1.9c-4.7-0.1-7.7-3.6-10.7-6.2c-5-4.6-9.8-8.2-17.1-7.3
	c-1.5,0.2-3.2-1.3-4.8-2c0.2-0.7,0.3-1,0.4-1.1c0.2-0.2,0.5-0.5,0.7-0.5c11.1,0,22.2,0,33.3,0v1.9h-16.3c1.6,2.5,2.2,4.3,3.5,5.2
	C445.3,2477.1,449.7,2479.6,454,2482.4L454,2482.4z"/>
<path class="st32" d="M454,2064.9v3.8c-5.1,0.1-10.2-0.1-14.9,0.1c0.6,2.3,1.1,4,1.5,5.6c-1,0-2.4,0.4-2.8-0.1
	c-4.7-5.6-10.9-6.3-17.7-5.6c-0.3-1.1-0.5-1.9-0.7-2.7c0.6-0.5,1-1.2,1.4-1.2C431.9,2064.9,443,2064.9,454,2064.9L454,2064.9z"/>
<path class="st35" d="M454,866.2v3.8h-17.6c1.8,2.4,3,4.1,4.2,5.7c-1.8-0.2-4.2,0.2-5.3-0.8c-4-3.7-8.2-6-13.7-4.8
	c-0.1-1.7-0.1-2.3-0.2-3.6C432.2,865.6,443.1,866.4,454,866.2L454,866.2z"/>
<path class="st34" d="M452.1,2269.8v3.8h-15.6c1,1.8,1.6,2.8,2.2,3.8h-4.8c-1-1.1-2.1-2.2-3.5-3.6h-10.1c-0.3-1.1-0.6-1.9-0.8-2.6
	c0.5-0.6,0.9-1.3,1.4-1.3C431.2,2269.8,441.6,2269.8,452.1,2269.8L452.1,2269.8z"/>
<path class="st35" d="M452.1,670.8v1.9h-17.5c1,1.8,1.6,2.8,2.2,3.8c-6.9-0.5-14.3-2.5-17.1-4.6c0.1-0.2,0.2-0.5,0.3-0.7
	c0.2-0.2,0.5-0.5,0.8-0.5C431.2,670.8,441.7,670.8,452.1,670.8z"/>
<path class="st35" d="M452.1,686.2v1.9c-4.4,1-5.5-4.3-9.4-4.8c-1.9-0.2-3.7-1.9-5.2-3.3c-0.7-0.7-0.5-2.3-0.7-3.4
	c1,0,2.2-0.4,2.8,0.1C443.8,679.7,447.9,683,452.1,686.2L452.1,686.2z"/>
<path class="st34" d="M450.2,2285.1c-5.3,0.9-8.2-2.9-11.5-5.9c-0.3-0.3,0-1.2,0-1.8C441.9,2278.3,447.4,2282,450.2,2285.1
	L450.2,2285.1z"/>
<path class="st35" d="M452.1,1084.5c0.4,0.7,1,1.4,1,2.1c0,0.6-0.7,1.2-1,1.7c-2.5-2-6.7-1.7-7.7-5.7
	C447.2,1082.3,449.8,1082.7,452.1,1084.5z"/>
<path class="st35" d="M454,881.5c-0.3,1.5,1,3.7-1.9,3.8c-1.2-0.6-2.4-1.7-3.7-1.8c-3-0.3-1.8-2.4-2.1-3.9c1.4,0.4,2.8,0.9,4.2,1.3
	C451.7,881.1,452.9,881.3,454,881.5L454,881.5z"/>
<path class="st32" d="M454,2080.2v3.8c-2.5-2-6.7-1.7-7.7-5.7C449.1,2078.1,451.7,2078.4,454,2080.2z"/>
<path class="st35" d="M446.3,879.6h-5.7v-3.8C443.6,875.4,445.6,876.5,446.3,879.6z"/>
<path class="st32" d="M446.3,2078.3c-3,0.3-5-0.8-5.7-3.8h5.7V2078.3z"/>
<path class="st35" d="M454,1281.7v3.8c-3,0.3-5-0.8-5.7-3.8H454z"/>
<path class="st34" d="M452.1,2285.1v1.9c-0.6-0.6-1.3-1.3-1.9-1.9H452.1z"/>
<path class="st37" d="M607.2,2329.2c-0.3,3.2-2.8,1.9-4.4,1.9c-20.1,0.1-40.2,0.1-60.2,0.1c-15.9,0-31.9,0-47.8-0.1
	c-1.5,0-4,1.4-4.4-1.9v-100.5c8-1.4,88.6-1.9,116.8-0.6V2329.2z M551.8,2325.3h49.3c1.2-28.4,0.8-82-0.6-89.7h-48.7V2325.3z
	 M545.6,2325.2v-89.8c-16.2,0-32.1,0-48,0c-0.3,0-0.6,0.1-0.8,0.3c-0.3,0.2-0.5,0.4-0.4,0.3v89.2L545.6,2325.2L545.6,2325.2z"/>
<path class="st38" d="M515.3,2775.4v-34.3h60.8v36.2h-37.3c-0.6,1.8-1,2.8-1.3,3.8C528.5,2781.1,522.2,2779.5,515.3,2775.4
	L515.3,2775.4z M556.4,2748.6c-2.2,2.2-4.5,4.4-6.6,6.5c-0.5,4.2-0.2,8.2,1.9,11.6c2.3,3.8,7.2,2.4,9.5,4.7
	c6.2-2.2,9.7-6.1,11.5-11.5c-2.7-2.6-0.9-7.4-4.7-9.4C564.4,2748.6,560.5,2748.2,556.4,2748.6L556.4,2748.6z M534.6,2750
	c-0.5-4.3-2.8-6-6.2-5.2c-2.2,0.5-4.6,2.1-3.1,5.2H534.6z"/>
<path class="st38" d="M515.3,2572.4v-34.3h60.8v36.2h-30.2c-1.3-0.7-2.6-1.4-4.1-2.2c-1.9,2.4-3.8,4.8-5.4,6.8
	c-6.2-1.5-11.1-1.9-15.2-4C519.3,2574.1,515.7,2576.4,515.3,2572.4L515.3,2572.4z M556.4,2545.6c-2.6,2.6-4.6,4.6-7.1,7.1
	c0.7,3.6,1.5,7.7,2.4,12.4c5.1,0.7,9.8,1.3,13.3,1.8c2.7-2.3,4.4-3.7,5.8-4.9v-11.7c-1.6-1.6-3.2-3.2-4.7-4.7L556.4,2545.6
	L556.4,2545.6z M534.3,2542.1H525v5.1h9.3V2542.1z"/>
<path class="st38" d="M515.3,2377v-34.3h60.8v34.3h-37.3c-0.6,1.7-0.9,2.8-1.3,3.8c-3.7,0-7.2,0.2-10.6-0.1c-2-0.2-3.9-1.2-5.8-1.8
	S517.2,2377.7,515.3,2377L515.3,2377z M557.8,2348.3c-3.5,3-5.9,5-7.9,6.8v9.7c3.2,3.3,6.1,6.5,12,6.6c2.7-1.9,6-4.3,8.7-6.2v-9
	c-2.8-3.3-4.9-5.6-6.7-7.8L557.8,2348.3L557.8,2348.3z M524.6,2346.6c0.3,1.7,0.5,2.6,0.6,3.2h9.5c-0.3-1.4-0.4-2.2-0.6-3.2H524.6z"
	/>
<path class="st37" d="M515.3,2572.4c0.4,4,4,1.7,5.9,2.6c4.2,2,9,2.5,15.2,4c1.6-2,3.5-4.4,5.4-6.8c1.5,0.8,2.8,1.5,4.1,2.2
	c-0.9,1.9-1.6,3.9-2.8,5.5c-1.1,1.5-2.6,2.7-3.6,3.7c-12.5,2.1-22.8-3.3-33.6-7.9c-0.1-0.8-0.2-1.7-0.2-2.6c0-0.6,0.1-1.2,0.2-2.1
	c0.8-0.2,1.7-0.6,2.5-0.4C510.7,2571,513,2571.7,515.3,2572.4L515.3,2572.4z"/>
<path class="st37" d="M515.3,2775.4c6.9,4.1,13.2,5.7,22.2,5.7c0.3-1,0.7-2.1,1.3-3.8h7.1c-0.7,2.2-1.3,4.5-2,7
	c-8.9,4.5-17.9,3.2-26.8-0.4c-2.4-1-4.9-1.9-7.3-2.8c-3.6-1.3-3.9-2.1-3.1-7.5C509.5,2774.2,512.4,2774.7,515.3,2775.4L515.3,2775.4
	z"/>
<path class="st37" d="M515.3,2377c1.9,0.6,3.9,1.3,5.8,1.9s3.8,1.7,5.8,1.8c3.4,0.3,6.9,0.1,10.6,0.1c0.3-1,0.7-2.1,1.3-3.8h5.2v4.8
	c-1.6,1.5-3.2,3.1-4.6,4.5c-13.1,2-24.5-2.6-35.4-8.1c0.9-1.6,1.7-3.2,2.7-5.3C509.5,2374.3,512.4,2375.7,515.3,2377L515.3,2377z"/>
<path class="st39" d="M609.1,927.4H490.4V827c8-1.5,89.3-1.9,118.7-0.7V927.4L609.1,927.4z M545.9,833.6c0-2.6-2-1.9-3.4-1.9
	c-12.1,0-24.1,0-36.2,0h-10.2c0,28.8,0,56.8,0.1,84.7c0,1.7-1.9,4.7,1.8,5.3h47.9L545.9,833.6L545.9,833.6z M601.5,831.7H552
	c-1.2,27.9-0.8,82.1,0.7,90c16.3,0,32.5,0,48.8,0c0.6-0.5,1.8-1,1.8-1.5c0.1-29,0.1-58,0-87C603.3,832.7,602.1,832.2,601.5,831.7
	L601.5,831.7z"/>
<path class="st39" d="M607,629v100.8H491.3c-1.4-7.7-1.8-72-0.6-100.8L607,629L607,629z M496.1,724.5c0.5,0.6,1,1.8,1.5,1.8
	c15.6,0.1,31.2,0.1,46.8,0c0.5,0,1-1.2,1.5-1.8v-90c-16.5,0-32.4,0-48.3,0c-0.3,0-0.6,0.2-0.8,0.3c-0.2,0.2-0.4,0.5-0.6,0.7V724.5
	L496.1,724.5z M601.5,724.5v-88.1c-0.5-0.6-1-1.8-1.5-1.8c-15.6-0.1-31.2-0.1-46.8,0c-0.5,0-1,1.2-1.5,1.8v88.1
	c0.5,0.6,1,1.8,1.5,1.8c15.6,0.1,31.2,0.1,46.8,0C600.5,726.3,601,725.1,601.5,724.5z"/>
<path class="st39" d="M609.1,525.3H490.4v-28.7c0-21.7,0-43.4,0-65c0-2.8-0.5-5.8,2.9-7.5h115.8V525.3L609.1,525.3z M551.7,519.6
	c0,2.6,2,1.9,3.4,1.9c13,0,26,0,39.1,0h9.2c0-29.5,0-58-0.1-86.6c0-1.7,1.9-4.6-1.8-5.3h-49.8L551.7,519.6L551.7,519.6z
	 M545.9,519.6c0.6-0.5,1.8-1,1.8-1.5c0.1-29,0.1-58,0-87c0-0.5-1.2-1-1.8-1.5h-49.4v91.9c15.9,0,31.4,0,47-0.1
	C544.3,521.4,545.1,520.2,545.9,519.6L545.9,519.6z"/>
<path class="st40" d="M515.3,571.3V537h60.8v36.2h-30.2c-3.3,0.2-6.7-0.9-9.5,2.5c-1,1.2-4.6,1.9-5.9,1.1c-2.6-1.6-6.2-0.6-7.7-2
	C520.5,572.7,516.5,574.9,515.3,571.3L515.3,571.3z M556.5,565.5h9.5c8.8-7.7,8.7-13.4,0-21.1h-9.6c-2.2,2.2-4.4,4.5-6.7,6.8v7.6
	C552,561,554.2,563.3,556.5,565.5L556.5,565.5z M534.3,541.3c-4.8-0.4-7.2,1.2-7.1,4.8h7.1V541.3z"/>
<path class="st40" d="M515.3,776.2v-34.3h60.8v36.2H544c-2.4,0.1-5.1-0.8-6.8,2c-1.4,2.4-3.7,1.8-5.9,1.8
	C528.6,781.9,519.3,778.6,515.3,776.2L515.3,776.2z M570.8,754c-6.2-5.6-12.2-6-19.6-1.7c-0.6,4-1.3,8.7-1.8,12.4
	c2.3,2.6,3.7,4.2,5,5.7h11.7c1.6-1.6,3.2-3.2,4.7-4.7V754L570.8,754z M525,750.7c5.1,0.4,8.1-1.2,9-4.8h-9V750.7z"/>
<path class="st39" d="M515.3,571.3c1.2,3.7,5.2,1.4,7.6,3.6c1.5,1.4,5,0.3,7.7,2c1.3,0.8,4.8,0.1,5.9-1.1c2.8-3.4,6.2-2.3,9.5-2.5
	c-0.2,1.2-0.1,2.7-0.7,3.5c-1.8,2.2-3.9,4.2-5.5,5.7c-12.7,2.1-23-3.3-33.8-7.9v-4.7c0.8-0.2,1.7-0.6,2.5-0.4
	C510.7,569.9,513,570.6,515.3,571.3z"/>
<path class="st39" d="M515.3,776.2c4,2.4,13.3,5.7,16.1,5.7c2.1,0,4.5,0.5,5.9-1.8c1.7-2.8,4.4-1.9,6.8-2c-0.4,5.8-2.5,9.2-7.4,9.4
	c-4.1,0.2-8.2,1.1-12.6-1.2c-5.5-3-12-4.2-18.1-6.2v-5.4c0.9-0.1,2.3-0.7,2.5-0.3C510.3,776.9,512.9,776.1,515.3,776.2L515.3,776.2z
	"/>
<path class="st41" d="M607.2,226.6v101.5H490.4V226.6H607.2z M601.5,234.2c-0.5-0.6-1-1.8-1.5-1.8c-15.6-0.1-31.2-0.1-46.8,0
	c-0.5,0-1,1.2-1.5,1.8v88.1c0,2.6,2,1.9,3.4,1.9c13,0,26,0,39.1,0h9.2c0-28.8,0-56.8-0.1-84.7C603.3,237.8,605.2,234.9,601.5,234.2
	L601.5,234.2z M545.9,234.2c0-2.6-2-1.9-3.4-1.9c-13.1-0.1-26.1-0.1-39.2,0c-2.4,0-4.8,0.2-6.9,0.3v91.6c15.9,0,31.4,0,47-0.1
	c0.8,0,1.7-1.2,2.5-1.8V234.2L545.9,234.2z"/>
<path class="st40" d="M515.3,375.9v-36.2h60.8v36.2h-37.3c-0.6,1.7-0.9,2.8-1.3,3.8c-3.7,0-7.2,0.2-10.6-0.1c-2-0.2-3.9-1.2-5.8-1.8
	C519.2,377.2,517.2,376.6,515.3,375.9L515.3,375.9z M560.2,371.3c4.2-2.8,7.6-5.1,11.4-7.8c-1-5.2-2-9.8-2.9-14.5
	c-4.6-0.9-8.4-1.6-11.3-2.1c-3.1,2.8-5.4,5-7.5,6.9v10.4C552.8,366.3,556.1,368.4,560.2,371.3L560.2,371.3z M525,349.1
	c2.9,0,5.7,0.1,8.4-0.1c0.5,0,0.8-1.9,1.3-3.4H525V349.1z"/>
<path class="st39" d="M515.3,375.9c1.9,0.6,3.9,1.3,5.8,1.9c1.9,0.6,3.8,1.7,5.8,1.8c3.4,0.3,6.9,0.1,10.6,0.1
	c0.3-1,0.7-2.1,1.3-3.8h7.1c-2.1,3.3-4.1,6.6-6,9.6c-3.7,0-6.5-0.1-9.4,0c-7.8,0.5-14.4-3.4-21.4-5.9c-3.4-1.2-4.7-3.9-2.5-7.9
	C509.6,373.2,512.4,374.5,515.3,375.9L515.3,375.9z"/>
<path class="st20" d="M490.4,496.6v9.6c-4.2,0.6-5.5-3-7.7-5.1C483.5,496.1,487,496.5,490.4,496.6z"/>
<path class="st42" d="M609.1,1327.7H490.4v-100.5c8-1.4,89.3-1.9,118.7-0.7V1327.7L609.1,1327.7z M551.8,1321.9h51.2
	c1.2-30.5,0.8-82-0.6-89.7h-50.6L551.8,1321.9L551.8,1321.9z M545.6,1321.7v-89.8c-15.6,0-30.9,0-46.1,0c-0.3,0-0.6,0.2-0.8,0.3
	c-0.2,0.2-0.4,0.5-0.3,0.3v89.2L545.6,1321.7L545.6,1321.7z"/>
<path class="st42" d="M609.1,1130.4H490.4v-100.5c8-1.4,89.7-1.9,118.7-0.7V1130.4z M498,1124.7h47.5v-90c-15.2,0-30.2,0-45.1,0.1
	c-0.8,0-1.6,1.2-2.5,1.8c-0.6,0.5-1.8,1-1.8,1.5c-0.1,28.3-0.1,56.7,0,85.1C496.2,1123.7,497.4,1124.2,498,1124.7L498,1124.7z
	 M601.5,1124.7c0.6-0.5,1.8-1,1.8-1.5c0.1-28.3,0.1-56.7,0-85.1c0-0.5-1.2-1-1.8-1.5c0-2.6-2-1.9-3.4-1.9c-14.6,0-29.2,0-42,0
	c-4.8,1.6-4.5,4.2-4.5,6.8c0,14,0,27.9,0,41.9v41.3L601.5,1124.7L601.5,1124.7z"/>
<path class="st38" d="M515.3,1373.6v-34.3H578v34.5c-1.5,0.5-3.5,1.5-5.4,1.6c-8.9,0.2-17.8,0.1-26.7,0.1c-2.5-1.6-5.4-1-8.5,1.8
	C529.7,1378.1,522.3,1376.7,515.3,1373.6z M560.9,1344.7c-1.4,0.9-2.3,1.6-3.4,2.1c-4.7,2.4-7.5,6.2-7.7,11.4
	c-0.1,3.8,5.3,8.8,9.3,9.7c3.8,0.8,9.6-2,11.7-5.4c2.8-4.6,2.4-9.1-0.3-12.9C567.2,1347.9,564.3,1346.4,560.9,1344.7L560.9,1344.7z
	 M534.7,1346.7c-0.3-1.7-0.5-2.6-0.7-3.7c-2.6,0.1-4.9,0.2-7.5,0.4c0.3,1.5,0.5,2.4,0.7,3.4H534.7z"/>
<path class="st40" d="M515.3,1176.4v-34.3h60.8v36.2h-30.2c-3.3,0.2-6.7-0.9-9.5,2.5c-1,1.2-4.6,1.9-5.9,1.1
	c-2.6-1.6-6.2-0.6-7.7-1.9C520.5,1177.8,516.5,1180.1,515.3,1176.4L515.3,1176.4z M556.4,1149.6c-2,2.2-4.2,4.5-6.3,6.7v7.9
	c2.3,2.3,4.3,4.3,6.4,6.4h9.5c8.5-7.1,9.1-13.2,0.1-21H556.4z M534.2,1145.6c-3.3,0.4-6.5-0.6-9.6,1c1.5,6.3,5.7,4.8,9.6,4.7V1145.6
	L534.2,1145.6z"/>
<path class="st37" d="M515.3,1373.6c7.1,3.1,14.4,4.4,22.1,3.7c3.1-2.8,6-3.4,8.5-1.8c-2.2,7.9-8.8,11.3-16.9,9
	c-4-1.2-8.1-1.9-12-3.3c-3.6-1.2-7-3.1-11.2-5c-1.1-2.1,0-4.3,2.5-6.1C510.6,1371.3,513,1372.5,515.3,1373.6L515.3,1373.6z"/>
<path class="st37" d="M515.3,1176.4c1.2,3.7,5.2,1.4,7.6,3.6c1.5,1.4,5,0.3,7.7,1.9c1.3,0.8,4.8,0.1,5.9-1.1
	c2.8-3.4,6.2-2.3,9.5-2.5c-0.2,1.2-0.1,2.7-0.7,3.5c-1.8,2.2-3.9,4.2-5.5,5.7c-12.7,2.1-23-3.3-33.8-7.9v-4.7
	c0.8-0.2,1.7-0.6,2.5-0.4C510.7,1175,513,1175.7,515.3,1176.4L515.3,1176.4z"/>
<path class="st42" d="M609.1,1727.9c-0.3,3.2-2.8,1.8-4.4,1.8c-19.4,0.1-38.9,0.1-58.3,0.1c-17.2,0-34.4,0-51.6-0.1
	c-1.5,0-4,1.3-4.4-1.8v-100.5c8-1.4,90.6-1.9,118.7-0.6L609.1,1727.9L609.1,1727.9z M551.7,1634.2v37.2c0,15.3,0.1,30.6,0,45.9
	c0,2.7,0.2,5,2.8,6.6h46.7v-89.7H551.7L551.7,1634.2z M545.6,1723.9V1634c-15.6,0-30.9,0-46.1,0c-0.3,0-0.6,0.2-0.8,0.3
	c-0.2,0.2-0.4,0.5-0.3,0.3v89.2L545.6,1723.9L545.6,1723.9z"/>
<path class="st42" d="M609.1,1532.6H490.4v-100.5c8-1.4,89.3-1.9,118.7-0.7V1532.6L609.1,1532.6z M551.8,1526.5h49.3
	c1.2-28.3,0.7-81.7-0.6-89.3h-48.7L551.8,1526.5L551.8,1526.5z M498.2,1526.5h47.4c1.1-26.5,0.7-81.7-0.6-89.4h-46.8L498.2,1526.5
	L498.2,1526.5z"/>
<path class="st38" d="M515.3,1578.5v-34.3h60.8v36.2h-30.2c-1.3-0.7-2.5-1.4-4.2-2.2c-1.5,1.4-3.1,2.8-4.7,4.1
	C525.8,1582.4,522,1581.7,515.3,1578.5L515.3,1578.5z M569.3,1570.8c0.8-5.2,1.4-9.7,1.8-12.7c-2.3-5.7-6.6-6.3-10.2-7.5
	c-1.6-0.5-3.9,0.3-5.5,1.2c-5.8,3.1-5.8,8.7-5.6,13.9c2.4,2.6,4.6,4.9,7.1,7.6C560.5,1572.6,564.4,1571.8,569.3,1570.8L569.3,1570.8
	z M525,1551.4h9.3v-3.2H525L525,1551.4L525,1551.4z"/>
<path class="st39" d="M515.3,1578.5c6.7,3.2,10.5,3.8,21.8,3.8c1.6-1.4,3.1-2.8,4.7-4.1c1.6,0.9,2.9,1.5,4.2,2.2
	c-1.5,4.4-4.1,7.8-10.1,9.6c-10.3,0-21.5-3.3-31.6-10.1c0.6-1.4,1.2-2.9,2-4.6c1.2,0.4,2.7,0.8,4.2,1.3
	C512,1577.2,513.7,1577.9,515.3,1578.5L515.3,1578.5z"/>
<path class="st30" d="M609.1,2124.3c-0.3,3.2-2.8,1.9-4.4,1.9c-19.4,0.1-38.9,0.1-58.3,0.1c-17.2,0-34.4,0-51.6-0.1
	c-1.5,0-4,1.4-4.4-1.9v-100.5c8-1.4,90.6-1.9,118.7-0.6L609.1,2124.3L609.1,2124.3z M552,2030.6v87.9c16.2,0,32.1,0,48,0
	c0.3,0,0.6-0.2,0.8-0.3c0.2-0.2,0.4-0.4,0.3-0.3v-87.3L552,2030.6L552,2030.6z M498.4,2030.6v87.9c15.6,0,30.9,0,46.1,0
	c0.3,0,0.6-0.2,0.8-0.4c0.2-0.2,0.4-0.5,0.3-0.3v-87.2L498.4,2030.6L498.4,2030.6z"/>
<path class="st38" d="M515.3,2170.2V2136h60.8v36.2h-37.3c-0.6,1.8-1,2.8-1.3,3.8C528.5,2176,522.2,2174.3,515.3,2170.2
	L515.3,2170.2z M572.8,2154.2c-2.2-9.5-8.4-11.7-15.9-10.7c-2.7,2.5-5,4.6-6.6,6c-1.5,5-0.3,8.8,1.5,12.4c2,3.9,6.9,1.8,9.2,4.7
	C567.1,2164.3,571.1,2160.6,572.8,2154.2z M534.3,2141.8H525v3.2h9.2V2141.8z"/>
<path class="st37" d="M515.3,2170.2c7,4.1,13.2,5.7,22.2,5.7c0.3-1,0.7-2.1,1.3-3.8h7.1c-0.7,2.2-1.3,4.5-2.1,7.1
	c-7.3,3.1-14.7,4.1-22.5,0.6c-3.7-1.6-7.7-2.8-11.6-3.8c-4.1-1-4.2-3.8-3.9-8C509.2,2168.9,512.2,2169.5,515.3,2170.2L515.3,2170.2z
	"/>
<path class="st37" d="M609.1,1927c-0.3,3.2-2.8,1.8-4.4,1.8c-19.4,0.1-38.9,0.1-58.3,0.1c-17.2,0-34.4,0-51.6-0.1
	c-1.5,0-4,1.3-4.4-1.8v-98.6c8-1.4,91-1.8,118.7-0.6L609.1,1927L609.1,1927z M552,1833.4v89.8c16.2,0,32.1,0,48,0
	c0.3,0,0.6-0.1,0.8-0.3c0.3-0.2,0.5-0.4,0.3-0.3v-89.2L552,1833.4L552,1833.4z M545.6,1923v-89.8c-16.2,0-32.1,0-48,0
	c-0.3,0-0.6,0.2-0.8,0.3c-0.2,0.2-0.4,0.5-0.3,0.3v89.2L545.6,1923L545.6,1923z"/>
<path class="st38" d="M515.3,1974.9v-34.3h60.8v36.2h-30.2c-2.2-3.4-5-1.8-7.3-1.5c-0.4,1.6-0.6,2.4-0.8,3.2
	C529.7,1979.5,522.4,1978,515.3,1974.9L515.3,1974.9z M562.8,1969.2c3.5-3,5.9-5,7.9-6.8v-9.7c-3.2-3.3-6.1-6.5-12-6.6
	c-2.7,1.9-6,4.3-8.7,6.2v9c2.8,3.3,4.9,5.7,6.7,7.8L562.8,1969.2L562.8,1969.2z M524.6,1944.4c0.3,1.7,0.5,2.6,0.6,3.2h9.5
	c-0.3-1.4-0.4-2.2-0.6-3.2H524.6z"/>
<path class="st37" d="M515.3,1974.9c7.1,3.1,14.5,4.6,22.5,3.6c0.2-0.8,0.4-1.6,0.8-3.2c2.4-0.3,5.1-1.9,7.3,1.5
	c-2.3,2.7-1.7,7.6-7.5,7.9c-3.7,0.2-7.2,3.5-10.8-0.3c-7.4,0.2-13.7-3.6-20.4-5.8c-1.1-0.4-2-1.4-3.3-2.3c0.8-1.7,1.7-3.4,2.7-5.6
	C509.6,1972.1,512.4,1973.5,515.3,1974.9L515.3,1974.9z"/>
<path class="st40" d="M515.3,973.4v-34.3h60.8v36.2h-30.2c-2.5-1.6-5.4-1-8.5,1.8C529.7,977.6,522.2,977.5,515.3,973.4L515.3,973.4z
	 M549.9,960.4c2.4,2.7,4.5,5.1,6.2,6.9c4.7,1,8.5,0,12.1-1.9c3.8-2,1.8-6.9,4.7-9.2c-2.2-6-6-10-12-11.6
	C553.4,948.1,549.8,953.4,549.9,960.4L549.9,960.4z M525,946.6c2.9,0,5.7,0.1,8.4-0.1c0.5,0,0.8-1.9,1.3-3.4H525V946.6z"/>
<path class="st39" d="M515.3,973.4c6.9,4.1,14.5,4.2,22.1,3.7c3.1-2.8,6-3.4,8.5-1.8c-5.5,10.2-8.8,11.3-20.3,7.7
	c-6.5-2.1-13-3.9-19.6-5.8V972c0.8-0.2,1.7-0.6,2.5-0.4C510.8,972,513,972.7,515.3,973.4L515.3,973.4z"/>
<path class="st38" d="M513.4,1773.8c2.6,0,1.9-2,1.9-3.4c0-9.5,0-19,0-28.8h61.3v34c-5.1,0.3-10.4,0.1-15.6,0.1c-5,0-10,0-15.1,0
	h-5.3c-0.9,1.2-2.1,2.6-3.1,3.8c-3,0-5.5,0-8.1,0C527.2,1779.5,516.4,1775.7,513.4,1773.8L513.4,1773.8z M573.4,1757
	c-2.8-2.6-2.2-7.1-7.3-8.5c-2.3-0.6-4.6-1.7-6.9-1.4c-4.8,0.8-9,5.8-9.4,10.6c-0.4,5.1,3.8,10.9,8.8,12.3
	C562.9,1771.2,568.5,1766.6,573.4,1757L573.4,1757z M534.3,1745.4h-7.3v3.2h7.3V1745.4z"/>
<path class="st37" d="M513.4,1773.8c3,1.8,13.8,5.7,16.1,5.7c2.5,0,5.1,0,8.1,0c1-1.2,2.2-2.7,3.1-3.8h5.3c-0.7,2.3-1.3,4.5-2,6.8
	c-6.1,4.5-13.7,4.1-19.6,2.3c-6.3-1.9-14.2-2.3-18.9-8.6c0.9-1.7,1.5-3,2.2-4.3C509.5,1772.6,511.5,1773.2,513.4,1773.8
	L513.4,1773.8z"/>
<path class="st43" d="M556.4,2748.6c4-0.4,7.9-0.1,11.6,1.9c3.8,2.1,2.1,6.8,4.7,9.4c-1.8,5.4-5.3,9.4-11.5,11.5
	c-2.2-2.3-7.1-0.9-9.5-4.7c-2.2-3.5-2.4-7.5-1.9-11.6C552,2753,554.2,2750.8,556.4,2748.6L556.4,2748.6z"/>
<path class="st44" d="M534.6,2750h-9.3c-1.5-3.1,0.9-4.7,3.1-5.2C531.8,2744,534.1,2745.8,534.6,2750z"/>
<path class="st43" d="M556.4,2545.6c3.3,0,6.4,0,9.6,0c1.6,1.6,3.1,3.1,4.7,4.7v11.7c-1.4,1.2-3.1,2.6-5.8,4.9
	c-3.5-0.5-8.2-1.1-13.3-1.8c-0.9-4.7-1.7-8.8-2.4-12.4C551.9,2550.1,553.9,2548.1,556.4,2545.6L556.4,2545.6z"/>
<path class="st44" d="M534.3,2542.1v5.1H525v-5.1H534.3z"/>
<path class="st43" d="M557.8,2348.3h6.1c1.9,2.2,3.9,4.6,6.7,7.8v9c-2.7,1.9-6.1,4.3-8.7,6.2c-5.9-0.1-8.8-3.4-12-6.6v-9.7
	C551.9,2353.4,554.3,2351.3,557.8,2348.3L557.8,2348.3z"/>
<path class="st44" d="M524.6,2346.6h9.5c0.2,1,0.4,1.8,0.6,3.2h-9.5C525.1,2349.1,524.9,2348.3,524.6,2346.6z"/>
<path class="st21" d="M545.9,833.6H498v88.1c-3.7-0.7-1.8-3.6-1.8-5.3c-0.1-27.9-0.1-55.9-0.1-84.7h10.2c12.1,0,24.1,0,36.2,0
	C543.9,831.7,545.9,831,545.9,833.6L545.9,833.6z"/>
<path class="st45" d="M601.5,921.7v-90c0.6,0.5,1.8,1,1.8,1.5c0.1,29,0.1,58,0,87C603.3,920.7,602.1,921.2,601.5,921.7L601.5,921.7z
	"/>
<path class="st21" d="M496.1,724.5v-89c0.2-0.2,0.4-0.5,0.6-0.7c0.2-0.2,0.5-0.3,0.8-0.3c15.9,0,31.8,0,48.3,0v90H544v-88.1
	c-15.2,0-29.9,0-44.5,0c-0.3,0-0.6,0.2-0.8,0.3c-0.2,0.2-0.4,0.5-0.6,0.7v87.1L496.1,724.5L496.1,724.5z"/>
<path class="st28" d="M496.1,724.5h49.8c-0.5,0.6-1,1.8-1.5,1.8c-15.6,0.1-31.2,0.1-46.8,0C497.1,726.3,496.6,725.1,496.1,724.5z"/>
<path class="st35" d="M551.7,724.5h49.8c-0.5,0.6-1,1.8-1.5,1.8c-15.6,0.1-31.2,0.1-46.8,0C552.7,726.3,552.2,725.1,551.7,724.5
	L551.7,724.5z"/>
<path class="st35" d="M601.5,636.4h-49.8c0.5-0.6,1-1.8,1.5-1.8c15.6-0.1,31.2-0.1,46.8,0C600.5,634.5,601,635.7,601.5,636.4
	L601.5,636.4z"/>
<path class="st35" d="M545.9,519.6c-0.8,0.6-1.6,1.8-2.5,1.8c-15.5,0.1-31.1,0.1-47,0.1v-91.9h49.4v1.9h-47.5
	c-1.2,27.7-0.8,80.2,0.7,88.1L545.9,519.6L545.9,519.6z"/>
<path class="st35" d="M601.5,429.6c3.7,0.7,1.8,3.6,1.8,5.3c0.1,28.6,0.1,57.1,0.1,86.6h-9.2c-13,0-26,0-39.1,0
	c-1.4,0-3.4,0.7-3.4-1.9h49.8L601.5,429.6L601.5,429.6z"/>
<path class="st21" d="M553.6,519.6h-1.9v-90h49.8v1.9h-47.9L553.6,519.6L553.6,519.6z"/>
<path class="st45" d="M545.9,431.5v-1.9c0.6,0.5,1.8,1,1.8,1.5c0.1,29,0.1,58,0,87c0,0.5-1.2,1-1.8,1.5V431.5z"/>
<path class="st45" d="M556.5,565.5c-2.3-2.2-4.5-4.5-6.8-6.7v-7.6c2.3-2.3,4.5-4.5,6.7-6.8h9.6c8.7,7.6,8.8,13.4,0,21.1L556.5,565.5
	L556.5,565.5z"/>
<path class="st29" d="M534.3,541.3v4.8h-7.1C527.1,542.5,529.5,540.9,534.3,541.3z"/>
<path class="st45" d="M570.8,754v11.6c-1.6,1.6-3.1,3.1-4.7,4.7h-11.7c-1.3-1.4-2.7-3.1-5-5.7c0.5-3.7,1.2-8.3,1.8-12.4
	C558.6,748,564.7,748.4,570.8,754L570.8,754z"/>
<path class="st44" d="M525,750.7v-4.8h9C533.2,749.4,530.2,751,525,750.7z"/>
<path class="st20" d="M545.9,234.2H499c-1.4,7.9-1.8,60.4-0.7,88.1c15.8,0,31.7,0,47.5,0c-0.8,0.6-1.6,1.8-2.5,1.8
	c-15.6,0.1-31.1,0.1-47,0.1v-91.6c2-0.1,4.5-0.3,6.9-0.3c13.1,0,26.1,0,39.2,0C543.9,232.3,545.9,231.6,545.9,234.2L545.9,234.2z"/>
<path class="st31" d="M551.7,322.3h49.8v-88.1c3.7,0.7,1.8,3.6,1.8,5.3c0.1,27.9,0.1,55.9,0.1,84.7h-9.2c-13,0-26,0-39.1,0
	C553.7,324.2,551.7,324.9,551.7,322.3L551.7,322.3z"/>
<path class="st31" d="M601.5,234.2h-49.8c0.5-0.6,1-1.8,1.5-1.8c15.6-0.1,31.2-0.1,46.8,0C600.5,232.4,601,233.6,601.5,234.2
	L601.5,234.2z"/>
<path class="st31" d="M560.2,371.3c-4.2-2.8-7.4-5-10.4-7v-10.4c2.1-1.9,4.4-4.1,7.5-6.9c2.9,0.5,6.8,1.3,11.3,2.1
	c0.9,4.6,1.9,9.3,2.9,14.5C567.8,366.1,564.4,368.5,560.2,371.3L560.2,371.3z"/>
<path class="st29" d="M525,349.1v-3.5h9.8c-0.6,1.5-0.9,3.3-1.3,3.4C530.7,349.3,527.9,349.1,525,349.1L525,349.1z"/>
<path class="st31" d="M601.5,1124.7v-88.1c0.6,0.5,1.8,1,1.8,1.5c0.1,28.3,0.1,56.7,0,85.1C603.3,1123.7,602.1,1124.2,601.5,1124.7
	L601.5,1124.7z"/>
<path class="st31" d="M498,1036.6v88.1c-0.6-0.5-1.8-1-1.8-1.5c-0.1-28.3-0.1-56.7,0-85.1C496.2,1037.6,497.4,1037.1,498,1036.6
	L498,1036.6z"/>
<path class="st41" d="M560.9,1344.7c3.4,1.7,6.3,3.2,9.6,4.9c2.7,3.8,3.1,8.3,0.3,12.9c-2.1,3.5-7.9,6.2-11.7,5.4
	c-4-0.9-9.4-6-9.3-9.7c0.1-5.2,3-9,7.7-11.4C558.6,1346.3,559.5,1345.5,560.9,1344.7L560.9,1344.7z"/>
<path class="st44" d="M534.7,1346.7h-7.5c-0.2-1-0.4-1.8-0.7-3.4c2.6-0.1,4.9-0.2,7.5-0.4C534.2,1344.1,534.4,1345,534.7,1346.7
	L534.7,1346.7z"/>
<path class="st41" d="M556.4,1149.6h9.7c8.9,7.8,8.4,13.9-0.1,21h-9.5c-2-2.1-4.1-4.1-6.4-6.4v-7.9
	C552.2,1154.1,554.3,1151.8,556.4,1149.6z"/>
<path class="st44" d="M534.2,1145.6v5.7c-3.9,0.1-8,1.6-9.6-4.7C527.7,1145,530.9,1146.1,534.2,1145.6L534.2,1145.6z"/>
<path class="st41" d="M569.3,1570.8c-4.9,1-8.8,1.8-12.4,2.5c-2.5-2.7-4.7-5.1-7.1-7.6c-0.3-5.2-0.3-10.7,5.6-13.9
	c1.6-0.9,4-1.7,5.5-1.2c3.7,1.2,7.9,1.8,10.2,7.5C570.7,1561.1,570,1565.6,569.3,1570.8L569.3,1570.8z"/>
<path class="st44" d="M525,1551.4v-3.2h9.3v3.2H525L525,1551.4z"/>
<path class="st43" d="M572.8,2154.2c-1.8,6.4-5.8,10.1-11.7,12.3c-2.3-2.9-7.2-0.8-9.2-4.7c-1.8-3.6-3-7.4-1.5-12.4
	c1.5-1.4,3.8-3.5,6.6-6C564.5,2142.5,570.7,2144.7,572.8,2154.2z"/>
<path class="st44" d="M534.3,2141.8v3.2H525v-3.2H534.3z"/>
<path class="st43" d="M562.8,1969.2h-6.1c-1.9-2.2-3.9-4.6-6.7-7.8v-9c2.7-1.9,6.1-4.3,8.7-6.2c5.9,0.1,8.8,3.3,12,6.6v9.7
	C568.6,1964.1,566.3,1966.2,562.8,1969.2L562.8,1969.2z"/>
<path class="st44" d="M524.6,1944.4h9.5c0.2,1,0.4,1.8,0.6,3.2h-9.5C525.1,1947,524.9,1946.1,524.6,1944.4z"/>
<path class="st45" d="M549.9,960.4c-0.1-7,3.5-12.3,11-15.8c6,1.6,9.7,5.6,12,11.6c-2.9,2.2-0.8,7.2-4.7,9.2
	c-3.6,1.8-7.3,2.9-12.1,1.9C554.4,965.5,552.3,963.2,549.9,960.4L549.9,960.4z"/>
<path class="st44" d="M525,946.6v-3.5h9.8c-0.6,1.5-0.9,3.3-1.3,3.4C530.7,946.7,527.9,946.6,525,946.6L525,946.6z"/>
<path class="st41" d="M573.4,1757c-4.9,9.6-10.5,14.2-14.8,13c-5-1.4-9.1-7.2-8.8-12.3c0.3-4.8,4.5-9.9,9.4-10.6
	c2.3-0.4,4.7,0.8,6.9,1.4C571.2,1749.9,570.6,1754.4,573.4,1757L573.4,1757z"/>
<path class="st44" d="M534.3,1745.4v3.2h-7.3v-3.2H534.3z"/>
</svg>
