<?xml version="1.0" encoding="utf-8"?>
<!-- Generator: Adobe Illustrator 28.1.0, SVG Export Plug-In . SVG Version: 6.00 Build 0)  -->
<svg version="1.1" id="Layer_1" xmlns="http://www.w3.org/2000/svg" xmlns:xlink="http://www.w3.org/1999/xlink" x="0px" y="0px"
	 viewBox="0 0 481 184" style="enable-background:new 0 0 481 184;" xml:space="preserve">
<style type="text/css">
	.st0{fill:none;stroke:#010101;stroke-width:10;stroke-miterlimit:10;}
	.st1{fill:#010101;}
	.st2{fill:none;stroke:#47C7EA;stroke-miterlimit:10;}
	.st3{fill:#479AD5;}
</style>
<line class="st0" x1="482.8" y1="54.1" x2="320.6" y2="52.9"/>
<line class="st0" x1="483.1" y1="122.7" x2="321" y2="121.5"/>
<rect x="-1.2" y="0.1" class="st1" width="364" height="184.1"/>
<image style="overflow:visible;" width="424" height="249" xlink:href="276C9F5A.png"  transform="matrix(1 0 0 1 -31.1354 -32.1997)">
</image>
<path class="st2" d="M17.9,178.3h325.8c5.9,0,10.7-4.8,10.7-10.7V16.6c0-5.9-4.8-10.7-10.7-10.7H17.9C12,5.9,7.2,10.7,7.2,16.6
	v150.9C7.2,173.5,12,178.3,17.9,178.3z"/>
<image style="overflow:visible;" width="392" height="154" xlink:href="276C9F5E.png"  transform="matrix(1 0 0 1 -15.1354 14.8003)">
</image>
<g>
	<path class="st3" d="M21,66.7c0.2-0.5,0.3-1,0.5-1.6c0.5-1.8,1.3-3.4,2.4-4.8c1.8-2.4,4.1-4,7-4.8c3.2-0.8,6.2-0.4,9.2,0.9
		c0.5,0.2,1.1,0.4,1.7,0.4c6.5,0,13,0,19.4,0c3.2,0,6.4,0,9.7,0c0.6,0,0.9-0.2,1.2-0.7c0.8-1.6,2-2.8,3.7-3.5c1.8-0.8,3.7-1.1,5.7-1
		c1.3,0,2.5,0,3.8,0.1c1.4,0.2,2.7,0.5,4,0.8c3.5,0.8,6.9,1.9,10.2,3.2c3.1,1.3,6.1,2.9,9,4.7c2.8,1.8,5.5,3.9,8,6.2
		c2,1.9,3.7,4,4.6,6.7c1,2.8,0.7,5.5-1.3,7.8c-1.1,1.2-2.4,2-3.9,2.5c-0.2,0.1-0.5,0.2-0.8,0.3c2,1.8,3.9,3.7,5.3,6.1
		c0.5-0.7,1-1.4,1.5-2c0.9-1.3,1.8-2.6,2.9-3.7c1.9-2,5.3-2,7.3-0.1c1.9,1.7,1.9,4.6,0.3,6.7c-2,2.6-4.1,5.1-6.1,7.7
		c-0.5,0.7-0.8,1.5-0.8,2.3c0,1.9,0,3.7,0,5.6c0,1.3-0.3,2.6-1.2,3.6c-0.7,0.7-1.5,1.2-2.4,1.4c-1.4,0.3-2.8,0.3-4.1-0.4
		c-1.3-0.7-1.9-1.8-2.2-3.1c-0.4-1.9-0.1-3.9-0.2-5.8c0-0.8-0.2-1.6-0.3-2.4c-0.2-1-0.8-1.6-1.4-2.4c-0.9-1.2-1.8-2.4-2.8-3.6
		c-0.6-0.7-1.2-1.4-1.8-2.1c0.1,0.6,0.3,1.2,0.4,1.9c0.3,1.7,0.4,3.5,0.3,5.2c-0.1,2.1-0.7,4-1.7,5.8c-1.2,2.2-2.9,3.9-5.1,5.1
		c-1.5,0.9-3.2,1.5-4.9,1.7c-1.6,0.2-3.3,0.2-4.9,0.2c-1.7,0-3.5,0.1-5.2,0c-2.1-0.2-3.6-1.2-4.1-3.8c-0.1-0.5-0.1-1.1-0.1-1.7
		c0-6,0-11.9,0-17.9c0-1.3,0.2-2.5,0.8-3.5c0.6-1,1.6-1.5,2.7-1.7c0.6-0.1,1.2-0.2,1.9-0.2c2,0,4.1,0,6.1,0c2.7,0.1,5.4,0.5,7.9,1.8
		c1.5,0.8,2.8,1.8,3.8,3.2c0,0.1,0.1,0.1,0.3,0.3c-0.1-1.7,0.6-2.8,1.6-3.9c-0.8-0.2-1.6-0.4-2.4-0.5c-1.6-0.3-3.2-0.7-4.9-1
		c-0.8-0.2-1.7-0.3-2.5-0.5c-2-0.4-2.9-2.3-2.1-4.2c0.3-0.8,0.8-1.4,1.4-1.9c0.3-0.2,0.7-0.4,1.1-0.4c1.7-0.3,3.5-0.4,5.2-0.1
		c1.9,0.3,3.7,0.6,5.6,0.8c1.1,0.1,2.2,0,3.3-0.1c0-0.1,0.1-0.1,0.1-0.2c-0.3-0.5-0.7-1.1-1.1-1.6c-1.1-1.4-2.5-2.5-3.9-3.6
		c-2.5-2.1-5.2-3.9-8-5.4c-1.8-0.9-3.6-1.8-5.4-2.6c-2.6-1-5.3-1.9-8.1-2.4c-1.2-0.2-2.4-0.5-3.6-0.7c-1.1-0.2-2.2-0.4-3.4,0
		c-0.1,0-0.2,0.1-0.3,0.1c0.4,1.1,1,2,1.9,2.8c2.4,2,4.7,3.9,7,5.9c1.2,1,1.5,2.4,1.3,3.9c-0.3,1.5-1.1,2.5-2.6,3
		c-1.3,0.4-2.4,0.1-3.5-0.6c-1.3-0.8-2.6-1.6-3.8-2.5c-1-0.7-1.9-1.5-2.8-2.4c-0.9-0.9-1.8-1.8-2.6-2.8c-0.5-0.6-1-1.3-1.5-2
		c-0.5-0.7-1.1-1-1.9-1c-2.6,0-5.2,0-7.8,0c-3.9,0-7.8,0-11.7,0c-1.5,0-2.9,0-4.5,0c1.3,5.2,0.6,9.9-3,13.9c-3.6,4-8.1,5-13.3,4.2
		c0,0.2,0,0.3,0,0.5c0,4.4,0,8.8,0,13.1c0,0.4,0.1,0.6,0.4,0.8c2.1,1.4,4.2,2.9,6.3,4.3c0.7,0.5,1.2,0.5,1.8-0.2
		c1.1-1.1,2.3-2.1,3.4-3.2c0.8-0.7,1.6-1.5,2.5-2.1c1-0.6,2.2-0.3,3.1,0.5c0.9,0.8,1.8,1.7,2.8,2.4c1.4,1.1,1.7,0.9,3.2,0
		c1.7-1.1,3.4-2.2,5.1-3.3c0.8-0.5,1.7-0.6,2.7-0.5c1.5,0.3,2,1.4,1.7,2.8c-0.3,1.6-1,3-1.5,4.6c-1.1,2.9-2.2,5.8-3.3,8.8
		c-0.3,0.7-0.5,1.4-1.2,1.8c-1.1,0.8-2.1,0.4-3.1-0.1c-1.8-1-3.5-2-5.3-3c-0.9-0.5-1.8-1.1-2.7-1.6c-0.6-0.3-1.1-0.2-1.6,0.2
		c-2.7,1.9-5,4.2-8,5.6c-1.3,0.6-2.7,1.1-4.2,1.1c-0.5,0-1.1,0-1.7,0c0.2,0.8,0.3,1.6,0.5,2.2c1.6,4.1,4.5,6.8,8.7,8
		c1.2,0.3,2.5,0.4,3.7,0.4c8,0,16.1,0,24.1,0c3.5,0,7,0.1,10.5,0c2.5-0.1,4.8-1,6.9-2.5c1.7-1.2,2.9-2.9,4-4.6
		c1-1.5,2.5-2.2,4.3-2.3c1.1,0,1.8,0.7,2.3,1.6c0.8,1.3,0.6,2.5-0.1,3.7c-1.2,2.3-2.6,4.4-4.5,6.1c-1.8,1.7-3.9,3.1-6.3,4
		c-1.5,0.5-3.1,0.9-4.7,1.3c-0.3,0.1-0.5,0-0.8,0c-12.6,0-25.2,0-37.9,0c-2.2,0-4.4-0.7-6.4-1.6c-6.7-3.1-10.6-8.4-11.7-15.8
		c-0.1-0.9-0.2-1.9-0.2-2.8c0-10.4,0-20.8,0-31.2c0-1.5,0.1-2.9-0.3-4.3c-0.2-0.8-0.7-1.5-1-2.2c-0.2-0.5-0.5-1-0.7-1.6
		c-0.2-0.8-0.4-1.5-0.6-2.3C21,69.3,21,68,21,66.7z M77.1,58.4c1.2-0.2,2.3-0.5,3.5-0.7c0.5-0.1,1-0.1,1.5-0.1
		c1.7,0.2,3.4,0.5,5.1,0.8c9.2,1.9,17.3,6.1,24.4,12.4c2,1.7,3.2,3.9,4.8,6.1c-1.3,0.3-2.5,0.7-3.8,0.8c-2.1,0.3-4.1-0.1-6.1-0.5
		c-2.2-0.4-4.3-0.6-6.5-0.2c-0.8,0.1-1.6,1-1.7,1.8c-0.1,0.8,0.4,1.2,1.4,1.4c2,0.4,4.1,0.8,6.1,1.2c2.2,0.4,4.2,1.1,6.5,0.9
		c1.5-0.2,3-0.5,4.4-1.2c2.5-1.4,3.6-3.8,2.9-6.7c-0.6-2.5-2-4.4-3.8-6.1c-6.6-6.3-14.2-10.7-22.9-13.3c-3.1-0.9-6.1-1.8-9.3-1.9
		c-1.5,0-3.1-0.1-4.6,0.1c-2.3,0.3-4.2,1.3-5.4,3.5c-0.6,1.1-1.5,1.6-2.6,1.6c-3.3,0-6.5,0-9.8,0c-6.4,0-12.7,0-19.1,0
		c-1,0-1.9-0.2-2.8-0.6c-1.8-0.8-3.6-1.2-5.6-1.1c-7.2,0.2-11.1,7-11,11.7c0,1.4,0.3,2.7,0.6,4.1c0.1,0.3,0.2,0.6,0.4,0.8
		c0.7,0.9,1.2,2,1.4,3.1c0.2,1.5,0.3,3.1,0.3,4.6c0,10.2,0,20.5,0,30.7c0,0.8,0,1.6,0.1,2.4c0.8,6.7,4.2,11.7,10.2,14.8
		c2.2,1.1,4.5,1.8,7,1.8c12.2,0,24.4,0,36.6,0c0.5,0,1.1,0,1.6-0.1c4.1-0.7,7.7-2.4,10.6-5.6c1.4-1.6,2.5-3.3,3.5-5.2
		c0.3-0.7,0.1-1.3-0.3-1.9c-0.4-0.6-1-0.4-1.5-0.3c-1,0.3-1.8,1-2.4,2c-2.9,4.7-7.1,7.1-12.5,7.3c-2.1,0.1-4.3,0-6.4,0
		c-9,0-17.9,0-26.9,0c-1.2,0-2.3-0.1-3.5-0.2c-5.5-0.6-10.7-5.5-11.7-11c-0.2-1-0.2-2.1-0.2-3.1c0.3,0,0.5,0,0.6,0.1
		c2.7,0.6,5.3,0.1,7.6-1.4c2.1-1.4,4.2-3,6.2-4.5c1.5-1.2,2.6-1.3,4.2-0.3c2.5,1.5,5.1,3,7.7,4.4c0.9,0.5,1.2,0.4,1.6-0.6
		c1.1-3,2.3-6.1,3.4-9.2c0.5-1.3,0.9-2.5,1.3-3.8c0.3-0.8,0-1.2-0.8-1.1c-0.2,0-0.4,0.1-0.6,0.2C60,97,59.3,97.5,58.5,98
		c-1.4,0.8-2.7,1.7-4.1,2.5c-1.1,0.6-2.3,0.6-3.4-0.1c-0.5-0.3-1-0.6-1.4-1c-0.8-0.6-1.5-1.3-2.2-2c-0.6-0.5-0.9-0.5-1.5-0.1
		c-0.1,0.1-0.3,0.2-0.4,0.3c-1.6,1.5-3.2,3-4.8,4.4c-1.3,1.2-2.6,1.3-4.1,0.3c-2.1-1.4-4.2-2.9-6.3-4.3c-0.9-0.6-1.2-1.3-1.2-2.4
		c0-5.1,0-10.2,0-15.3c0-0.2,0-0.3,0-0.6c0.2,0,0.4,0.1,0.5,0.1c1.9,0.5,3.8,0.8,5.8,0.6c2.8-0.3,5.2-1.4,7.2-3.5
		c3-3.2,3.9-7,3.1-11.2c-0.2-1.1-0.6-2.1-0.9-3.2c0.6-0.1,1.2-0.3,1.8-0.3c1.8,0,3.7-0.1,5.5-0.1c3.7,0,7.4,0,11.1,0
		c2.6,0,5.3,0,7.9,0c1.3,0,2.4,0.6,3.1,1.6c2.2,3.1,4.9,5.8,8,7.8c0.9,0.6,1.9,1.2,2.9,1.7c1.3,0.5,2.5-0.1,2.8-1.4
		c0.2-0.9,0-1.7-0.7-2.4c-0.3-0.3-0.6-0.5-0.9-0.7c-1.8-1.5-3.6-2.9-5.4-4.5c-0.9-0.8-1.8-1.6-2.4-2.6
		C78.1,60.9,77.7,59.7,77.1,58.4z M91.8,109.8c0,0,0,0.1,0,0.1c2.1-0.1,4.2-0.1,6.3-0.5c4.6-0.7,7.7-3.4,9.3-7.9
		c0.9-2.6,0.8-5.2,0.3-7.9c-0.5-2.5-1.6-4.7-3.6-6.3c-2.1-1.7-4.6-2.5-7.2-2.7c-2.6-0.2-5.2-0.2-7.9-0.2c-0.4,0-0.8,0-1.3,0.1
		c-1.2,0.2-1.9,0.8-2.2,2c-0.1,0.6-0.2,1.2-0.2,1.8c0,5.8,0,11.7,0,17.5c0,0.3,0,0.6,0,0.8c0.1,2,1.1,3,3.1,3.1
		C89.6,109.8,90.7,109.8,91.8,109.8z M120.4,93c-0.4-0.6-0.9-1.1-1.2-1.7c-1.3-2-2.9-3.8-4.7-5.5c-1-0.9-1.9-1.4-3.2-1.1
		c-0.2,0-0.4,0-0.6,0.2c-0.5,0.4-0.9,0.8-1.3,1.3c-0.6,0.7-0.8,1.6-0.3,2.4c0.3,0.6,0.7,1.3,1.2,1.8c1.6,2.1,3.3,4.2,5,6.2
		c1.1,1.4,1.7,2.9,1.7,4.7c0,1.8,0.1,3.7,0.1,5.5c0,1,0.3,1.9,1.2,2.5c1.3,0.8,2.6,0.8,3.9,0.1c1.2-0.6,1.5-1.7,1.5-3
		c0-1.6,0-3.1,0-4.7c0-1.9,0.4-3.6,1.7-5.1c0.8-0.9,1.5-1.9,2.3-2.9c1.1-1.4,2.2-2.8,3.3-4.2c1.5-2,0.6-4.4-1.8-5
		c-1.7-0.4-3,0.3-4,1.7c-0.8,1-1.5,2.1-2.2,3.1C122.1,90.5,121.3,91.7,120.4,93z"/>
	<path class="st3" d="M340.5,88.1c-0.1,0.1-0.2,0.2-0.2,0.4c-0.5,1.7-1.7,2.7-3.4,2.9c-0.6,0.1-1.2,0.1-1.8,0.1c-0.6,0-1.2,0-1.8,0
		c0,0.2,0,0.4,0,0.6c0,4.6,0,9.2,0,13.8c0,1-0.1,2.1-0.6,3.1c-0.8,1.5-2,2.4-3.7,2.5c-1.4,0.1-2.7-0.1-3.9-0.9
		c-0.9-0.7-1.6-1.6-1.7-2.7c-0.1-1.6-0.2-3.1-0.2-4.7c0-3.7,0-7.4,0-11.1c0-0.2,0-0.4,0-0.6c-1,0-1.9,0-2.8,0c-1,0-2-0.2-2.9-0.9
		c-0.7-0.5-1-1.3-1.4-2c-0.1,0.1-0.2,0.2-0.2,0.4c-0.6,1.5-1.7,2.4-3.3,2.5c-2.6,0.1-5.2,0.1-7.8,0.1c-0.2,0-0.4,0-0.6,0
		c0,0.3,0,0.6,0,0.9c0.2,0,0.4,0,0.5,0c1.4,0.1,2.7,0,4.1,0.2c1.8,0.2,3.4,1.5,3.6,3.6c0.2,1.5-0.2,2.8-1.3,3.9
		c-0.7,0.7-1.6,1.1-2.5,1.1c-1.3,0.1-2.6,0.1-3.9,0.1c-0.2,0-0.4,0-0.6,0c0,0.5,0,0.9,0,1.3c0.2,0,0.4,0,0.5,0c2.2,0,4.4,0,6.7,0
		c1.3,0,2.5,0.2,3.5,1.1c0.5,0.5,0.9,1.1,1.1,1.8c0.3,1.1,0.3,2.2-0.1,3.3c-0.5,1.4-1.5,2.2-2.9,2.4c-1,0.2-2,0.1-3,0.2
		c-0.1,0-0.2,0-0.4,0c-2.8,0-5.7,0-8.5,0c-1,0-2.1,0-3.1-0.2c-2-0.2-3.4-1.6-3.8-3.6c-0.1-0.6-0.2-1.3-0.2-2c0-6,0-12,0-18
		c0-1.1,0.2-2.2,0.8-3.2c0.6-1.1,1.7-1.6,2.9-1.8c1-0.1,2-0.2,3-0.2c2.9,0,5.7,0,8.6,0c1.1,0,2.2,0,3.3,0.1c1.6,0.2,2.9,0.9,3.4,2.6
		c0,0.1,0.1,0.1,0.1,0.3c0.3-1.1,0.8-1.8,1.6-2.3c0.6-0.3,1.2-0.6,1.8-0.6c2.2-0.1,4.5-0.1,6.8-0.1c2.3,0,4.7,0,7,0
		c1.2,0,2.4,0,3.5,0.1c1.7,0.2,2.9,1,3.4,2.9c0,0.2,0.1,0.4,0.2,0.5C340.5,86.9,340.5,87.5,340.5,88.1z M302.6,89.8
		c0.1,0,0.2,0,0.3,0c3,0,6.1,0,9.1,0c1.2,0,2.2-0.5,2.5-1.8c0.1-0.5,0.1-1.1,0-1.7c-0.1-0.9-0.6-1.4-1.5-1.6
		c-0.7-0.1-1.5-0.2-2.2-0.2c-3.9,0-7.8,0-11.7,0c-0.7,0-1.5,0.2-2.2,0.6c-1,0.6-1.2,1.7-1.2,2.8c0,5.2,0,10.4,0,15.7
		c0,1.2,0,2.4,0.1,3.6c0.1,1.2,0.8,2.2,2,2.4c0.9,0.2,1.8,0.3,2.7,0.3c3.1,0,6.2,0,9.3,0c0.8,0,1.6,0,2.4-0.1
		c1.2-0.1,2.1-0.7,2.2-1.7c0.1-0.6,0-1.3-0.1-1.9c-0.1-0.7-0.5-1.2-1.2-1.3c-0.7-0.2-1.3-0.3-2-0.4c-2.7,0-5.3,0-8,0
		c-0.2,0-0.4,0-0.6,0c0-1.6,0-3.2,0-4.8c0.1,0,0.1,0,0.1,0c1.5,0,3,0,4.4,0c0.5,0,0.9,0,1.4-0.1c1.6-0.3,2.4-1.3,2.3-3
		c-0.1-1.3-1.1-2.2-2.6-2.3c-1.4-0.1-2.8-0.1-4.2-0.1c-0.5,0-1,0-1.5,0C302.6,92.6,302.6,91.2,302.6,89.8z M331.6,89.8
		c0.2,0,0.3,0,0.4,0c1.4,0,2.9,0,4.3,0c0.7,0,1.5-0.2,1.9-0.8c0.8-1,0.7-2.2,0.3-3.3c-0.4-1-1.4-1.1-2.2-1.1c-5.3,0-10.6,0-16,0
		c-1,0-1.8,0.3-2.2,1.3c-0.3,0.6-0.3,1.2-0.2,1.9c0.2,0.9,0.7,1.7,1.6,1.9c1,0.2,2,0.2,3,0.2c0.8,0,1.7,0,2.5,0c0,0.1,0,0.2,0,0.2
		c0,2.1,0,4.3,0,6.4c0,3.5,0,7,0,10.5c0,1,0.4,1.9,1.3,2.5c0.7,0.4,1.5,0.5,2.3,0.5c1.3,0,2.4-0.8,2.8-2.1c0.1-0.6,0.2-1.1,0.2-1.7
		c0-5.2,0-10.3,0-15.5C331.6,90.2,331.6,90,331.6,89.8z"/>
	<path class="st3" d="M181.1,88.3c-0.3,1-0.9,2-1.9,2.5c-0.7,0.3-1.5,0.6-2.3,0.7c-2.4,0.1-4.7,0-7.1,0c-0.2,0-0.4,0-0.6,0
		c0,0.3,0,0.5,0,0.8c0.8,0,1.6,0,2.5,0c0.9,0.1,1.8,0.1,2.7,0.3c2.3,0.6,3.4,2.7,3.1,4.9c-0.3,2.1-2.1,3.5-3.9,3.7
		c-1.2,0.1-2.5,0.1-3.7,0.1c-0.2,0-0.4,0-0.6,0c0,0.5,0,0.9,0,1.3c0.5,0,1,0,1.5,0c2.1,0,4.2,0,6.4,0c2,0.1,3.5,1.2,4.1,3.1
		c0.5,1.8-0.1,4.2-2,5.2c-0.5,0.3-1.2,0.4-1.8,0.4c-4.5,0-9.1,0.1-13.6,0c-1.5,0-2.9-0.5-3.8-1.8c-0.6-0.9-0.8-1.8-0.9-2.9
		c-0.1,0.1-0.1,0.2-0.1,0.3c0,0.1,0,0.2-0.1,0.2c-0.7,2.1-2,3.7-4.3,4.2c-1.4,0.3-2.8-0.1-3.9-1c-1.2-1-2.4-2-3.6-3.1
		c-1-0.9-1.9-1.8-2.9-2.7c0,0-0.1-0.1-0.3-0.1c0,0.7,0,1.3,0,1.9c0,1.1-0.3,2.1-0.9,3.1c-0.9,1.3-2.1,1.9-3.6,2
		c-1.2,0.1-2.3-0.1-3.4-0.6c-1.2-0.6-1.9-1.7-2.1-3c-0.2-1.1-0.2-2.3-0.2-3.4c0-4.4,0-8.7,0-13.1c0-1.5-0.1-3.1,0.1-4.6
		c0.2-2,1.1-3.4,3.3-3.9c0.9-0.2,1.7-0.2,2.6-0.2c2.7,0,5.4,0,8,0c2.1,0,4.1,0.2,6,1.2c2.6,1.4,4.1,3.6,4.6,6.5
		c0.6,2.9-0.1,5.5-1.9,7.8c-0.6,0.8-1.3,1.5-2,2.2c0.5,0.4,1,1,1.6,1.5c0.9,0.8,1.8,1.6,2.4,2.8c0.2,0.4,0.3,0.8,0.5,1.3
		c0-0.8,0-1.4,0-2.1c0-5.7-0.1-11.3,0.1-17c0-2,1.1-3.6,3.4-4c0.9-0.2,1.9-0.2,2.8-0.2c3.5,0,7,0,10.4,0c1,0,1.9,0.1,2.8,0.3
		c1.3,0.3,2.1,1.2,2.6,2.5c0.1,0.1,0.1,0.3,0.2,0.5c0.1-0.3,0.2-0.5,0.3-0.7c1-2.2,3.3-3.4,5.5-3.1c1.7,0.2,3,1.1,3.7,2.7
		c1.4,2.8,2.7,5.7,4,8.5c0.1,0.2,0.2,0.3,0.3,0.6c0.2-0.4,0.3-0.7,0.5-1c0.6-1.4,1.2-2.9,1.9-4.3c0.7-1.5,1.4-3.1,2.3-4.4
		c1.5-2.3,4.6-2.7,6.8-1.2c1.5,1.1,2.5,2.5,2.4,4.6c-0.1,0.7-0.2,1.3-0.5,1.9c-1.4,3.2-2.9,6.4-4.4,9.6c-1.4,3.2-2.9,6.3-4.3,9.5
		c-0.7,1.6-1.9,2.5-3.5,2.9c-2.1,0.5-4.6-0.6-5.6-2.6c-0.7-1.5-1.4-3-2.1-4.5c-0.8-1.8-1.7-3.6-2.5-5.4c-1.2-2.6-2.4-5.2-3.5-7.9
		C181.9,90.2,181.5,89.3,181.1,88.3z M142.1,100.8c0.1,0.1,0.2,0.1,0.3,0.2c1.7,1.5,3.4,3.1,5.1,4.6c1.3,1.2,2.7,2.4,4.1,3.5
		c0.5,0.4,1.1,0.7,1.7,0.7c1.6,0.2,3.1-0.9,3.7-2.6c0.2-0.7,0.2-1.3-0.2-1.9c-0.3-0.5-0.7-0.9-1.1-1.3c-1.2-1.2-2.5-2.4-3.8-3.6
		c0.5-0.5,1-1,1.5-1.5c0.6-0.6,1.2-1.1,1.7-1.7c2.5-3.1,2.3-7.8-0.6-10.5c-1.6-1.5-3.5-2.1-5.6-2.1c-3.5-0.1-6.9,0-10.4,0
		c-2.2,0-3.1,1-3.1,3.2c0,1.2-0.1,2.5-0.1,3.7c0,4.9,0,9.8,0.1,14.6c0,0.4,0,0.8,0,1.2c0.2,1.6,1.3,2.5,3.1,2.6
		c1.9,0.1,3.2-0.8,3.5-2.7c0.1-0.5,0.1-1,0.1-1.5C142.1,104,142.1,102.4,142.1,100.8z M167.4,89.7c0.2,0,0.4,0,0.6,0
		c2.8,0,5.6,0,8.3,0c0.5,0,0.9,0,1.4-0.1c1.3-0.3,1.9-1.5,1.7-3c-0.2-1.3-1.1-2.1-2.6-2.1c-4.4,0-8.7,0-13.1,0
		c-2.1,0-3.1,1.1-3.2,3.2c0,1,0,2,0,3c0,4.3,0,8.7,0,13c0,1.1,0,2.1,0,3.2c0.1,1.5,0.8,2.5,2.1,2.8c0.4,0.1,0.8,0.1,1.2,0.1
		c4.4,0,8.8,0,13.3,0c0.7,0,1.3-0.2,1.6-0.8c0.6-0.9,0.8-1.9,0.4-3c-0.4-1-1.3-1.4-2.3-1.5c-0.8-0.1-1.5-0.1-2.3-0.1
		c-2.2,0-4.4,0-6.7,0c-0.2,0-0.4,0-0.5,0c0-1.6,0-3.2,0-4.8c1,0,2,0,3,0c1,0,2,0,3-0.1c1.4-0.2,2.2-1.1,2.3-2.4
		c0.1-1.5-0.6-2.4-2-2.8c-0.4-0.1-0.8-0.2-1.3-0.2c-1.5,0-3,0-4.5,0c-0.2,0-0.4,0-0.5,0C167.4,92.6,167.4,91.2,167.4,89.7z
		 M195,98.2c-0.1-0.2-0.2-0.3-0.2-0.4c-0.7-1.5-1.4-3-2-4.5c-1.1-2.4-2.2-4.8-3.4-7.3c-0.4-0.9-1-1.7-2.1-2
		c-1.5-0.4-2.7,0.1-3.7,1.2c-1,1.1-0.9,2.4-0.3,3.6c2.9,6.3,5.7,12.6,8.6,18.9c0.6,1.4,1.8,2,3.3,2c1.4,0,2.4-0.7,3-2
		c2.9-6.4,5.8-12.7,8.7-19.1c1-2.3-0.6-4.8-3.1-4.8c-1.5,0-2.5,0.8-3.1,2.1c-0.7,1.4-1.4,2.9-2,4.3C197.3,92.9,196.2,95.5,195,98.2z
		"/>
	<path class="st3" d="M228.9,102.7c1.1,0,2.2,0,3.3,0c1.5,0,3.1-0.1,4.6,0c2.1,0.1,3.6,1.2,4.1,3.4c0.4,2-0.3,4.2-2.2,5
		c-0.5,0.2-1.1,0.3-1.6,0.3c-3.5,0.1-6.9,0.1-10.4,0.1c-1.4,0-2.8-0.1-4.2-0.2c-0.9-0.1-1.4-0.7-2.1-1.2c-0.7-0.7-1.5-1.3-2.2-2
		c-0.1-0.1-0.3-0.2-0.5-0.2c-1.2,0-2.3,0-3.5,0c-0.9,0-1.6,0.6-2,1.4c-0.5,1-1.3,1.7-2.3,2.1c-1.3,0.5-2.5,0.2-3.7-0.3
		c-1.6-0.7-2.7-1.9-3-3.7c-0.2-1-0.1-2,0.4-2.9c1-1.9,1.9-3.8,2.9-5.7c1.3-2.5,2.6-4.9,3.9-7.4c1-1.8,1.9-3.6,2.9-5.4
		c0.5-0.9,1-1.8,1.9-2.5c0.9-0.7,2-0.8,3.1-0.8c6,0,12.1,0,18.1,0.1c0.8,0,1.6,0.2,2.3,0.5c1.4,0.6,2,1.8,2.1,3.3
		c0.1,1.1,0,2.1-0.6,3c-0.8,1.2-2,1.8-3.4,1.9c-2.3,0.1-4.7,0-7,0.1c-0.3,0-0.5,0-0.8,0c-0.3,0-0.5,0-0.5,0.4c0,0.3,0.1,0.6,0.5,0.6
		c0.4,0,0.7,0,1.1-0.1c1.4-0.1,2.8-0.1,4.1,0.4c1.7,0.6,2.6,2,2.7,3.7c0.1,1.5-0.2,2.9-1.5,3.9c-0.6,0.5-1.4,0.9-2.2,0.9
		c-1.1,0.1-2.2,0.1-3.3,0.1c-0.1,0-0.1,0-0.2,0C228.8,101.4,228.8,101.4,228.9,102.7z M232.2,89.7C232.2,89.7,232.2,89.7,232.2,89.7
		c1.6-0.1,3.3,0,4.9-0.1c0.8,0,1.5-0.4,2-1.2c0.9-1.7,0-3.6-1.9-3.9c-0.3,0-0.5-0.1-0.8-0.1c-6,0-12,0-18,0c-1.4,0-2.5,0.6-3.2,1.9
		c-0.1,0.3-0.3,0.6-0.5,0.9c-3.1,5.9-6.3,11.8-9.4,17.7c-0.7,1.4-0.5,2.7,0.6,3.8c1.5,1.4,4.2,1.7,5.2-0.6c0.5-1.1,1.5-1.8,2.7-1.9
		c1.3-0.1,2.5-0.1,3.8-0.1c0.8,0,1.5,0.2,2.1,0.7c0.8,0.7,1.5,1.4,2.3,2.1c0.3,0.3,0.8,0.6,1.2,0.6c1.4,0.1,2.9,0.2,4.3,0.2
		c3.3,0,6.5,0,9.8-0.1c0.4,0,0.9-0.2,1.2-0.5c0.9-0.7,0.9-1.8,0.7-2.8c-0.2-1-0.8-1.7-1.8-1.7c-1.7-0.1-3.4-0.2-5.1-0.2
		c-1.6,0-3.2,0-4.8,0c-0.1,0-0.3-0.2-0.3-0.3c0-0.9-0.1-1.7,0-2.6c0.1-1.2,0.6-1.7,1.8-1.9c0.3,0,0.6,0,1,0c1.2,0,2.3,0,3.5-0.1
		c1.4-0.1,2.2-1.1,2.2-2.6c0-1.5-0.8-2.5-2.1-2.7c-0.5-0.1-1.1-0.1-1.6-0.1c-0.8,0-1.7,0.1-2.5,0.1c-1.4,0-2.2-0.9-2.2-2.3
		c0-0.6,0.2-1.2,0.3-1.8c0-0.3,0.2-0.4,0.5-0.4C229.4,89.7,230.8,89.7,232.2,89.7z"/>
	<path class="st3" d="M282.7,92.5c0-0.5,0-0.9,0-1.3c0-1.3,0-2.7,0.1-4c0.2-2.5,1.7-4.3,4.4-4.4c1,0,2,0,3,0.4
		c1.5,0.6,2.3,1.8,2.6,3.3c0.1,0.8,0.2,1.6,0.2,2.4c0,5.8,0,11.5,0,17.3c0,0.8-0.1,1.6-0.4,2.4c-0.5,1.6-1.7,2.5-3.3,2.9
		c-1.9,0.5-3.6,0.1-5-1.3c-0.9-0.9-1.8-2-2.7-3c-0.7-0.8-1.4-1.6-2.1-2.4c-0.7-0.9-1.5-1.8-2.2-2.7c-0.1-0.1-0.1-0.1-0.2-0.2
		c0,0.2,0,0.3,0,0.5c0,1.6,0,3.3-0.1,4.9c-0.2,1.7-1.1,3.1-2.6,3.9c-0.7,0.4-1.5,0.6-2.3,0.7c-1.5,0.2-3.5-1.1-4.2-2.4
		c-0.6-1.1-0.9-2.3-0.8-3.6c0-2,0-4.1,0-6.1c0-4.3,0-8.6,0-12.9c0-1.4,1.2-3,2.7-3.5c1.5-0.5,3.1-0.7,4.6,0c1.1,0.5,1.8,1.3,2.6,2.2
		c1.1,1.3,2.1,2.6,3.2,3.9c0.7,0.9,1.5,1.8,2.2,2.6C282.2,92,282.4,92.2,282.7,92.5z M275.2,96.9c0.3,0.3,0.4,0.5,0.6,0.7
		c2.9,3.5,5.9,7,8.9,10.5c0.4,0.5,0.9,0.9,1.4,1.2c2,1.1,4.4,0.2,4.9-1.9c0.1-0.4,0.1-0.9,0.1-1.3c0-5.8,0-11.7,0-17.5
		c0-0.5,0-1-0.1-1.5c-0.2-1.4-0.9-2.2-2.1-2.5c-0.5-0.1-1.1-0.2-1.7-0.1c-1.7,0.1-2.5,0.9-2.8,2.6c-0.1,0.6-0.1,1.3-0.2,1.9
		c0,2.5,0,5,0,7.5c0,0.2,0,0.3,0,0.6c-0.1-0.2-0.2-0.2-0.3-0.3c-3-3.6-6.1-7.2-9.1-10.8c-1-1.1-2.1-1.6-3.5-1.5
		c-1.9,0.2-2.8,1.2-2.8,3.2c0,2,0,4,0,6c0,4.4,0,8.7,0.1,13.1c0,1.7,1.4,3.1,3.1,3.2c1.6,0.1,3.1-1.1,3.4-2.8
		c0.1-0.6,0.1-1.2,0.1-1.9C275.2,102.5,275.2,99.8,275.2,96.9z"/>
	<path class="st3" d="M262.2,100.3c1,1,2.1,1.9,3,2.8c1,1,1.6,2.1,1.4,3.6c-0.1,1-0.5,1.8-1,2.6c-0.8,1.2-1.9,2-3.3,2.2
		c-1.3,0.3-2.6,0-3.7-0.9c-0.9-0.7-1.8-1.5-2.7-2.3c-1.4-1.2-2.7-2.4-4.1-3.7c-0.1,0.8-0.1,1.5-0.2,2.2c-0.1,2-1.3,3.8-3.4,4.4
		c-2,0.6-3.9,0.3-5.4-1.2c-0.9-0.9-1.3-2-1.3-3.3c0-6.7,0-13.3,0.1-20c0-1.9,1.2-3.4,3.4-3.9c0.9-0.2,1.8-0.2,2.8-0.2
		c2.5,0,5.1-0.1,7.6,0c1.8,0,3.6,0.1,5.4,0.8c3,1.3,4.8,3.5,5.5,6.8c0.4,2,0.3,4-0.6,5.9c-0.7,1.5-1.7,2.8-3,3.8
		C262.4,100.1,262.3,100.2,262.2,100.3z M259.7,100.4c0.5-0.6,1-1.1,1.6-1.6c1.8-1.5,3.2-3.3,3.4-5.9c0.1-2.7-0.6-5-2.7-6.7
		c-1.5-1.2-3.3-1.7-5.1-1.7c-3.5-0.1-7,0-10.4,0c-2.1,0-3.1,1.2-3.1,3.3c0,1.5-0.1,3-0.1,4.6c0,4.7,0,9.5,0.1,14.2
		c0,1.8,1.2,3.1,2.9,3.2c2.1,0.2,3.5-0.7,3.8-2.7c0.1-1,0.1-2.1,0.1-3.2c0-1.1,0-2.1,0-3.3c0.2,0.1,0.3,0.2,0.3,0.3
		c2.2,2,4.4,4,6.6,5.9c0.9,0.8,1.9,1.7,2.9,2.4c1.5,1,3.2,0.6,4.3-0.8c1.3-1.6,1.2-2.8-0.2-4.3c-0.5-0.5-1.1-1-1.7-1.6
		C261.4,101.9,260.6,101.2,259.7,100.4z"/>
	<path class="st3" d="M75.9,78c0,3.7-1.3,7.1-3.8,10.1c-0.7,0.8-1.4,1.6-2.4,2.1c-1,0.5-2.1,0.8-3.3,0.4c-1.4-0.4-2.4-1.2-3-2.4
		c-0.4-0.7-0.6-1.6-0.7-2.4c-0.2-1.1-0.3-2.3-0.2-3.4c0.1-1.4,0.3-2.7,0.6-4c0.4-1.8,1.3-3.5,2.4-5c1-1.2,2-2.4,3.5-3
		c2.3-0.9,5,0.1,6,2.5C75.8,74.4,75.9,76.1,75.9,78z M74.2,78.4c0-1.4,0-3-0.6-4.5c-0.8-2.1-3-2.8-4.7-1.4c-0.9,0.8-1.7,1.7-2.4,2.7
		c-1.6,2.3-2.2,4.9-2.3,7.6c0,1.3,0.1,2.6,0.5,3.9c0.3,0.9,0.8,1.6,1.7,2c1.4,0.6,2.5,0.2,3.5-0.8C72.6,85.3,74,82.2,74.2,78.4z"/>
	<path class="st3" d="M92.3,104.2c0-4.8,0-9.5,0-14.2c1.9-0.4,3.7-0.6,5.5,0.4c1.9,1,2.9,2.8,3.3,4.9c0.5,2.5,0,4.8-1.5,6.8
		c-1.4,2-3.4,2.5-5.6,2.3C93.4,104.4,92.9,104.3,92.3,104.2z M94,102.7c1.7,0.2,3.2-0.2,4.1-1.4c1.8-2.4,2.1-5.7,0.1-8.3
		c-1.1-1.4-2.5-1.6-4.2-1.4C94,95.3,94,99,94,102.7z"/>
	<path class="st3" d="M150,92.5c-0.4,0.5-1,1.1-1.6,1.8c-0.5,0.5-1.1,0.7-1.7,0.7c-1.5,0-3,0-4.5,0c0-1.7,0-3.4,0-5.1
		c1.6,0,3.3,0,4.9,0c0.4,0,0.9,0.3,1.2,0.6C148.9,91,149.4,91.8,150,92.5z M143.9,93.2c0.9,0,1.8,0,2.6,0c0.6,0,1-0.4,1.4-1
		c-0.4-0.3-0.7-0.6-1-0.7c-1-0.1-1.9-0.1-2.9-0.2c0,0.5,0,0.9,0,1.4C143.9,92.9,143.9,93,143.9,93.2z"/>
	<path class="st3" d="M215.3,100.7c1.2-2.3,2.4-4.5,3.6-6.8c0.6,0.1,1.1,0.2,1.7,0.3c0,0.6,0,1.3,0,1.9c0,1,0,1.9,0,2.9
		c-0.1,1.2-0.6,1.9-1.7,1.9C217.7,100.9,216.5,100.8,215.3,100.7z M218.1,99.2c0.8,0.1,0.8,0.1,0.8-0.6c0-0.3,0-0.5,0-0.8
		c0,0-0.1,0-0.1,0C218.6,98.2,218.3,98.6,218.1,99.2z"/>
	<path class="st3" d="M250.1,89.8c1.5,0,3,0,4.5,0c0.8,0,1.4,0.4,1.9,0.9c0.5,0.6,1,1.1,1.4,1.6c-0.6,0.7-1.2,1.4-1.8,2
		c-0.5,0.5-1.3,0.6-2,0.7c-1.3,0-2.7,0-4,0C250.1,93.2,250.1,91.5,250.1,89.8z M255.6,92.3c-0.3-0.5-0.7-0.9-1.3-0.9
		c-0.7,0-1.5,0-2.2,0c-0.1,0-0.3,0.2-0.3,0.3c0,0.5,0,1,0,1.5C253.1,93.1,254.6,93.8,255.6,92.3z"/>
</g>
</svg>
